SplineFontDB: 3.0
FontName: aghtex_mathrm
FullName: aghtex_mathrm
FamilyName: aghtex_mathrm
Weight: Book
Copyright: Copyright (C) 2012-2013, Koichi Murase, 1997, 2009, American Mathematical Society <http://www.ams.org>, with Reserved Font Name CMR9, CMSY9, MSBM10.
Version: 1.0.36/2013-11-04
ItalicAngle: 0
UnderlinePosition: -136
UnderlineWidth: 20
Ascent: 819
Descent: 205
LayerCount: 2
Layer: 0 1 "+gMyXYgAA"  1
Layer: 1 1 "+Uk2XYgAA"  0
NeedsXUIDChange: 1
UniqueID: 4702302
FSType: 0
OS2Version: 1
OS2_WeightWidthSlopeOnly: 0
OS2_UseTypoMetrics: 0
CreationTime: 878738956
ModificationTime: 1383761603
PfmFamily: 17
TTFWeight: 400
TTFWidth: 5
LineGap: 92
VLineGap: 0
OS2TypoAscent: 0
OS2TypoAOffset: 1
OS2TypoDescent: 0
OS2TypoDOffset: 1
OS2TypoLinegap: 92
OS2WinAscent: 0
OS2WinAOffset: 1
OS2WinDescent: 0
OS2WinDOffset: 1
HheadAscent: 0
HheadAOffset: 1
HheadDescent: 0
HheadDOffset: 1
OS2Vendor: 'PfEd'
MarkAttachClasses: 1
DEI: 91125
ShortTable: maxp 16
  0
  0
  0
  0
  0
  0
  0
  2
  1
  2
  22
  0
  256
  0
  0
  0
EndShort
TtTable: prep
PUSHW_1
 511
SCANCTRL
PUSHB_1
 1
SCANTYPE
SVTCA[y-axis]
MPPEM
PUSHB_1
 8
LT
IF
PUSHB_2
 1
 1
INSTCTRL
EIF
PUSHB_2
 70
 6
CALL
IF
POP
PUSHB_1
 16
EIF
MPPEM
PUSHB_1
 20
GT
IF
POP
PUSHB_1
 128
EIF
SCVTCI
PUSHB_1
 6
CALL
NOT
IF
SVTCA[y-axis]
PUSHB_1
 6
DUP
RCVT
PUSHB_1
 3
CALL
WCVTP
PUSHB_1
 7
DUP
RCVT
PUSHB_3
 6
 58
 2
CALL
PUSHB_1
 3
CALL
WCVTP
PUSHB_1
 8
DUP
RCVT
PUSHB_3
 6
 34
 2
CALL
PUSHB_1
 3
CALL
WCVTP
SVTCA[x-axis]
PUSHB_1
 9
DUP
RCVT
PUSHB_1
 3
CALL
WCVTP
PUSHB_1
 10
DUP
RCVT
PUSHB_3
 9
 58
 2
CALL
PUSHB_2
 3
 70
SROUND
CALL
WCVTP
PUSHB_1
 11
DUP
RCVT
PUSHB_3
 9
 24
 2
CALL
PUSHB_2
 3
 70
SROUND
CALL
WCVTP
EIF
PUSHB_1
 20
CALL
EndTTInstrs
TtTable: fpgm
PUSHB_1
 0
FDEF
PUSHB_1
 0
SZP0
MPPEM
PUSHB_1
 71
LT
IF
PUSHB_1
 74
SROUND
EIF
PUSHB_1
 0
SWAP
MIAP[rnd]
RTG
PUSHB_1
 6
CALL
IF
RTDG
EIF
MPPEM
PUSHB_1
 71
LT
IF
RDTG
EIF
DUP
MDRP[rp0,rnd,grey]
PUSHB_1
 1
SZP0
MDAP[no-rnd]
RTG
ENDF
PUSHB_1
 1
FDEF
DUP
MDRP[rp0,min,white]
PUSHB_1
 12

StartChar: blackdiamond
Encoding: 9830 9830 1
Width: 799
VWidth: 1000
Flags: W
LayerCount: 2
Fore
SplineSet
726 244 m 0,0,1
 550 83 550 83 429 -153 c 0,2,3
 423 -163 423 -163 421 -165 c 0,4,5
 415 -171 415 -171 407 -172 c 0,6,7
 405 -173 405 -173 400 -173 c 0,8,9
 385 -173 385 -173 376 -161 c 0,10,11
 366 -146 366 -146 362 -138 c 0,12,13
 246 88 246 88 70 248 c 0,14,15
 60 257 60 257 54 263 c 0,16,17
 47 271 47 271 47 282 c 0,18,19
 47 292 47 292 54 301 c 0,20,21
 58 306 58 306 73 320 c 0,22,23
 249 480 249 480 370 718 c 0,24,25
 380 737 380 737 400 737 c 0,26,27
 415 737 415 737 423 726 c 0,28,29
 430 717 430 717 437 702 c 0,30,31
 547 486 547 486 729 316 c 0,32,33
 744 302 744 302 746 300 c 0,34,35
 752 293 752 293 752 282 c 0,36,37
 752 272 752 272 745 263 c 0,38,39
 741 258 741 258 726 244 c 0,0,1
EndSplineSet
Validated: 1
EndChar

StartChar: angle
Encoding: 8736 8736 2
Width: 759
Flags: W
HStem: -10 64<152 703.718>
LayerCount: 2
Fore
SplineSet
48 23 m 0,0,1
 48 29 48 29 51 35 c 0,2,3
 52.5 38 52.5 38 57 44 c 2,4,-1
 656 711 l 2,5,6
 664 719 664 719 674 721 c 1,7,8
 679 721 l 2,9,10
 685 721 685 721 692 717 c 0,11,12
 708 709 708 709 710 692 c 1,13,14
 710 689 l 2,15,16
 710 684 710 684 709 681 c 0,17,18
 706 672 706 672 701 667 c 2,19,-1
 152 54 l 1,20,-1
 682 54 l 1,21,-1
 683 54 l 1,22,23
 695 51 695 51 704 41 c 1,24,25
 710 32 710 32 710 23 c 0,26,27
 710 11 710 11 702 1.5 c 128,-1,28
 694 -8 694 -8 683 -10 c 1,29,-1
 682 -10 l 1,30,-1
 78 -10 l 1,31,-1
 77 -10 l 1,32,33
 48 -4 48 -4 48 23 c 0,0,1
EndSplineSet
Validated: 1
EndChar

StartChar: proportional
Encoding: 8733 8733 3
Width: 799
VWidth: 1000
Flags: W
HStem: -21 65<645.861 750.836> -21 52<159.75 310.106> 387 65<157.135 295.139> 400 52<631.381 741>
VStem: 47 45<111.88 310.101>
LayerCount: 2
Fore
SplineSet
751 49 m 1,0,-1
 751 -15 l 1,1,-1
 743 -17 l 2,2,3
 723 -21 723 -21 704 -21 c 0,4,5
 669 -21 669 -21 636.5 -10 c 128,-1,6
 604 1 604 1 580.5 16.5 c 128,-1,7
 557 32 557 32 533.5 55.5 c 128,-1,8
 510 79 510 79 496.5 97 c 128,-1,9
 483 115 483 115 467 139 c 1,10,11
 423 64 423 64 363.5 21.5 c 128,-1,12
 304 -21 304 -21 235 -21 c 0,13,14
 149 -21 149 -21 98 50.5 c 128,-1,15
 47 122 47 122 47 215 c 0,16,17
 47 311 47 311 99 381.5 c 128,-1,18
 151 452 151 452 237 452 c 0,19,20
 272 452 272 452 304.5 441 c 128,-1,21
 337 430 337 430 360.5 414.5 c 128,-1,22
 384 399 384 399 407.5 375.5 c 128,-1,23
 431 352 431 352 444.5 334 c 128,-1,24
 458 316 458 316 474 292 c 1,25,26
 518 367 518 367 577.5 409.5 c 128,-1,27
 637 452 637 452 706 452 c 0,28,29
 728 452 728 452 737 449 c 1,30,-1
 739 449 l 1,31,32
 740 447 740 447 741 447 c 0,33,34
 743 445 743 445 744 444 c 128,-1,35
 745 443 745 443 746 442.5 c 128,-1,36
 747 442 747 442 747.5 441 c 128,-1,37
 748 440 748 440 749 438 c 0,38,39
 751 432 751 432 751 407 c 2,40,-1
 751 395 l 1,41,-1
 739 397 l 2,42,43
 726 400 726 400 713 400 c 0,44,45
 674 400 674 400 639 382.5 c 128,-1,46
 604 365 604 365 579 337 c 128,-1,47
 554 309 554 309 538 284.5 c 128,-1,48
 522 260 522 260 511 236 c 1,49,50
 586 123 586 123 625.5 83.5 c 128,-1,51
 665 44 665 44 717 44 c 0,52,53
 730 44 730 44 738 46 c 2,54,-1
 751 49 l 1,0,-1
430 195 m 1,55,56
 355 308 355 308 315.5 347.5 c 128,-1,57
 276 387 276 387 224 387 c 0,58,59
 166 387 166 387 129 335.5 c 128,-1,60
 92 284 92 284 92 215 c 0,61,62
 92 142 92 142 128.5 86.5 c 128,-1,63
 165 31 165 31 228 31 c 0,64,65
 267 31 267 31 302 48.5 c 128,-1,66
 337 66 337 66 362 94 c 128,-1,67
 387 122 387 122 403 146.5 c 128,-1,68
 419 171 419 171 430 195 c 1,55,56
EndSplineSet
Validated: 1
EndChar

StartChar: anticlockwise
Encoding: 8634 8634 4
Width: 818
Flags: W
HStem: -106 53<294.501 523.399> 534 49<239.523 281.749> 564 53<391.282 427.811>
VStem: 48 53<141.401 369.54> 716 53<139.381 369.568>
LayerCount: 2
Fore
SplineSet
48 256 m 0,0,1
 48 359 48 359 103 447.5 c 128,-1,2
 158 536 158 536 251 580 c 1,3,-1
 255 582 l 2,4,5
 257 583 257 583 263 583 c 0,6,7
 274 583 274 583 282 575.5 c 128,-1,8
 290 568 290 568 290 557 c 0,9,10
 290 541 290 541 276 534 c 0,11,12
 197 496 197 496 149 420 c 128,-1,13
 101 344 101 344 101 256 c 0,14,15
 101 129 101 129 191.5 38 c 128,-1,16
 282 -53 282 -53 409 -53 c 128,-1,17
 536 -53 536 -53 626 37.5 c 128,-1,18
 716 128 716 128 716 256 c 0,19,20
 716 352 716 352 659.5 432.5 c 128,-1,21
 603 513 603 513 513 546 c 1,22,-1
 512 544 l 1,23,24
 555 482 555 482 567 410 c 1,25,-1
 569 394 l 1,26,-1
 513 410 l 1,27,-1
 512 416 l 2,28,29
 498 504 498 504 428 563 c 1,30,31
 422 564 422 564 408 564 c 0,32,33
 397 564 397 564 389.5 572.5 c 128,-1,34
 382 581 382 581 382 591 c 0,35,36
 382 603 382 603 391 610 c 128,-1,37
 400 617 400 617 411 617 c 0,38,39
 444 617 444 617 474 611 c 1,40,41
 544 632 544 632 590 684 c 1,42,-1
 594 688 l 1,43,-1
 651 673 l 1,44,-1
 639 661 l 1,45,46
 595 615 595 615 548 589 c 1,47,48
 647 547 647 547 708 455.5 c 128,-1,49
 769 364 769 364 769 256 c 0,50,51
 769 106 769 106 664 0 c 128,-1,52
 559 -106 559 -106 409 -106 c 128,-1,53
 259 -106 259 -106 153.5 0 c 128,-1,54
 48 106 48 106 48 256 c 0,0,1
EndSplineSet
Validated: 1
EndChar

StartChar: harpoonupright
Encoding: 8638 8638 5
Width: 438
Flags: W
VStem: 187 64<-207.55 589>
LayerCount: 2
Fore
SplineSet
187 -177 m 2,0,-1
 187 721 l 1,1,-1
 225 721 l 1,2,-1
 228 715 l 1,3,4
 278 608 278 608 393 562 c 1,5,-1
 399 560 l 1,6,-1
 399 504 l 1,7,-1
 386 507 l 1,8,9
 311 529 311 529 251 589 c 1,10,-1
 251 -177 l 2,11,12
 251 -190 251 -190 241.5 -199.5 c 128,-1,13
 232 -209 232 -209 219 -209 c 128,-1,14
 206 -209 206 -209 196.5 -199.5 c 128,-1,15
 187 -190 187 -190 187 -177 c 2,0,-1
EndSplineSet
Validated: 1
EndChar

StartChar: curlyright
Encoding: 8620 8620 6
Width: 1051
Flags: W
HStem: 223 65<144.576 344 408 878> 537 65<128.435 297.656>
VStem: 27 64<335.038 500.203> 344 64<-47.8105 223 288 483.188>
LayerCount: 2
Fore
SplineSet
344 223 m 1,0,-1
 310 223 l 2,1,2
 258 223 258 223 225.5 225 c 128,-1,3
 193 227 193 227 151 237.5 c 128,-1,4
 109 248 109 248 85 267.5 c 128,-1,5
 61 287 61 287 44 323.5 c 128,-1,6
 27 360 27 360 27 413 c 0,7,8
 27 602 27 602 217 602 c 0,9,10
 256 602 256 602 286 591.5 c 128,-1,11
 316 581 316 581 336 565 c 128,-1,12
 356 549 356 549 370 522 c 128,-1,13
 384 495 384 495 391.5 471 c 128,-1,14
 399 447 399 447 403 410.5 c 128,-1,15
 407 374 407 374 407.5 350 c 128,-1,16
 408 326 408 326 408 288 c 1,17,-1
 878 288 l 1,18,19
 821 346 821 346 791 422 c 1,20,-1
 785 436 l 1,21,-1
 843 436 l 1,22,-1
 845 430 l 1,23,24
 891 317 891 317 997 265 c 1,25,-1
 1016 256 l 1,26,-1
 997 247 l 1,27,28
 890 194 890 194 845 81 c 1,29,-1
 843 75 l 1,30,-1
 785 75 l 1,31,-1
 791 89 l 1,32,33
 821 165 821 165 878 223 c 1,34,-1
 408 223 l 1,35,-1
 408 -26 l 1,36,-1
 408 -28 l 1,37,38
 403 -42 403 -42 396 -48 c 0,39,40
 387 -55 387 -55 376 -55 c 0,41,42
 363 -55 363 -55 354.5 -46.5 c 128,-1,43
 346 -38 346 -38 344 -27 c 1,44,-1
 344 -26 l 1,45,-1
 344 223 l 1,0,-1
91 413 m 0,46,47
 91 383 91 383 98.5 361 c 128,-1,48
 106 339 106 339 123 325.5 c 128,-1,49
 140 312 140 312 156.5 304 c 128,-1,50
 173 296 173 296 203 292.5 c 128,-1,51
 233 289 233 289 253 288.5 c 128,-1,52
 273 288 273 288 310 288 c 2,53,-1
 344 288 l 1,54,55
 342 401 342 401 334 444 c 0,56,57
 324 494 324 494 297.5 515.5 c 128,-1,58
 271 537 271 537 217 537 c 0,59,60
 150 537 150 537 120.5 509 c 128,-1,61
 91 481 91 481 91 413 c 0,46,47
EndSplineSet
Validated: 1
EndChar

StartChar: eqgreater
Encoding: 8925 8925 7
Width: 799
VWidth: 1000
Flags: W
HStem: 602 57<76.4153 721.487>
LayerCount: 2
Fore
SplineSet
722 148 m 2,0,1
 722 142 l 1,2,3
 720 133 720 133 711 124 c 0,4,5
 704 118 704 118 697 116 c 1,6,-1
 131 -156 l 2,7,8
 129 -158 129 -158 117 -162 c 0,9,10
 112 -164 112 -164 107 -164 c 0,11,12
 95 -164 95 -164 85.5 -155.5 c 128,-1,13
 76 -147 76 -147 76 -132 c 128,-1,14
 76 -117 76 -117 89 -108 c 0,15,16
 91 -107 91 -107 95 -104.5 c 128,-1,17
 99 -102 99 -102 100 -102 c 2,18,-1
 618 148 l 1,19,-1
 102 395 l 2,20,21
 88 402 88 402 84 406 c 0,22,23
 76 414 76 414 76 424 c 2,24,-1
 76 428 l 2,25,26
 76 440 76 440 84.5 449.5 c 128,-1,27
 93 459 93 459 108 459 c 0,28,29
 114 459 114 459 118 457 c 0,30,31
 124 454 124 454 129 452 c 2,32,-1
 696 180 l 2,33,34
 708 175 708 175 713 170 c 0,35,36
 722 161 722 161 722 148 c 2,0,1
722 632 m 2,37,-1
 722 631 l 2,38,39
 722 608 722 608 701 602 c 0,40,41
 692 599 692 599 677 599 c 2,42,-1
 121 599 l 2,43,44
 108 599 108 599 97 602 c 1,45,46
 76 610 76 610 76 629 c 2,47,-1
 76 631 l 2,48,49
 76 652 76 652 96 659 c 0,50,51
 105 662 105 662 121 662 c 2,52,-1
 677 662 l 2,53,54
 692 662 692 662 702 659 c 0,55,56
 722 653 722 653 722 632 c 2,37,-1
EndSplineSet
Validated: 1
EndChar

StartChar: geq
Encoding: 8805 8805 8
Width: 799
VWidth: 1000
Flags: W
HStem: -161 57<76.5127 721.585> 642 20G<91.5 108>
LayerCount: 2
Fore
SplineSet
129 46 m 1,0,1
 127 45 l 2,2,3
 125 44 125 44 122.5 43 c 128,-1,4
 120 42 120 42 118 41 c 0,5,6
 114 39 114 39 108 39 c 0,7,8
 80 41 80 41 76 68 c 1,9,-1
 76 70 l 1,10,-1
 76 74 l 2,11,12
 76 84 76 84 84 92 c 0,13,14
 86 94 86 94 102 103 c 1,15,-1
 618 350 l 1,16,-1
 100 600 l 1,17,-1
 95.5 602 l 2,18,19
 91 604 91 604 89 606 c 0,20,21
 76 616 76 616 76 630 c 0,22,23
 78 658 78 658 105 662 c 1,24,-1
 107 662 l 2,25,26
 109 662 109 662 117 660 c 0,27,28
 125 657 125 657 131 654 c 2,29,-1
 697 382 l 1,30,-1
 699.5 380.5 l 2,31,32
 702 379 702 379 705.5 377.5 c 128,-1,33
 709 376 709 376 711 374 c 0,34,35
 720 365 720 365 722 356 c 1,36,-1
 722 350 l 2,37,38
 722 336 722 336 713 328 c 0,39,40
 711 326 711 326 707.5 324 c 128,-1,41
 704 322 704 322 700.5 320.5 c 128,-1,42
 697 319 697 319 696 318 c 2,43,-1
 129 46 l 1,0,1
76 -133 m 0,44,45
 76 -110 76 -110 97 -104 c 0,46,47
 106 -101 106 -101 121 -101 c 2,48,-1
 677 -101 l 2,49,50
 690 -101 690 -101 701 -104 c 1,51,52
 722 -112 722 -112 722 -131 c 2,53,-1
 722 -133 l 2,54,55
 722 -154 722 -154 702 -161 c 0,56,57
 693 -164 693 -164 677 -164 c 2,58,-1
 121 -164 l 2,59,60
 106 -164 106 -164 96 -161 c 0,61,62
 76 -155 76 -155 76 -133 c 0,44,45
EndSplineSet
Validated: 1
EndChar

StartChar: rightarrow
Encoding: 8594 8594 9
Width: 1027
VWidth: 1000
Flags: W
HStem: 219 63<48.2085 852>
VStem: 761 50<383.184 433.811>
LayerCount: 2
Fore
SplineSet
92 219 m 2,0,1
 78 219 78 219 67 222 c 0,2,3
 47 229 47 229 47 251 c 0,4,5
 47 274 47 274 69 280 c 0,6,7
 77 282 77 282 92 282 c 2,8,-1
 852 282 l 1,9,10
 810 318 810 318 786.5 358 c 128,-1,11
 763 398 763 398 761 415 c 1,12,-1
 761 417 l 2,13,14
 761 428 761 428 769 434 c 128,-1,15
 777 440 777 440 786 440 c 0,16,17
 803 440 803 440 811 423 c 0,18,19
 857 319 857 319 959 274 c 0,20,21
 973 267 973 267 974 266 c 0,22,23
 977 263 977 263 979 259 c 0,24,25
 980 256 980 256 980 250 c 0,26,27
 980 235 980 235 965 229 c 0,28,29
 860 184 860 184 816 89 c 0,30,31
 806 68 806 68 799 64 c 0,32,33
 798 63 798 63 797 63 c 0,34,35
 793 61 793 61 786 61 c 0,36,37
 778 61 778 61 769.5 66.5 c 128,-1,38
 761 72 761 72 761 84 c 2,39,-1
 761 86 l 1,40,41
 763 104 763 104 787.5 144 c 128,-1,42
 812 184 812 184 852 219 c 1,43,-1
 92 219 l 2,0,1
EndSplineSet
Validated: 1
EndChar

StartChar: check
Encoding: 10003 10003 10
Width: 876
Flags: W
LayerCount: 2
Fore
SplineSet
88 220 m 1,0,1
 78 230 78 230 78 232 c 0,2,3
 78 238 78 238 79 241 c 0,4,5
 86 261 86 261 116.5 277.5 c 128,-1,6
 147 294 147 294 168 297 c 1,7,-1
 178 297 l 1,8,-1
 181 294 l 1,9,-1
 182 294 l 1,10,11
 189 291 189 291 189 288 c 1,12,-1
 280 139 l 1,13,14
 342 315 342 315 466 471 c 0,15,16
 494 506 494 506 545 559.5 c 128,-1,17
 596 613 596 613 665.5 668.5 c 128,-1,18
 735 724 735 724 774 729 c 1,19,-1
 782 729 l 1,20,-1
 784 728 l 2,21,22
 787 727 787 727 788 726 c 0,23,24
 797 722 797 722 797 711 c 0,25,26
 797 708 797 708 795 703 c 0,27,28
 792 694 792 694 782 684 c 1,29,30
 767 671 767 671 739.5 650.5 c 128,-1,31
 712 630 712 630 705 624 c 0,32,33
 676 600 676 600 638 562 c 0,34,35
 553 477 553 477 491 378 c 0,36,37
 389 216 389 216 349 21 c 0,38,39
 343 -4 343 -4 313 -21 c 128,-1,40
 283 -38 283 -38 259 -41 c 1,41,-1
 251 -41 l 1,42,-1
 250 -40 l 2,43,44
 248 -39 248 -39 245 -39 c 1,45,46
 238 -35 238 -35 238 -32 c 1,47,-1
 80 225 l 1,48,-1
 88 220 l 1,0,1
EndSplineSet
Validated: 1
EndChar

StartChar: downfall
Encoding: 8910 8910 11
Width: 806
Flags: W
VStem: 371 64<-31.4502 231.644>
LayerCount: 2
Fore
SplineSet
107 538 m 0,0,1
 96 540 96 540 87 548.5 c 128,-1,2
 78 557 78 557 78 570 c 2,3,-1
 78 576 l 2,4,5
 78 578 78 578 79 580.5 c 2,6,-1
 80 583 l 2,7,8
 87 602 87 602 112 602 c 1,9,10
 173 596 173 596 223 568 c 128,-1,11
 273 540 273 540 307.5 496 c 128,-1,12
 342 452 342 452 365 402.5 c 128,-1,13
 388 353 388 353 403 294 c 1,14,15
 418 353 418 353 441 402.5 c 128,-1,16
 464 452 464 452 498.5 496 c 128,-1,17
 533 540 533 540 583 568 c 128,-1,18
 633 596 633 596 694 602 c 1,19,20
 721 599 721 599 727 579 c 0,21,22
 728 574 728 574 728 572 c 2,23,-1
 728 570 l 2,24,25
 728 557 728 557 719 548.5 c 128,-1,26
 710 540 710 540 699 538 c 0,27,28
 643 532 643 532 599 503.5 c 128,-1,29
 555 475 555 475 527 429.5 c 128,-1,30
 499 384 499 384 480 332.5 c 128,-1,31
 461 281 461 281 451.5 218 c 128,-1,32
 442 155 442 155 438.5 103.5 c 128,-1,33
 435 52 435 52 435 -3 c 2,34,-1
 435 -4 l 1,35,-1
 435 -5 l 1,36,37
 430 -23 430 -23 416 -30 c 0,38,39
 410 -33 410 -33 403 -33 c 1,40,41
 398 -32 398 -32 397 -32 c 0,42,43
 394 -32 394 -32 392 -31 c 0,44,45
 374 -25 374 -25 371 -5 c 1,46,-1
 371 -4 l 1,47,-1
 371 -3 l 2,48,49
 371 52 371 52 367.5 103.5 c 128,-1,50
 364 155 364 155 354.5 218 c 128,-1,51
 345 281 345 281 326 332.5 c 128,-1,52
 307 384 307 384 279 429.5 c 128,-1,53
 251 475 251 475 207 503.5 c 128,-1,54
 163 532 163 532 107 538 c 0,0,1
80 583 m 0,55,-1
EndSplineSet
Validated: 1
EndChar

StartChar: dotplus
Encoding: 8724 8724 12
Width: 818
Flags: W
HStem: 223 65<49.3877 377 441 767.125> 681 131<364.111 455.404>
VStem: 344 131<700.596 791.889> 377 64<-106.718 223 288 622.66>
LayerCount: 2
Fore
SplineSet
377 223 m 1,0,-1
 78 223 l 1,1,-1
 77 223 l 1,2,3
 48 229 48 229 48 256 c 1,4,5
 47 262 47 262 51 269 c 0,6,7
 59 285 59 285 77 288 c 1,8,-1
 78 288 l 1,9,-1
 377 288 l 1,10,-1
 377 595 l 1,11,-1
 377 596 l 1,12,13
 383 624 383 624 410 624 c 1,14,15
 420 625 420 625 428 618 c 1,16,17
 438 611 438 611 441 596 c 1,18,-1
 441 595 l 1,19,-1
 441 288 l 1,20,-1
 740 288 l 1,21,-1
 741 288 l 1,22,23
 759 283 759 283 766 269 c 0,24,25
 769 263 769 263 769 256 c 0,26,27
 769 245 769 245 761.5 235.5 c 128,-1,28
 754 226 754 226 741 223 c 1,29,-1
 740 223 l 1,30,-1
 441 223 l 1,31,-1
 441 -84 l 1,32,-1
 441 -85 l 1,33,34
 438 -98 438 -98 428 -107 c 0,35,36
 421 -113 421 -113 410 -113 c 0,37,38
 383 -113 383 -113 377 -85 c 1,39,-1
 377 -84 l 1,40,-1
 377 223 l 1,0,-1
344 746 m 128,-1,42
 344 773 344 773 363.5 792.5 c 128,-1,43
 383 812 383 812 410 812 c 128,-1,44
 437 812 437 812 456 792.5 c 128,-1,45
 475 773 475 773 475 746 c 128,-1,46
 475 719 475 719 455.5 700 c 128,-1,47
 436 681 436 681 410 681 c 0,48,49
 383 681 383 681 363.5 700 c 128,-1,41
 344 719 344 719 344 746 c 128,-1,42
EndSplineSet
Validated: 1
EndChar

StartChar: harpoonrightleft
Encoding: 8652 8652 13
Width: 1051
Flags: W
HStem: 120 64<180 993.718> 328 64<57.798 871> 520 20G<787 845>
LayerCount: 2
Fore
SplineSet
54 143 m 1,0,-1
 48 146 l 1,1,-1
 48 184 l 1,2,-1
 972 184 l 2,3,4
 985 184 985 184 994 174.5 c 128,-1,5
 1003 165 1003 165 1003 152 c 128,-1,6
 1003 139 1003 139 994 129.5 c 128,-1,7
 985 120 985 120 972 120 c 2,8,-1
 180 120 l 1,9,10
 240 60 240 60 262 -16 c 1,11,-1
 265 -29 l 1,12,-1
 209 -29 l 1,13,-1
 207 -23 l 1,14,15
 162 91 162 91 54 143 c 1,0,-1
81 392 m 2,16,-1
 871 392 l 1,17,18
 812 450 812 450 790 527 c 1,19,-1
 787 540 l 1,20,-1
 843 540 l 1,21,-1
 845 534 l 1,22,23
 890 420 890 420 997 368 c 1,24,-1
 1003 365 l 1,25,-1
 1003 328 l 1,26,-1
 81 328 l 2,27,28
 63 328 63 328 54 341 c 0,29,30
 50 346 50 346 48 354 c 1,31,-1
 48 359 l 2,32,33
 48 372 48 372 57.5 382 c 128,-1,34
 67 392 67 392 81 392 c 2,16,-1
EndSplineSet
Validated: 1
EndChar

StartChar: harpoonupleft
Encoding: 8639 8639 14
Width: 438
Flags: W
VStem: 188 64<-199.202 589>
LayerCount: 2
Fore
SplineSet
188 589 m 1,0,1
 128 530 128 530 52 507 c 1,2,-1
 39 504 l 1,3,-1
 39 560 l 1,4,-1
 45 562 l 1,5,6
 159 608 159 608 211 715 c 1,7,-1
 214 721 l 1,8,-1
 252 721 l 1,9,-1
 252 -177 l 2,10,11
 252 -190 252 -190 243 -199.5 c 128,-1,12
 234 -209 234 -209 220 -209 c 0,13,14
 207 -209 207 -209 197.5 -199.5 c 128,-1,15
 188 -190 188 -190 188 -177 c 2,16,-1
 188 589 l 1,0,1
EndSplineSet
Validated: 1
EndChar

StartChar: followsorequal
Encoding: -1 8829 15
Width: 799
VWidth: 1000
Flags: MW
HStem: -246 60<502 612.5 502 624.5> -63 60<186 296> 429 43<599.5 693 599.5 693>
VStem: 57 30<-220 -212 -212 -180 -220 -163> 711 30<-69 -37 -37 -29>
LayerCount: 2
Fore
SplineSet
72 -246 m 128,-1,1
 60 -246 60 -246 57 -220 c 1,2,-1
 57 -212 l 2,3,4
 57 -132 57 -132 104.5 -67.5 c 128,-1,5
 152 -3 152 -3 228 -3 c 0,6,7
 267 -3 267 -3 304.5 -22 c 128,-1,8
 342 -41 342 -41 372 -67.5 c 128,-1,9
 402 -94 402 -94 431.5 -121 c 128,-1,10
 461 -148 461 -148 497 -167 c 128,-1,11
 533 -186 533 -186 570 -186 c 0,12,13
 632 -186 632 -186 671.5 -139 c 128,-1,14
 711 -92 711 -92 711 -29 c 1,15,16
 714 -3 714 -3 726 -3 c 128,-1,17
 738 -3 738 -3 741 -29 c 1,18,-1
 741 -37 l 2,19,20
 741 -117 741 -117 694 -181.5 c 128,-1,21
 647 -246 647 -246 570 -246 c 0,22,23
 531 -246 531 -246 493.5 -227 c 128,-1,24
 456 -208 456 -208 426 -181 c 128,-1,25
 396 -154 396 -154 366.5 -127.5 c 128,-1,26
 337 -101 337 -101 301 -82 c 128,-1,27
 265 -63 265 -63 228 -63 c 0,28,29
 167 -63 167 -63 127 -110.5 c 128,-1,30
 87 -158 87 -158 87 -220 c 1,31,0
 84 -246 84 -246 72 -246 c 128,-1,1
108 149 m 0,32,33
 86 149 86 149 86 173 c 1,34,35
 108 391 108 391 417 451 c 1,36,37
 108 509 108 509 86 729 c 0,38,39
 86 738 86 738 92 745 c 128,-1,40
 98 752 98 752 108 752 c 0,41,42
 125 752 125 752 129 733 c 1,43,44
 134 682 134 682 159 641 c 128,-1,45
 184 600 184 600 218.5 573.5 c 128,-1,46
 253 547 253 547 303.5 527 c 128,-1,47
 354 507 354 507 400 497 c 128,-1,48
 446 487 446 487 504.5 481 c 128,-1,49
 563 475 563 475 603.5 473.5 c 128,-1,50
 644 472 644 472 693 472 c 1,51,52
 712 468 712 468 712 451 c 0,53,54
 712 433 712 433 693 429 c 1,55,56
 644 429 644 429 603.5 427.5 c 128,-1,57
 563 426 563 426 504 420 c 128,-1,58
 445 414 445 414 399 404 c 128,-1,59
 353 394 353 394 303 374 c 128,-1,60
 253 354 253 354 218.5 327.5 c 128,-1,61
 184 301 184 301 159 260.5 c 128,-1,62
 134 220 134 220 129 169 c 1,63,64
 125 149 125 149 108 149 c 0,32,33
EndSplineSet
Validated: 1
EndChar

StartChar: squareimage
Encoding: 8847 8847 16
Width: 818
Flags: W
HStem: -63 64<142 738.66> 510 64<142 733.718>
VStem: 78 64<1 510>
LayerCount: 2
Fore
SplineSet
78 545 m 1,0,1
 80 559 80 559 89 566 c 0,2,3
 97 572 97 572 107 574 c 1,4,-1
 108 574 l 1,5,-1
 711 574 l 1,6,-1
 712 574 l 1,7,8
 725 571 725 571 734 561 c 0,9,10
 740 554 740 554 740 543 c 0,11,12
 740 516 740 516 712 510 c 1,13,-1
 711 510 l 1,14,-1
 142 510 l 1,15,-1
 142 1 l 1,16,-1
 711 1 l 1,17,-1
 712 1 l 1,18,19
 740 -5 740 -5 740 -32 c 1,20,21
 741 -42 741 -42 734 -50 c 1,22,23
 727 -60 727 -60 712 -63 c 1,24,-1
 711 -63 l 1,25,-1
 109 -63 l 2,26,27
 101 -63 101 -63 93 -58 c 0,28,29
 81 -49 81 -49 78 -36 c 1,30,-1
 78 -35 l 1,31,-1
 78 545 l 1,0,1
EndSplineSet
Validated: 1
EndChar

StartChar: triangle
Encoding: 9651 9651 17
Width: 743
Flags: W
HStem: -33 66<160 583>
LayerCount: 2
Fore
SplineSet
78 -0 m 2,0,1
 78 4 l 1,2,3
 78 7 l 1,4,5
 79 9 l 2,6,7
 79 10 79 10 80 12 c 2,8,-1
 342 582 l 2,9,10
 351 602 351 602 372 602 c 0,11,12
 381 602 381 602 387 598 c 0,13,14
 394 594 394 594 401 582 c 1,15,-1
 663 12 l 2,16,17
 665 6 665 6 665 4 c 2,18,19
 665 2 l 1,20,-1
 665 -0 l 2,21,22
 665 -26 665 -26 639 -33 c 1,23,-1
 637 -33 l 1,24,-1
 107 -33 l 1,25,-1
 105 -33 l 1,26,27
 78 -25 78 -25 78 -0 c 2,0,1
160 33 m 1,28,-1
 583 33 l 1,29,-1
 372 493 l 1,30,-1
 160 33 l 1,28,-1
EndSplineSet
Validated: 1
EndChar

StartChar: nand
Encoding: 8892 8892 18
Width: 643
Flags: W
HStem: -10 21G<75 83 560.5 564.5> 679 64<49.4238 592.125>
LayerCount: 2
Fore
SplineSet
52 38 m 2,0,-1
 294 519 l 1,1,2
 295 521 l 2,3,4
 296 523 296 523 298 525 c 128,-1,5
 300 527 300 527 303 529 c 0,6,7
 312 535 312 535 322 535 c 0,8,9
 327 535 327 535 330 534 c 0,10,11
 346 526 346 526 351 517 c 2,12,-1
 592 35 l 1,13,-1
 592 34 l 1,14,15
 594 26 594 26 594 23 c 0,16,17
 591 -3 591 -3 570 -9 c 0,18,19
 567 -10 567 -10 562 -10 c 0,20,21
 559 -10 559 -10 551 -8 c 0,22,23
 548 -7 548 -7 542 -3 c 1,24,25
 536 3 536 3 533 10 c 2,26,-1
 322 433 l 1,27,-1
 108 7 l 2,28,29
 102 -4 102 -4 91 -8 c 0,30,31
 85 -10 85 -10 81 -10 c 0,32,33
 69 -10 69 -10 58.5 0 c 128,-1,34
 48 10 48 10 48 23 c 0,35,36
 48 27 48 27 49 30 c 0,37,38
 50 32 50 32 51 34 c 128,-1,39
 52 36 52 36 52 38 c 2,0,-1
48 712 m 0,40,41
 48 723 48 723 56 731 c 0,42,43
 65 741 65 741 77 743 c 1,44,-1
 78 743 l 1,45,-1
 565 743 l 1,46,-1
 566 743 l 1,47,48
 580 738 580 738 587 730 c 0,49,50
 594 721 594 721 594 712 c 0,51,52
 594 701 594 701 586.5 691.5 c 128,-1,53
 579 682 579 682 566 679 c 1,54,-1
 565 679 l 1,55,-1
 78 679 l 1,56,-1
 77 679 l 1,57,58
 48 685 48 685 48 712 c 0,40,41
EndSplineSet
Validated: 1
EndChar

StartChar: multiopenright
Encoding: 8908 8908 19
Width: 818
Flags: W
LayerCount: 2
Fore
SplineSet
48 -1 m 128,-1,1
 48 4 48 4 49 7 c 0,2,3
 52 15 52 15 57 22 c 1,4,-1
 714 712 l 2,5,6
 723 721 723 721 736 721 c 1,7,8
 762 718 762 718 768 697 c 0,9,10
 769 694 769 694 769 689 c 128,-1,11
 769 684 769 684 768 681 c 0,12,13
 765 672 765 672 760 667 c 2,14,-1
 453 344 l 1,15,-1
 761 22 l 1,16,17
 769 11 769 11 769 -1 c 0,18,19
 769 -6 769 -6 768 -9 c 0,20,21
 761 -33 761 -33 736 -33 c 0,22,23
 732 -33 732 -33 728 -32 c 0,24,25
 720 -30 720 -30 714 -23 c 2,26,-1
 409 298 l 1,27,-1
 103 -23 l 1,28,29
 94 -30 94 -30 89 -32 c 0,30,31
 87 -33 87 -33 81 -33 c 0,32,33
 55 -30 55 -30 49 -9 c 0,34,0
 48 -6 48 -6 48 -1 c 128,-1,1
EndSplineSet
Validated: 1
EndChar

StartChar: revasymptequal
Encoding: 8909 8909 20
Width: 818
Flags: W
HStem: 16 64<49.9141 760.749> 245 81<159.875 314.344> 413 81<501.268 657.125>
VStem: 48 51<387.323 490.777> 718 51<250.315 352.594>
LayerCount: 2
Fore
SplineSet
48 47 m 2,0,1
 48 51 l 2,2,3
 48 54 48 54 51 60 c 0,4,5
 59 75 59 75 76 80 c 1,6,-1
 78 80 l 1,7,-1
 740 80 l 1,8,-1
 742 80 l 1,9,10
 769 71 769 71 769 47 c 0,11,12
 769 34 769 34 761 26 c 128,-1,13
 753 18 753 18 741 16 c 1,14,-1
 740 16 l 1,15,-1
 78 16 l 1,16,-1
 77 16 l 1,17,18
 64 19 64 19 58 25 c 0,19,20
 48 34 48 34 48 47 c 2,0,1
48 450 m 2,21,-1
 48 459 l 1,22,23
 53 484 53 484 64 491 c 0,24,25
 68 494 68 494 74 494 c 128,-1,26
 80 494 80 494 85 491 c 0,27,28
 96 484 96 484 99 459 c 1,29,-1
 99 458 l 2,30,31
 99 404 99 404 139 365 c 128,-1,32
 179 326 179 326 233 326 c 0,33,34
 269 326 269 326 305.5 343.5 c 128,-1,35
 342 361 342 361 372.5 385.5 c 128,-1,36
 403 410 403 410 434.5 434.5 c 128,-1,37
 466 459 466 459 505 476.5 c 128,-1,38
 544 494 544 494 584 494 c 0,39,40
 664 494 664 494 716.5 432.5 c 128,-1,41
 769 371 769 371 769 290 c 2,42,-1
 769 281 l 1,43,44
 764 256 764 256 753 248 c 0,45,46
 748 245 748 245 743 245 c 0,47,48
 736 245 736 245 730 250 c 0,49,50
 720 260 720 260 718 281 c 1,51,-1
 718 282 l 2,52,53
 718 336 718 336 678 374.5 c 128,-1,54
 638 413 638 413 584 413 c 0,55,56
 540 413 540 413 494 386.5 c 128,-1,57
 448 360 448 360 414 329 c 128,-1,58
 380 298 380 298 331 271.5 c 128,-1,59
 282 245 282 245 233 245 c 0,60,61
 153 245 153 245 100.5 307 c 128,-1,62
 48 369 48 369 48 450 c 2,21,-1
EndSplineSet
Validated: 1
EndChar

StartChar: forces
Encoding: 8873 8873 21
Width: 759
Flags: W
HStem: -10 21G<67.5 86.5 275.5 294.5> 324 64<320 708.886>
VStem: 48 64<-3.71777 719.125> 256 64<-3.71777 324 388 719.125>
LayerCount: 2
Fore
SplineSet
48 19 m 1,0,-1
 48 692 l 1,1,-1
 48 693 l 1,2,3
 51 706 51 706 60.5 713.5 c 128,-1,4
 70 721 70 721 81 721 c 0,5,6
 91 721 91 721 99 714 c 0,7,8
 110 704 110 704 112 693 c 1,9,-1
 112 692 l 1,10,-1
 112 19 l 1,11,-1
 112 18 l 1,12,13
 109 5 109 5 99 -4 c 0,14,15
 92 -10 92 -10 81 -10 c 0,16,17
 54 -10 54 -10 48 18 c 1,18,-1
 48 19 l 1,0,-1
256 19 m 1,19,-1
 256 692 l 1,20,-1
 256 693 l 1,21,22
 259 706 259 706 268.5 713.5 c 128,-1,23
 278 721 278 721 289 721 c 0,24,25
 299 721 299 721 307 714 c 0,26,27
 318 704 318 704 320 693 c 1,28,-1
 320 692 l 1,29,-1
 320 388 l 1,30,-1
 682 388 l 1,31,-1
 683 388 l 1,32,33
 710 382 710 382 710 356 c 128,-1,34
 710 330 710 330 683 324 c 1,35,-1
 682 324 l 1,36,-1
 320 324 l 1,37,-1
 320 19 l 1,38,-1
 320 18 l 1,39,40
 317 5 317 5 307 -4 c 0,41,42
 300 -10 300 -10 289 -10 c 0,43,44
 262 -10 262 -10 256 18 c 1,45,-1
 256 19 l 1,19,-1
EndSplineSet
Validated: 1
EndChar

StartChar: arrowtailright
Encoding: 8611 8611 22
Width: 1169
Flags: W
HStem: 223 65<205.906 995>
LayerCount: 2
Fore
SplineSet
169 237 m 1,0,-1
 169 274 l 1,1,2
 103 334 103 334 67 422 c 1,3,-1
 61 436 l 1,4,-1
 119 436 l 1,5,-1
 121 430 l 1,6,7
 157 341 157 341 233 288 c 1,8,-1
 995 288 l 1,9,10
 937 348 937 348 907 422 c 1,11,-1
 901 436 l 1,12,-1
 959 436 l 1,13,-1
 961 430 l 1,14,15
 1006 317 1006 317 1114 265 c 2,16,-1
 1133 256 l 1,17,-1
 1114 247 l 1,18,19
 1006 193 1006 193 961 81 c 1,20,-1
 959 75 l 1,21,-1
 901 75 l 1,22,-1
 907 89 l 1,23,24
 937 163 937 163 995 223 c 1,25,-1
 233 223 l 1,26,27
 157 170 157 170 121 81 c 1,28,-1
 119 75 l 1,29,-1
 61 75 l 1,30,-1
 67 89 l 1,31,32
 103 177 103 177 169 237 c 1,0,-1
EndSplineSet
Validated: 1
EndChar

StartChar: leqq
Encoding: 8806 8806 23
Width: 818
Flags: W
HStem: -207 64<83.2827 737.886> 1 64<83.2827 737.886> 742 61<720 737.497>
LayerCount: 2
Fore
SplineSet
78 -175 m 0,0,1
 78 -168 78 -168 83 -159 c 1,2,3
 92 -146 92 -146 107 -143 c 1,4,-1
 108 -143 l 1,5,-1
 711 -143 l 1,6,-1
 712 -143 l 1,7,8
 739 -149 739 -149 739 -175 c 128,-1,9
 739 -201 739 -201 712 -207 c 1,10,-1
 711 -207 l 1,11,-1
 108 -207 l 1,12,-1
 107 -207 l 1,13,14
 88 -202 88 -202 81 -188 c 0,15,16
 78 -180 78 -180 78 -175 c 0,0,1
78 33 m 0,17,18
 78 40 78 40 83 49 c 1,19,20
 92 62 92 62 107 65 c 1,21,-1
 108 65 l 1,22,-1
 711 65 l 1,23,-1
 712 65 l 1,24,25
 739 59 739 59 739 33 c 128,-1,26
 739 7 739 7 712 1 c 1,27,-1
 711 1 l 1,28,-1
 108 1 l 1,29,-1
 107 1 l 1,30,31
 88 6 88 6 81 20 c 0,32,33
 78 28 78 28 78 33 c 0,17,18
78 484 m 0,34,35
 78 505 78 505 98 514 c 2,36,-1
 695 801 l 2,37,38
 699 803 699 803 708 803 c 0,39,40
 714 803 714 803 721 799 c 0,41,42
 737 791 737 791 739 774 c 1,43,-1
 739 771 l 2,44,45
 739 750 739 750 720 742 c 1,46,-1
 184 484 l 1,47,-1
 723 225 l 1,48,-1
 725 224 l 2,49,50
 727 223 727 223 729.5 221 c 128,-1,51
 732 219 732 219 734 216 c 0,52,53
 739 208 739 208 739 198 c 0,54,55
 739 177 739 177 721 168 c 0,56,57
 715 165 715 165 708 165 c 0,58,59
 703 165 703 165 700 166 c 0,60,61
 697 166 697 166 694 169 c 1,62,-1
 95 456 l 2,63,64
 83 462 83 462 80 471 c 0,65,66
 78 475 78 475 78 484 c 0,34,35
EndSplineSet
Validated: 1
EndChar

StartChar: triangleright
Encoding: 8882 8882 24
Width: 818
Flags: W
VStem: 78 64<20 491>
LayerCount: 2
Fore
SplineSet
78 -35 m 1,0,-1
 78 546 l 1,1,-1
 78 547 l 1,2,3
 80 558 80 558 89.5 566 c 128,-1,4
 99 574 99 574 111 574 c 0,5,6
 114 574 114 574 122 572 c 1,7,-1
 123 572 l 1,8,-1
 720 285 l 1,9,10
 732 278 732 278 736 271 c 0,11,12
 740 263 740 263 740 256 c 0,13,14
 740 248 740 248 738 243 c 0,15,16
 733 232 733 232 723 228 c 2,17,-1
 123 -61 l 1,18,-1
 122 -61 l 1,19,20
 114 -63 114 -63 111 -63 c 0,21,22
 99 -63 99 -63 89.5 -55 c 128,-1,23
 80 -47 80 -47 78 -36 c 1,24,-1
 78 -35 l 1,0,-1
142 20 m 1,25,-1
 633 256 l 1,26,-1
 142 491 l 1,27,-1
 142 20 l 1,25,-1
EndSplineSet
Validated: 1
EndChar

StartChar: triangleinv
Encoding: 9661 9661 25
Width: 743
Flags: W
HStem: 538 64<160 583>
LayerCount: 2
Fore
SplineSet
80 557 m 2,0,1
 78 563 78 563 78 565 c 2,2,-1
 78 567 l 1,3,-1
 78 569 l 2,4,5
 78 594 78 594 105 602 c 1,6,-1
 107 602 l 1,7,-1
 637 602 l 1,8,-1
 639 602 l 1,9,10
 665 596 665 596 665 569 c 2,11,12
 665 565 l 1,13,14
 665 562 l 1,15,16
 664 561 664 561 664 560 c 0,17,18
 664 558 664 558 663 557 c 2,19,-1
 401 -12 l 1,20,21
 393 -25 393 -25 389 -27 c 0,22,23
 379 -33 379 -33 372 -33 c 0,24,25
 367 -33 367 -33 361 -31 c 0,26,27
 348 -25 348 -25 342 -12 c 2,28,-1
 80 557 l 2,0,1
372 76 m 1,29,-1
 583 538 l 1,30,-1
 160 538 l 1,31,-1
 372 76 l 1,29,-1
EndSplineSet
Validated: 1
EndChar

StartChar: measuredangle
Encoding: 8737 8737 26
Width: 759
Flags: W
HStem: -10 64<151 403 466.984 703.718>
VStem: 403 66<54 141.387>
LayerCount: 2
Fore
SplineSet
48 23 m 0,0,1
 48 29 48 29 51 35 c 0,2,3
 52.5 38 52.5 38 57 44 c 2,4,-1
 656 733 l 2,5,6
 664 741 664 741 674 743 c 1,7,8
 679 743 l 2,9,10
 685 743 685 743 690 741 c 0,11,12
 710 733 710 733 710 711 c 0,13,14
 710 702 710 702 706 694 c 1,15,16
 704 692 l 2,17,18
 704 691 704 691 703 690 c 2,19,20
 701 688 l 1,21,-1
 363 299 l 1,22,23
 402 251 402 251 434 181 c 128,-1,24
 466 111 466 111 469 54 c 1,25,-1
 682 54 l 1,26,-1
 683 54 l 1,27,28
 695 51 695 51 704 41 c 1,29,30
 710 32 710 32 710 23 c 0,31,32
 710 11 710 11 702 1.5 c 128,-1,33
 694 -8 694 -8 683 -10 c 1,34,-1
 682 -10 l 1,35,-1
 469 -10 l 1,36,37
 462 -33 462 -33 438 -33 c 0,38,39
 426 -33 426 -33 417 -24 c 0,40,41
 413 -20 413 -20 409 -10 c 1,42,-1
 78 -10 l 1,43,-1
 77 -10 l 1,44,45
 48 -4 48 -4 48 23 c 0,0,1
151 54 m 1,46,-1
 403 54 l 1,47,48
 389 162 389 162 321 249 c 1,49,-1
 151 54 l 1,46,-1
EndSplineSet
Validated: 1
EndChar

StartChar: superseteq
Encoding: 8839 8839 27
Width: 799
VWidth: 1000
Flags: W
HStem: -164 63<76.957 698.325> 39 63<77.0986 507.789> 599 63<76.957 507.559>
VStem: 659 63<249.86 451.037>
LayerCount: 2
Fore
SplineSet
121 599 m 2,0,1
 106 599 106 599 96 602 c 0,2,3
 76 610 76 610 76 629 c 2,4,5
 76 631 l 2,6,7
 76 652 76 652 96 659 c 0,8,9
 105 662 105 662 121 662 c 2,10,-1
 401 662 l 2,11,12
 530 662 530 662 626 572.5 c 128,-1,13
 722 483 722 483 722 350 c 0,14,15
 722 219 722 219 626.5 129 c 128,-1,16
 531 39 531 39 401 39 c 2,17,-1
 121 39 l 2,18,19
 106 39 106 39 96 42 c 0,20,21
 76 49 76 49 76 71 c 0,22,23
 76 92 76 92 96 99 c 0,24,25
 105 102 105 102 121 102 c 2,26,-1
 397 102 l 2,27,28
 508 102 508 102 583.5 174.5 c 128,-1,29
 659 247 659 247 659 351 c 0,30,31
 659 453 659 453 583.5 526 c 128,-1,32
 508 599 508 599 397 599 c 2,33,-1
 121 599 l 2,0,1
121 -164 m 2,34,35
 106 -164 106 -164 96 -161 c 0,36,37
 76 -153 76 -153 76 -134 c 2,38,-1
 76 -132 l 2,39,40
 76 -111 76 -111 96 -104 c 0,41,42
 105 -101 105 -101 121 -101 c 2,43,-1
 656 -101 l 2,44,45
 672 -101 672 -101 681 -104 c 0,46,47
 700 -111 700 -111 700 -133 c 1,48,49
 698 -154 698 -154 680 -161 c 0,50,51
 671 -164 671 -164 656 -164 c 2,52,-1
 121 -164 l 2,34,35
EndSplineSet
Validated: 1
EndChar

StartChar: therefore
Encoding: 8756 8756 28
Width: 701
Flags: W
HStem: -90 135<41.1115 134.373 565.111 659.373> 364 134<303.111 397.373>
VStem: 21 134<-69.8885 24.373> 283 135<384.111 477.373> 545 135<-69.8885 24.373>
LayerCount: 2
Fore
SplineSet
88 45 m 128,-1,1
 116 45 116 45 135.5 25 c 128,-1,2
 155 5 155 5 155 -23 c 128,-1,3
 155 -51 155 -51 135 -70.5 c 128,-1,4
 115 -90 115 -90 88 -90 c 0,5,6
 60 -90 60 -90 40.5 -70.5 c 128,-1,7
 21 -51 21 -51 21 -23 c 0,8,9
 21 4 21 4 40.5 24.5 c 128,-1,0
 60 45 60 45 88 45 c 128,-1,1
612 45 m 128,-1,11
 640 45 640 45 660 25 c 128,-1,12
 680 5 680 5 680 -23 c 128,-1,13
 680 -51 680 -51 659.5 -70.5 c 128,-1,14
 639 -90 639 -90 612 -90 c 0,15,16
 584 -90 584 -90 564.5 -70.5 c 128,-1,17
 545 -51 545 -51 545 -23 c 0,18,19
 545 4 545 4 564.5 24.5 c 128,-1,10
 584 45 584 45 612 45 c 128,-1,11
350 498 m 128,-1,21
 378 498 378 498 398 478.5 c 128,-1,22
 418 459 418 459 418 431 c 128,-1,23
 418 403 418 403 397.5 383.5 c 128,-1,24
 377 364 377 364 350 364 c 0,25,26
 322 364 322 364 302.5 383.5 c 128,-1,27
 283 403 283 403 283 431 c 0,28,29
 283 458 283 458 302.5 478 c 128,-1,20
 322 498 322 498 350 498 c 128,-1,21
EndSplineSet
Validated: 1
EndChar

StartChar: rightanglese
Encoding: 9496 9496 29
Width: 525
Flags: W
HStem: -33 65<51.2217 413>
VStem: 413 64<32 389.718>
LayerCount: 2
Fore
SplineSet
48 -1 m 0,0,1
 48 26 48 26 77 32 c 1,2,-1
 78 32 l 1,3,-1
 413 32 l 1,4,-1
 413 367 l 1,5,-1
 413 368 l 1,6,7
 416 381 416 381 426 390 c 0,8,9
 433 396 433 396 444 396 c 0,10,11
 471 396 471 396 477 368 c 1,12,-1
 477 367 l 1,13,-1
 477 -3 l 2,14,15
 477 -13 477 -13 470 -21 c 0,16,17
 461 -30 461 -30 448 -33 c 1,18,-1
 447 -33 l 1,19,-1
 78 -33 l 1,20,-1
 77 -33 l 1,21,22
 58 -28 58 -28 51 -14 c 0,23,24
 48 -6 48 -6 48 -1 c 0,0,1
EndSplineSet
Validated: 1
EndChar

StartChar: squareplus
Encoding: 8862 8862 30
Width: 818
Flags: W
HStem: -10 64<112 377 441 705> 330 64<112 377 441 705> 669 64<112 377 441 705>
VStem: 48 64<54 330 394 669> 377 64<54 330 394 669> 705 64<54 330 394 669>
LayerCount: 2
Fore
SplineSet
48 20 m 2,0,-1
 48 704 l 1,1,-1
 48 705 l 1,2,3
 53 719 53 719 61 726 c 0,4,5
 70 733 70 733 79 733 c 2,6,-1
 740 733 l 1,7,-1
 741 733 l 1,8,9
 756 728 756 728 762 721 c 0,10,11
 769 714 769 714 769 703 c 2,12,-1
 769 19 l 1,13,-1
 769 18 l 1,14,15
 766 5 766 5 757 -3 c 0,16,17
 748 -10 748 -10 739 -10 c 2,18,-1
 78 -10 l 1,19,-1
 77 -10 l 1,20,21
 64 -6 64 -6 59 -2 c 0,22,23
 48 7 48 7 48 20 c 2,0,-1
112 54 m 1,24,-1
 377 54 l 1,25,-1
 377 330 l 1,26,-1
 112 330 l 1,27,-1
 112 54 l 1,24,-1
441 54 m 1,28,-1
 705 54 l 1,29,-1
 705 330 l 1,30,-1
 441 330 l 1,31,-1
 441 54 l 1,28,-1
112 394 m 1,32,-1
 377 394 l 1,33,-1
 377 669 l 1,34,-1
 112 669 l 1,35,-1
 112 394 l 1,32,-1
441 394 m 1,36,-1
 705 394 l 1,37,-1
 705 669 l 1,38,-1
 441 669 l 1,39,-1
 441 394 l 1,36,-1
EndSplineSet
Validated: 1
EndChar

StartChar: satisfies
Encoding: 8872 8872 31
Width: 643
Flags: W
HStem: -10 21G<67.5 86.5> 220 64<112 592.125> 428 64<112 592.125>
VStem: 48 64<-3.71777 220 284 428 492 719.125>
LayerCount: 2
Fore
SplineSet
48 19 m 1,0,-1
 48 692 l 1,1,-1
 48 693 l 1,2,3
 51 706 51 706 60.5 713.5 c 128,-1,4
 70 721 70 721 81 721 c 0,5,6
 91 721 91 721 99 714 c 0,7,8
 110 704 110 704 112 693 c 1,9,-1
 112 692 l 1,10,-1
 112 492 l 1,11,-1
 565 492 l 1,12,-1
 566 492 l 1,13,14
 580 487 580 487 587 479 c 0,15,16
 594 470 594 470 594 461 c 0,17,18
 594 450 594 450 586.5 440.5 c 128,-1,19
 579 431 579 431 566 428 c 1,20,-1
 565 428 l 1,21,-1
 112 428 l 1,22,-1
 112 284 l 1,23,-1
 565 284 l 1,24,-1
 566 284 l 1,25,26
 580 279 580 279 587 271 c 0,27,28
 594 262 594 262 594 253 c 0,29,30
 594 242 594 242 586.5 232.5 c 128,-1,31
 579 223 579 223 566 220 c 1,32,-1
 565 220 l 1,33,-1
 112 220 l 1,34,-1
 112 19 l 1,35,-1
 112 18 l 1,36,37
 109 5 109 5 99 -4 c 0,38,39
 92 -10 92 -10 81 -10 c 0,40,41
 54 -10 54 -10 48 18 c 1,42,-1
 48 19 l 1,0,-1
EndSplineSet
Validated: 1
EndChar

StartChar: arrowparrleftright
Encoding: 8646 8646 32
Width: 1051
Flags: W
HStem: -11 21G<785 845> 137 64<49.4062 878> 330 21G<207 267> 479 65<173 989.719>
LayerCount: 2
Fore
SplineSet
48 170 m 1,0,-1
 48 175 l 1,1,2
 50 182 50 182 54 188 c 0,3,4
 63 201 63 201 81 201 c 2,5,-1
 878 201 l 1,6,7
 822 258 822 258 791 336 c 1,8,-1
 785 350 l 1,9,-1
 843 350 l 1,10,-1
 845 344 l 1,11,12
 891 231 891 231 997 179 c 1,13,-1
 1016 170 l 1,14,-1
 997 161 l 1,15,16
 890 109 890 109 845 -5 c 1,17,-1
 843 -11 l 1,18,-1
 785 -11 l 1,19,-1
 791 3 l 1,20,21
 821 79 821 79 878 137 c 1,22,-1
 81 137 l 2,23,24
 68 137 68 137 58 146.5 c 128,-1,25
 48 156 48 156 48 168 c 2,26,-1
 48 170 l 1,0,-1
54 502 m 2,27,-1
 35 511 l 1,28,-1
 54 520 l 2,29,30
 162 572 162 572 207 686 c 1,31,-1
 209 692 l 1,32,-1
 267 692 l 1,33,-1
 261 678 l 1,34,35
 230 601 230 601 173 544 c 1,36,-1
 972 544 l 2,37,38
 981 544 981 544 990 538 c 0,39,40
 1003 528 1003 528 1003 511 c 0,41,42
 1003 498 1003 498 994 488.5 c 128,-1,43
 985 479 985 479 972 479 c 2,44,-1
 173 479 l 1,45,46
 232 419 232 419 261 344 c 1,47,-1
 267 330 l 1,48,-1
 209 330 l 1,49,-1
 207 336 l 1,50,51
 162 450 162 450 54 502 c 2,27,-1
EndSplineSet
Validated: 1
EndChar

StartChar: because
Encoding: 8757 8757 33
Width: 701
Flags: W
HStem: -90 135<303.111 397.373> 364 134<41.1115 134.373 565.111 659.373>
VStem: 21 134<384.111 477.373> 283 135<-69.8885 24.373> 545 135<384.111 477.373>
LayerCount: 2
Fore
SplineSet
350 45 m 128,-1,1
 378 45 378 45 398 25 c 128,-1,2
 418 5 418 5 418 -23 c 128,-1,3
 418 -51 418 -51 397.5 -70.5 c 128,-1,4
 377 -90 377 -90 350 -90 c 0,5,6
 322 -90 322 -90 302.5 -70.5 c 128,-1,7
 283 -51 283 -51 283 -23 c 0,8,9
 283 4 283 4 302.5 24.5 c 128,-1,0
 322 45 322 45 350 45 c 128,-1,1
88 498 m 128,-1,11
 116 498 116 498 135.5 478.5 c 128,-1,12
 155 459 155 459 155 431 c 128,-1,13
 155 403 155 403 135 383.5 c 128,-1,14
 115 364 115 364 88 364 c 0,15,16
 60 364 60 364 40.5 383.5 c 128,-1,17
 21 403 21 403 21 431 c 0,18,19
 21 458 21 458 40.5 478 c 128,-1,10
 60 498 60 498 88 498 c 128,-1,11
612 498 m 128,-1,21
 640 498 640 498 660 478.5 c 128,-1,22
 680 459 680 459 680 431 c 128,-1,23
 680 403 680 403 659.5 383.5 c 128,-1,24
 639 364 639 364 612 364 c 0,25,26
 584 364 584 364 564.5 383.5 c 128,-1,27
 545 403 545 403 545 431 c 0,28,29
 545 458 545 458 564.5 478 c 128,-1,20
 584 498 584 498 612 498 c 128,-1,21
EndSplineSet
Validated: 1
EndChar

StartChar: lessorgreater
Encoding: 8822 8822 34
Width: 818
Flags: W
HStem: -286 61<36.2227 53> 227 61<35.6908 53>
LayerCount: 2
Fore
SplineSet
53 -225 m 2,0,-1
 659 1 l 1,1,-1
 53 227 l 1,2,3
 43 232 43 232 39 238 c 0,4,5
 34 246 34 246 34 256 c 0,6,7
 34 268 34 268 43.5 278 c 128,-1,8
 53 288 53 288 66 288 c 0,9,10
 72 288 72 288 73.4297 286.338 c 2,11,-1
 74 286 l 1,12,-1
 76 286 l 1,13,-1
 764 31 l 1,14,15
 783 22 783 22 783 1 c 0,16,17
 783 -19 783 -19 764 -29 c 1,18,-1
 77 -284 l 2,19,20
 69 -286 69 -286 68 -286 c 2,21,-1
 66 -286 l 1,22,23
 43 -283 43 -283 36 -266 c 0,24,25
 34 -260 34 -260 34 -255 c 0,26,27
 34 -244 34 -244 41 -234 c 0,28,29
 45.5 -228 45.5 -228 53 -225 c 2,0,-1
34 441 m 0,30,31
 34 462 34 462 53 471 c 1,32,-1
 740 726 l 1,33,-1
 748 728 l 1,34,35
 750 728 l 1,36,37
 752 728 l 2,38,39
 760 728 760 728 766 725 c 0,40,41
 783 716 783 716 783 696 c 0,42,43
 783 686 783 686 778 678 c 128,-1,44
 773 670 773 670 764 667 c 2,45,-1
 158 441 l 1,46,-1
 764 216 l 1,47,48
 783 207 783 207 783 186 c 0,49,50
 783 173 783 173 774 163.5 c 128,-1,51
 765 154 765 154 752 154 c 0,52,53
 746 154 746 154 739 157 c 2,54,-1
 53 412 l 1,55,56
 43 417 43 417 39 423 c 0,57,58
 34 431 34 431 34 441 c 0,30,31
EndSplineSet
Validated: 1
EndChar

StartChar: trianglerightequal
Encoding: 8885 8885 35
Width: 818
Flags: W
HStem: -168 64<83.2827 738.597>
VStem: 78 64<124 594>
LayerCount: 2
Fore
SplineSet
78 -136 m 0,0,1
 78 -129 78 -129 83 -120 c 1,2,3
 92 -107 92 -107 107 -104 c 1,4,-1
 108 -104 l 1,5,-1
 711 -104 l 1,6,-1
 712 -104 l 1,7,8
 723 -106 723 -106 731.5 -114.5 c 128,-1,9
 740 -123 740 -123 740 -136 c 0,10,11
 740 -162 740 -162 712 -168 c 1,12,-1
 711 -168 l 1,13,-1
 108 -168 l 1,14,-1
 107 -168 l 1,15,16
 88 -163 88 -163 81 -149 c 0,17,18
 78 -142 78 -142 78 -136 c 0,0,1
78 70 m 1,19,-1
 78 650 l 1,20,-1
 78 651 l 1,21,22
 81 664 81 664 90.5 671.5 c 128,-1,23
 100 679 100 679 111 679 c 0,24,25
 114 679 114 679 122 677 c 1,26,-1
 123 677 l 1,27,-1
 720 390 l 2,28,29
 740 381 740 381 740 360 c 0,30,31
 740 352 740 352 738 347 c 0,32,33
 733 336 733 336 723 332 c 2,34,-1
 123 43 l 1,35,-1
 122 43 l 1,36,37
 114 41 114 41 111 41 c 0,38,39
 100 41 100 41 90.5 48.5 c 128,-1,40
 81 56 81 56 78 69 c 1,41,-1
 78 70 l 1,19,-1
142 124 m 1,42,-1
 633 359 l 1,43,-1
 142 594 l 1,44,-1
 142 124 l 1,42,-1
EndSplineSet
Validated: 1
EndChar

StartChar: lessequalgreater
Encoding: 8922 8922 36
Width: 796
Flags: W
HStem: -225 61<111 127.388> 222 64<79.4238 716.576>
LayerCount: 2
Fore
SplineSet
99 -164 m 2,0,-1
 598 -38 l 1,1,-1
 99 88 l 2,2,3
 95 89 95 89 94 90 c 0,4,5
 85 95 85 95 81 102 c 1,6,7
 78 109.5 78 109.5 78 117 c 0,8,9
 78 122 78 122 79 125 c 0,10,11
 86 149 86 149 111 149 c 0,12,13
 114 149 114 149 122 147 c 2,14,-1
 697 -9 l 1,15,16
 710 -15 710 -15 715 -25 c 0,17,18
 718 -31 718 -31 718 -38 c 0,19,20
 718 -61 718 -61 697 -68 c 1,21,-1
 121 -223 l 2,22,23
 120 -223 120 -223 118 -224 c 128,-1,24
 116 -225 116 -225 113 -225 c 2,25,-1
 111 -225 l 1,26,27
 85 -222 85 -222 79 -201 c 0,28,29
 78 -198 78 -198 78 -193 c 0,30,31
 78 -183 78 -183 81 -178 c 0,32,33
 85 -171 85 -171 94 -166 c 0,34,35
 95 -165 95 -165 96.4536 -164.907 c 0,36,37
 98 -164 98 -164 99 -164 c 2,0,-1
78 255 m 0,38,39
 78 266 78 266 86 274 c 0,40,41
 95 284 95 284 107 286 c 1,42,-1
 108 286 l 1,43,-1
 688 286 l 1,44,-1
 689 286 l 1,45,46
 702 283 702 283 710 274 c 0,47,48
 718 266 718 266 718 255 c 0,49,50
 718 228 718 228 689 222 c 1,51,-1
 688 222 l 1,52,-1
 108 222 l 1,53,-1
 107 222 l 1,54,55
 78 228 78 228 78 255 c 0,38,39
78 547 m 0,56,57
 78 558 78 558 85 568 c 0,58,59
 90 575 90 575 99 577 c 2,60,-1
 675 732 l 2,61,62
 676 732 676 732 678 733 c 128,-1,63
 680 734 680 734 683 734 c 2,64,-1
 685 734 l 1,65,66
 711 731 711 731 717 710 c 0,67,68
 718 707 718 707 718 702 c 0,69,70
 718 694 718 694 715 689 c 0,71,72
 709 677 709 677 697 673 c 2,73,-1
 198 547 l 1,74,-1
 697 422 l 1,75,76
 712 413 712 413 715 406 c 0,77,78
 718 400 718 400 718 393 c 0,79,80
 718 381 718 381 708 370.5 c 128,-1,81
 698 360 698 360 685 360 c 0,82,83
 681 360 681 360 678 361 c 0,84,85
 675 361 675 361 674 362 c 128,-1,86
 673 363 673 363 672 363 c 2,87,-1
 99 518 l 2,88,89
 95 519 95 519 94 520 c 0,90,91
 85 525 85 525 81 532 c 1,92,93
 78 539.5 78 539.5 78 547 c 0,56,57
EndSplineSet
Validated: 1
EndChar

StartChar: geomequivalent
Encoding: 8782 8782 37
Width: 818
Flags: W
HStem: -12 64<347.365 470.187> 120 64<49.7627 254.892 562.128 762.78> 328 64<49.4062 254.892 562.128 760.749> 459 64<347.365 470.372>
LayerCount: 2
Fore
SplineSet
48 152 m 0,0,1
 48 163 48 163 56 172 c 0,2,3
 65 181 65 181 76 184 c 1,4,-1
 78 184 l 1,5,-1
 280 184 l 1,6,7
 295 182 295 182 301 173 c 0,8,9
 307 165 307 165 309 156 c 1,10,-1
 309 155 l 1,11,-1
 309 154 l 2,12,13
 309 113 309 113 338.5 82.5 c 128,-1,14
 368 52 368 52 409 52 c 128,-1,15
 450 52 450 52 478.5 82 c 128,-1,16
 507 112 507 112 508 154 c 0,17,18
 508 166 508 166 519 175 c 0,19,20
 526 180 526 180 535 183 c 1,21,-1
 536 184 l 1,22,-1
 740 184 l 1,23,-1
 742 184 l 1,24,25
 756 179 756 179 763 170 c 0,26,27
 769 161 769 161 769 152 c 1,28,29
 768 147 768 147 768 146 c 0,30,31
 768 143 768 143 767 141 c 0,32,33
 761 123 761 123 741 120 c 1,34,-1
 740 120 l 1,35,-1
 568 120 l 1,36,37
 557 63 557 63 512 25.5 c 128,-1,38
 467 -12 467 -12 409 -12 c 128,-1,39
 351 -12 351 -12 305.5 25.5 c 128,-1,40
 260 63 260 63 249 120 c 1,41,-1
 78 120 l 1,42,-1
 77 120 l 1,43,44
 61 124 61 124 53 136 c 0,45,46
 48 144 48 144 48 152 c 0,0,1
48 359 m 2,47,-1
 48 367 l 1,48,49
 50 371 50 371 51 372 c 0,50,51
 58 386 58 386 76 392 c 1,52,-1
 78 392 l 1,53,-1
 249 392 l 1,54,55
 260 448 260 448 305.5 485.5 c 128,-1,56
 351 523 351 523 409 523 c 128,-1,57
 467 523 467 523 512 486 c 128,-1,58
 557 449 557 449 568 392 c 1,59,-1
 740 392 l 1,60,-1
 742 392 l 1,61,62
 769 383 769 383 769 359 c 0,63,64
 769 346 769 346 761 338 c 128,-1,65
 753 330 753 330 741 328 c 1,66,-1
 740 328 l 1,67,-1
 538 328 l 2,68,69
 525 328 525 328 516 338 c 0,70,71
 509 346 509 346 508 355 c 1,72,-1
 508 356 l 1,73,-1
 508 357 l 2,74,75
 508 399 508 399 479 429 c 128,-1,76
 450 459 450 459 409 459 c 128,-1,77
 368 459 368 459 338.5 428.5 c 128,-1,78
 309 398 309 398 309 357 c 0,79,80
 309 344 309 344 297 335 c 0,81,82
 290 330 290 330 282 328 c 1,83,-1
 281 328 l 1,84,-1
 78 328 l 1,85,-1
 77 328 l 1,86,87
 64 331 64 331 58 337 c 0,88,89
 48 346 48 346 48 359 c 2,47,-1
EndSplineSet
Validated: 1
EndChar

StartChar: complement
Encoding: 8705 8705 38
Width: 525
Flags: W
HStem: -33 109<172.775 351.791> 547 21G<397 437> 769 108<175.69 352.225>
VStem: 48 108<94.403 748.858> 369 108<94.7578 286.688 558.312 750.553>
LayerCount: 2
Fore
SplineSet
48 721 m 2,0,1
 48 773 48 773 83.5 810 c 128,-1,2
 119 847 119 847 165.5 862 c 128,-1,3
 212 877 212 877 260 877 c 2,4,-1
 265 877 l 2,5,6
 313 877 313 877 359.5 862 c 128,-1,7
 406 847 406 847 441.5 810 c 128,-1,8
 477 773 477 773 477 721 c 2,9,-1
 477 598 l 1,10,11
 475 578 475 578 461.5 564 c 128,-1,12
 448 550 448 550 426 547 c 1,13,-1
 419 547 l 1,14,15
 375 553 375 553 369 598 c 1,16,-1
 369 716 l 2,17,18
 369 744 369 744 334.5 756.5 c 128,-1,19
 300 769 300 769 263 769 c 0,20,21
 193 769 193 769 163 736 c 0,22,23
 159 732 159 732 158 729 c 0,24,25
 158 728 158 728 157 725.5 c 128,-1,26
 156 723 156 723 156 722 c 2,27,-1
 156 129 l 2,28,29
 156 101 156 101 191 88.5 c 128,-1,30
 226 76 226 76 263 76 c 0,31,32
 334 76 334 76 363 108 c 0,33,34
 365 110 365 110 367 116 c 0,35,36
 368 117 368 117 368 119.5 c 128,-1,37
 368 122 368 122 369 123 c 1,38,-1
 369 247 l 1,39,40
 375 292 375 292 419 298 c 1,41,-1
 426 298 l 1,42,43
 446 296 446 296 460 282.5 c 128,-1,44
 474 269 474 269 477 247 c 1,45,-1
 477 124 l 2,46,47
 477 72 477 72 441.5 34.5 c 128,-1,48
 406 -3 406 -3 359.5 -18 c 128,-1,49
 313 -33 313 -33 265 -33 c 2,50,-1
 260 -33 l 2,51,52
 212 -33 212 -33 165.5 -18 c 128,-1,53
 119 -3 119 -3 83.5 34.5 c 128,-1,54
 48 72 48 72 48 124 c 2,55,-1
 48 721 l 2,0,1
EndSplineSet
Validated: 1
EndChar

StartChar: square
Encoding: 9633 9633 39
Width: 818
Flags: W
HStem: -10 64<112 705> 669 64<112 705>
VStem: 48 64<54 669> 705 64<54 669>
LayerCount: 2
Fore
SplineSet
48 703 m 2,0,1
 48 713 48 713 55 721 c 0,2,3
 64 730 64 730 77 733 c 1,4,-1
 78 733 l 1,5,-1
 739 733 l 2,6,7
 749 733 749 733 757 726 c 0,8,9
 767 717 767 717 769 705 c 1,10,-1
 769 704 l 1,11,-1
 769 20 l 2,12,13
 769 8 769 8 760 0 c 0,14,15
 753 -7 753 -7 741 -10 c 1,16,-1
 740 -10 l 1,17,-1
 79 -10 l 2,18,19
 69 -10 69 -10 61 -3 c 0,20,21
 50 7 50 7 48 18 c 1,22,-1
 48 19 l 1,23,-1
 48 703 l 2,0,1
112 54 m 1,24,-1
 705 54 l 1,25,-1
 705 669 l 1,26,-1
 112 669 l 1,27,-1
 112 54 l 1,24,-1
EndSplineSet
Validated: 1
EndChar

StartChar: dblarrowheadleft
Encoding: 8606 8606 40
Width: 1051
Flags: W
HStem: 223 65<173 314.164 367 993.718>
LayerCount: 2
Fore
SplineSet
54 247 m 1,0,-1
 35 256 l 1,1,-1
 54 265 l 2,2,3
 162 317 162 317 207 430 c 1,4,-1
 209 436 l 1,5,-1
 267 436 l 1,6,-1
 261 422 l 1,7,8
 231 348 231 348 173 288 c 1,9,-1
 287 288 l 1,10,11
 363 340 363 340 401 430 c 1,12,-1
 403 436 l 1,13,-1
 460 436 l 1,14,-1
 454 422 l 1,15,16
 424 346 424 346 367 288 c 1,17,-1
 972 288 l 2,18,19
 985 288 985 288 994 278.5 c 128,-1,20
 1003 269 1003 269 1003 256 c 0,21,22
 1003 238 1003 238 990 229 c 0,23,24
 984 225 984 225 977 223 c 1,25,-1
 972 223 l 1,26,-1
 367 223 l 1,27,28
 424 165 424 165 454 89 c 1,29,-1
 460 75 l 1,30,-1
 403 75 l 1,31,-1
 401 81 l 1,32,33
 363 171 363 171 287 223 c 1,34,-1
 173 223 l 1,35,36
 231 163 231 163 261 89 c 1,37,-1
 267 75 l 1,38,-1
 209 75 l 1,39,-1
 207 81 l 1,40,41
 162 193 162 193 54 247 c 1,0,-1
EndSplineSet
Validated: 1
EndChar

StartChar: northwestarrow
Encoding: 8598 8598 41
Width: 1027
VWidth: 1000
Flags: W
HStem: 630 50<166.051 292.999>
VStem: 71 50<457.492 584.949>
LayerCount: 2
Fore
SplineSet
120 586 m 1,0,1
 120 583 120 583 120.5 576 c 128,-1,2
 121 569 121 569 121 565 c 0,3,4
 121 527 121 527 110 479 c 128,-1,5
 99 431 99 431 81 421 c 0,6,7
 76.5 418 76.5 418 72 418 c 0,8,9
 61 418 61 418 53 426.5 c 128,-1,10
 45 435 45 435 45 445 c 2,11,-1
 45 448 l 1,12,13
 46 451 46 451 53 469 c 0,14,15
 71 512 71 512 71 566 c 0,16,17
 71 617 71 617 53 663 c 0,18,19
 50 669 50 669 48 676 c 0,20,21
 48 677 48 677 47.5 679 c 2,22,-1
 47 681 l 1,23,24
 47 691 47 691 53.5 697.5 c 128,-1,25
 60 704 60 704 70 704 c 1,26,27
 74 703 74 703 75 703 c 128,-1,28
 76 703 76 703 80.5 701 c 128,-1,29
 85 699 85 699 88 698 c 0,30,31
 134 680 134 680 185 680 c 2,32,-1
 188 680 l 2,33,34
 240 680 240 680 288 700 c 0,35,36
 301 706 301 706 304 706 c 2,37,-1
 305 706 l 1,38,-1
 306 706 l 2,39,40
 317 706 317 706 325 697.5 c 128,-1,41
 333 689 333 689 333 679 c 0,42,43
 333 674 333 674 330 670 c 0,44,45
 320 654 320 654 273 642 c 128,-1,46
 226 630 226 630 186 630 c 0,47,48
 182 630 182 630 175 630.5 c 128,-1,49
 168 631 168 631 165 631 c 1,50,-1
 964 -169 l 1,51,-1
 973 -178 l 1,52,53
 980 -187 980 -187 980 -197 c 0,54,55
 980 -205 980 -205 976 -213 c 0,56,57
 971.5 -220.5 971.5 -220.5 964 -225 c 0,58,59
 956 -229 956 -229 948 -229 c 0,60,61
 938 -229 938 -229 929 -222 c 1,62,-1
 920 -213 l 1,63,-1
 120 586 l 1,0,1
EndSplineSet
Validated: 1
EndChar

StartChar: defines
Encoding: 8796 8796 42
Width: 818
Flags: W
HStem: 120 64<49.7627 763.78> 328 64<49.4062 761.749> 494 64<260 558>
LayerCount: 2
Fore
SplineSet
48 152 m 0,0,1
 48 163 48 163 56 172 c 0,2,3
 65 181 65 181 76 184 c 1,4,-1
 78 184 l 1,5,-1
 741 184 l 1,6,-1
 743 184 l 1,7,8
 757 179 757 179 764 170 c 0,9,10
 770 161 770 161 770 152 c 1,11,12
 769 147 769 147 769 146 c 0,13,14
 769 143 769 143 768 141 c 0,15,16
 762 123 762 123 742 120 c 1,17,-1
 741 120 l 1,18,-1
 78 120 l 1,19,-1
 77 120 l 1,20,21
 61 124 61 124 53 136 c 0,22,23
 48 144 48 144 48 152 c 0,0,1
48 359 m 2,24,25
 48 367 l 1,26,27
 50 371 50 371 51 372 c 0,28,29
 58 386 58 386 76 392 c 1,30,-1
 78 392 l 1,31,-1
 741 392 l 1,32,-1
 743 392 l 1,33,34
 770 383 770 383 770 359 c 0,35,36
 770 346 770 346 762 338 c 128,-1,37
 754 330 754 330 742 328 c 1,38,-1
 741 328 l 1,39,-1
 78 328 l 1,40,-1
 77 328 l 1,41,42
 64 331 64 331 58 337 c 0,43,44
 48 346 48 346 48 359 c 2,24,25
172 525 m 0,45,46
 172 535 172 535 175 540 c 1,47,-1
 177 542 l 1,48,-1
 382 897 l 1,49,50
 392 912 392 912 410 912 c 0,51,52
 426 912 426 912 436 897 c 1,53,-1
 641 542 l 2,54,55
 646 534 646 534 646 525 c 0,56,57
 646 515 646 515 638 506 c 0,58,59
 629 496 629 496 617 494 c 1,60,-1
 616 494 l 1,61,-1
 202 494 l 1,62,-1
 201 494 l 1,63,64
 188 497 188 497 180 506 c 0,65,66
 172 514 172 514 172 525 c 0,45,46
260 558 m 1,67,-1
 558 558 l 1,68,-1
 410 817 l 1,69,-1
 260 558 l 1,67,-1
EndSplineSet
Validated: 1
EndChar

StartChar: subsetdbl
Encoding: 8912 8912 43
Width: 818
Flags: W
HStem: -63 64<300.454 737.242> 101 64<337.625 737.886> 346 64<337.625 402 403 732.718> 510 64<300.454 732.718>
VStem: 78 64<154.168 357.724> 242 64<196.62 313.964>
LayerCount: 2
Fore
SplineSet
407 574 m 2,0,-1
 711 574 l 1,1,-1
 712 574 l 1,2,3
 724 571 724 571 733 561 c 1,4,5
 739 552 739 552 739 543 c 0,6,7
 739 531 739 531 731 521.5 c 128,-1,8
 723 512 723 512 712 510 c 1,9,-1
 711 510 l 1,10,-1
 411 510 l 2,11,12
 302 510 302 510 222 437 c 128,-1,13
 142 364 142 364 142 256 c 128,-1,14
 142 148 142 148 222 74.5 c 128,-1,15
 302 1 302 1 411 1 c 2,16,-1
 711 1 l 1,17,-1
 712 1 l 1,18,19
 723 -1 723 -1 731 -10.5 c 128,-1,20
 739 -20 739 -20 739 -32 c 0,21,22
 739 -41 739 -41 733 -50 c 0,23,24
 725 -61 725 -61 712 -63 c 1,25,-1
 711 -63 l 1,26,-1
 407 -63 l 2,27,28
 273 -63 273 -63 175.5 30 c 128,-1,29
 78 123 78 123 78 256 c 128,-1,30
 78 389 78 389 175.5 481.5 c 128,-1,31
 273 574 273 574 407 574 c 2,0,-1
242 256 m 128,-1,33
 242 320 242 320 287.5 365.5 c 128,-1,34
 333 411 333 411 397 411 c 2,35,-1
 404 411 l 2,36,37
 409 411 409 411 412 410 c 1,38,-1
 413 410 l 1,39,-1
 711 410 l 1,40,-1
 712 410 l 1,41,42
 724 407 724 407 733 397 c 1,43,44
 739 388 739 388 739 379 c 0,45,46
 739 367 739 367 731 357.5 c 128,-1,47
 723 348 723 348 712 346 c 1,48,-1
 711 346 l 1,49,-1
 403 346 l 1,50,-1
 402 347 l 1,51,-1
 397 347 l 2,52,53
 360 347 360 347 333 319.5 c 128,-1,54
 306 292 306 292 306 256 c 0,55,56
 306 219 306 219 333 191.5 c 128,-1,57
 360 164 360 164 397 164 c 2,58,-1
 402 164 l 1,59,60
 403 165 403 165 407 165 c 2,61,-1
 711 165 l 1,62,-1
 712 165 l 1,63,64
 739 159 739 159 739 133 c 128,-1,65
 739 107 739 107 712 101 c 1,66,-1
 711 101 l 1,67,-1
 411 101 l 1,68,-1
 408.5 100.5 l 2,69,70
 406 100 406 100 404 100 c 2,71,-1
 397 100 l 2,72,73
 333 100 333 100 287.5 146 c 128,-1,32
 242 192 242 192 242 256 c 128,-1,33
EndSplineSet
Validated: 1
EndChar

StartChar: ggreater
Encoding: 8811 8811 44
Width: 1027
VWidth: 1000
Flags: W
LayerCount: 2
Fore
SplineSet
642 218 m 2,0,-1
 88 -89 l 1,1,-1
 85 -89 l 2,2,3
 73 -89 73 -89 68 -87 c 0,4,5
 47 -81 47 -81 47 -58 c 0,6,7
 47 -42 47 -42 59 -34 c 0,8,9
 62 -31 62 -31 72 -26 c 2,10,-1
 570 251 l 1,11,-1
 70 528 l 1,12,13
 65.5 530.5 l 2,14,15
 61 533 61 533 59 535 c 0,16,17
 47 545 47 545 47 559 c 0,18,19
 47 565 47 565 51 573 c 0,20,21
 59 586 59 586 71 589 c 0,22,23
 72 590 72 590 73 590 c 2,24,-1
 76 590 l 1,25,-1
 78 590 l 2,26,27
 89 590 89 590 101 583 c 2,28,-1
 645 282 l 2,29,30
 655 276 655 276 660 270 c 0,31,32
 667 262 667 262 667 251 c 0,33,34
 667 237 667 237 655 227 c 1,35,36
 645 220 645 220 642 218 c 2,0,-1
955 218 m 2,37,-1
 401 -89 l 1,38,-1
 398 -89 l 2,39,40
 386 -89 386 -89 381 -87 c 0,41,42
 360 -81 360 -81 360 -58 c 0,43,44
 360 -42 360 -42 372 -34 c 0,45,46
 375 -31 375 -31 385 -26 c 2,47,-1
 883 251 l 1,48,-1
 383 528 l 1,49,50
 378.5 530.5 l 2,51,52
 374 533 374 533 372 535 c 0,53,54
 360 545 360 545 360 559 c 0,55,56
 360 565 360 565 364 573 c 0,57,58
 372 586 372 586 384 589 c 0,59,60
 385 590 385 590 386 590 c 2,61,-1
 389 590 l 1,62,-1
 391 590 l 2,63,64
 402 590 402 590 414 583 c 2,65,-1
 958 282 l 2,66,67
 968 276 968 276 973 270 c 0,68,69
 980 262 980 262 980 251 c 0,70,71
 980 237 980 237 968 227 c 1,72,73
 958 220 958 220 955 218 c 2,37,-1
EndSplineSet
Validated: 1
EndChar

StartChar: circlering
Encoding: 8858 8858 45
Width: 818
Flags: W
HStem: -106 53<294.501 523.399> 101 64<349.62 467.255> 347 64<349.62 467.255> 564 53<294.501 523.091>
VStem: 48 53<141.401 369.908> 253 64<198.183 313.817> 500 64<197.745 314.255> 716 53<139.381 369.908>
LayerCount: 2
Fore
SplineSet
48 256 m 0,0,1
 48 405 48 405 153.5 511 c 128,-1,2
 259 617 259 617 409 617 c 128,-1,3
 559 617 559 617 664 511 c 128,-1,4
 769 405 769 405 769 256 c 0,5,6
 769 106 769 106 664 0 c 128,-1,7
 559 -106 559 -106 409 -106 c 128,-1,8
 259 -106 259 -106 153.5 0 c 128,-1,9
 48 106 48 106 48 256 c 0,0,1
409 -53 m 128,-1,11
 536 -53 536 -53 626 37.5 c 128,-1,12
 716 128 716 128 716 256 c 0,13,14
 716 382 716 382 625.5 473 c 128,-1,15
 535 564 535 564 409 564 c 0,16,17
 282 564 282 564 191.5 473 c 128,-1,18
 101 382 101 382 101 256 c 0,19,20
 101 129 101 129 191.5 38 c 128,-1,10
 282 -53 282 -53 409 -53 c 128,-1,11
409 411 m 128,-1,22
 473 411 473 411 518.5 365.5 c 128,-1,23
 564 320 564 320 564 256 c 128,-1,24
 564 192 564 192 518.5 146.5 c 128,-1,25
 473 101 473 101 409 101 c 128,-1,26
 345 101 345 101 299 146.5 c 128,-1,27
 253 192 253 192 253 256 c 128,-1,28
 253 320 253 320 299 365.5 c 128,-1,21
 345 411 345 411 409 411 c 128,-1,22
317 256 m 128,-1,30
 317 219 317 219 344.5 192 c 128,-1,31
 372 165 372 165 409 165 c 128,-1,32
 446 165 446 165 473 192 c 128,-1,33
 500 219 500 219 500 256 c 128,-1,34
 500 293 500 293 473 320 c 128,-1,35
 446 347 446 347 409 347 c 128,-1,36
 372 347 372 347 344.5 320 c 128,-1,29
 317 293 317 293 317 256 c 128,-1,30
EndSplineSet
Validated: 1
EndChar

StartChar: squaresmallsolid
Encoding: 9642 9642 46
Width: 291
Flags: W
HStem: -10 217<55.2822 240.708>
VStem: 48 194<-8.56274 194.75>
LayerCount: 2
Fore
SplineSet
48 177 m 2,0,1
 48 187 48 187 55 195 c 0,2,3
 64 204 64 204 77 207 c 1,4,-1
 78 207 l 1,5,-1
 213 207 l 1,6,7
 227 205 227 205 234 196 c 0,8,9
 241 188 241 188 242 179 c 1,10,-1
 242 178 l 1,11,-1
 242 20 l 2,12,13
 242 7 242 7 232 -2 c 0,14,15
 224 -9 224 -9 215 -10 c 1,16,-1
 214 -10 l 1,17,-1
 79 -10 l 2,18,19
 69 -10 69 -10 61 -3 c 0,20,21
 50 7 50 7 48 18 c 1,22,-1
 48 19 l 1,23,-1
 48 177 l 2,0,1
EndSplineSet
Validated: 1
EndChar

StartChar: Rightarrow
Encoding: 8658 8658 47
Width: 1027
VWidth: 1000
Flags: W
HStem: 117 63<48.2085 669> 228 45<899.275 962> 321 63<48.2085 669> 521 20G<606.5 628>
LayerCount: 2
Fore
SplineSet
90 321 m 2,0,1
 77 321 77 321 69 323 c 0,2,3
 47 329 47 329 47 350 c 2,4,5
 47 352 l 2,6,7
 47 373 47 373 65 380 c 0,8,9
 75 384 75 384 94 384 c 2,10,-1
 669 384 l 1,11,12
 638 419 638 419 613 459.5 c 128,-1,13
 588 500 588 500 584 514 c 1,14,-1
 584 518 l 1,15,16
 586 528 586 528 586 529 c 0,17,18
 587 531 587 531 591 535 c 0,19,20
 598 541 598 541 615 541 c 2,21,22
 622 541 l 1,23,24
 634 540 634 540 643 529 c 0,25,26
 645 527 645 527 650 518 c 0,27,28
 753 330 753 330 962 273 c 1,29,-1
 963 272 l 1,30,31
 981 264 981 264 980 250 c 1,32,33
 980 232 980 232 962 228 c 1,34,-1
 961 228 l 1,35,36
 840 196 840 196 759 124 c 0,37,38
 697 68 697 68 650 -16 c 0,39,40
 645 -26 645 -26 643 -28 c 0,41,42
 635 -40 635 -40 620 -40 c 2,43,44
 615 -40 l 2,45,46
 598 -40 598 -40 591 -34 c 0,47,48
 587 -30 587 -30 586 -28 c 0,49,50
 584 -25 584 -25 584 -17 c 2,51,52
 584 -13 l 1,53,54
 587 0 587 0 612 40.5 c 128,-1,55
 637 81 637 81 669 117 c 1,56,-1
 94 117 l 2,57,58
 76 117 76 117 65 121 c 0,59,60
 47 128 47 128 47 149 c 0,61,62
 47 172 47 172 69 178 c 0,63,64
 77 180 77 180 90 180 c 2,65,-1
 721 180 l 1,66,-1
 733 180 l 2,67,68
 735 180 735 180 737 182 c 2,69,70
 739 183.5 l 2,71,72
 741 185 741 185 742 186 c 0,73,74
 788 222 788 222 848 251 c 1,75,76
 795 275 795 275 742 316 c 0,77,78
 740 318 740 318 738.5 319 c 2,79,-1
 737 320 l 1,80,-1
 734 320 l 1,81,82
 731 321 731 321 721 321 c 2,83,-1
 90 321 l 2,0,1
EndSplineSet
Validated: 1
EndChar

StartChar: squiggleright
Encoding: 8669 8669 48
Width: 1051
Flags: W
HStem: 223 65<678 878>
LayerCount: 2
Fore
SplineSet
48 256 m 0,0,1
 48 260 48 260 49 264 c 0,2,3
 52 272 52 272 58 278 c 2,4,-1
 156 363 l 2,5,6
 162 369 162 369 170 371 c 0,7,8
 173 372 173 372 178 372 c 0,9,10
 190 372 190 372 200 364 c 2,11,-1
 373 213 l 1,12,-1
 546 364 l 2,13,14
 552 369 552 369 559 371 c 0,15,16
 561 372 561 372 562 372 c 2,17,18
 564 372 l 1,19,20
 567 372 l 2,21,22
 576 372 576 372 584 368 c 1,23,24
 586 366 l 2,25,26
 587 366 587 366 588 365 c 2,27,28
 590 363 l 1,29,-1
 678 288 l 1,30,-1
 878 288 l 1,31,32
 821 346 821 346 791 422 c 1,33,-1
 785 436 l 1,34,-1
 843 436 l 1,35,-1
 845 430 l 1,36,37
 891 317 891 317 997 265 c 1,38,-1
 1016 256 l 1,39,-1
 997 247 l 1,40,41
 890 194 890 194 845 81 c 1,42,-1
 843 75 l 1,43,-1
 785 75 l 1,44,-1
 791 89 l 1,45,46
 821 165 821 165 878 223 c 1,47,-1
 664 223 l 2,48,49
 657 223 657 223 650 227 c 0,50,51
 646 230 646 230 641 235 c 2,52,-1
 567 298 l 1,53,-1
 395 148 l 2,54,55
 390 143 390 143 386 141 c 0,56,57
 378 138 378 138 373 138 c 0,58,59
 360 138 360 138 350 148 c 2,60,-1
 178 298 l 1,61,-1
 102 232 l 1,62,63
 98.5 229.5 l 2,64,65
 95 227 95 227 93 226 c 0,66,67
 88.5 223 88.5 223 81 223 c 0,68,69
 69 223 69 223 58.5 233 c 128,-1,70
 48 243 48 243 48 256 c 0,0,1
EndSplineSet
Validated: 1
EndChar

StartChar: lessorsimilar
Encoding: 8818 8818 49
Width: 818
Flags: W
HStem: -257 82<504.207 656.308> -79 82<161 312.793> 715 61<720 737.497>
VStem: 48 51<-251.746 -142.938> 718 51<-111.062 -2.25366>
LayerCount: 2
Fore
SplineSet
48 -221 m 1,0,-1
 48 -212 l 2,1,2
 48 -129 48 -129 99.5 -63 c 128,-1,3
 151 3 151 3 233 3 c 0,4,5
 282 3 282 3 331 -25 c 128,-1,6
 380 -53 380 -53 414 -86 c 128,-1,7
 448 -119 448 -119 494 -147 c 128,-1,8
 540 -175 540 -175 584 -175 c 0,9,10
 640 -175 640 -175 679 -133 c 128,-1,11
 718 -91 718 -91 718 -34 c 2,12,-1
 718 -33 l 1,13,14
 721 -10 721 -10 730 -2 c 0,15,16
 735 3 735 3 743 3 c 1,17,18
 750 2 750 2 753 0 c 0,19,20
 767 -7 767 -7 769 -33 c 1,21,-1
 769 -42 l 2,22,23
 769 -125 769 -125 718 -191 c 128,-1,24
 667 -257 667 -257 584 -257 c 0,25,26
 535 -257 535 -257 486 -229 c 128,-1,27
 437 -201 437 -201 403 -168 c 128,-1,28
 369 -135 369 -135 323 -107 c 128,-1,29
 277 -79 277 -79 233 -79 c 0,30,31
 177 -79 177 -79 138 -121 c 128,-1,32
 99 -163 99 -163 99 -220 c 2,33,-1
 99 -221 l 1,34,35
 96 -244 96 -244 87 -252 c 0,36,37
 82 -257 82 -257 74 -257 c 0,38,39
 69 -257 69 -257 64 -254 c 0,40,41
 50 -244 50 -244 48 -221 c 1,0,-1
78 458 m 0,42,43
 78 467 78 467 82 473 c 0,44,45
 86 480 86 480 98 487 c 1,46,-1
 695 774 l 2,47,48
 699 776 699 776 708 776 c 0,49,50
 714 776 714 776 721 772 c 0,51,52
 737 764 737 764 739 747 c 1,53,-1
 739 744 l 2,54,55
 739 723 739 723 720 715 c 1,56,-1
 184 458 l 1,57,-1
 723 198 l 1,58,-1
 725 197 l 2,59,60
 727 196 727 196 729.5 194 c 128,-1,61
 732 192 732 192 734 189 c 0,62,63
 739 182 739 182 739 171 c 0,64,65
 739 150 739 150 721 141 c 0,66,67
 715 138 715 138 708 138 c 0,68,69
 700 138 700 138 695 142 c 0,70,71
 694 142 694 142 693 143 c 2,72,-1
 95 429 l 1,73,-1
 93 430.5 l 2,74,75
 91 432 91 432 88 434 c 128,-1,76
 85 436 85 436 83 440 c 0,77,78
 78 448 78 448 78 458 c 0,42,43
EndSplineSet
Validated: 1
EndChar

StartChar: equaldotleftright
Encoding: 8786 8786 50
Width: 818
Flags: W
HStem: -124 135<690.111 784.373> 120 64<49.7627 762.78> 328 64<49.4062 760.749> 500 135<34.1115 127.373>
VStem: 14 134<520.111 614.373> 670 135<-103.373 -9.62671>
LayerCount: 2
Fore
SplineSet
737 11 m 128,-1,1
 765 11 765 11 785 -8.5 c 128,-1,2
 805 -28 805 -28 805 -56 c 128,-1,3
 805 -84 805 -84 785 -104 c 128,-1,4
 765 -124 765 -124 737 -124 c 128,-1,5
 709 -124 709 -124 689.5 -104 c 128,-1,6
 670 -84 670 -84 670 -56 c 0,7,8
 670 -29 670 -29 689.5 -9 c 128,-1,0
 709 11 709 11 737 11 c 128,-1,1
48 152 m 0,9,10
 48 163 48 163 56 172 c 0,11,12
 65 181 65 181 76 184 c 1,13,-1
 78 184 l 1,14,-1
 740 184 l 1,15,-1
 742 184 l 1,16,17
 756 179 756 179 763 170 c 0,18,19
 769 161 769 161 769 152 c 1,20,21
 768 147 768 147 768 146 c 0,22,23
 768 143 768 143 767 141 c 0,24,25
 761 123 761 123 741 120 c 1,26,-1
 740 120 l 1,27,-1
 78 120 l 1,28,-1
 77 120 l 1,29,30
 61 124 61 124 53 136 c 0,31,32
 48 144 48 144 48 152 c 0,9,10
48 359 m 2,33,-1
 48 367 l 1,34,35
 50 371 50 371 51 372 c 0,36,37
 58 386 58 386 76 392 c 1,38,-1
 78 392 l 1,39,-1
 740 392 l 1,40,-1
 742 392 l 1,41,42
 769 383 769 383 769 359 c 0,43,44
 769 346 769 346 761 338 c 128,-1,45
 753 330 753 330 741 328 c 1,46,-1
 740 328 l 1,47,-1
 78 328 l 1,48,-1
 77 328 l 1,49,50
 64 331 64 331 58 337 c 0,51,52
 48 346 48 346 48 359 c 2,33,-1
81 635 m 128,-1,54
 109 635 109 635 128.5 615 c 128,-1,55
 148 595 148 595 148 567 c 128,-1,56
 148 539 148 539 128 519.5 c 128,-1,57
 108 500 108 500 81 500 c 0,58,59
 53 500 53 500 33.5 519.5 c 128,-1,60
 14 539 14 539 14 567 c 0,61,62
 14 594 14 594 33.5 614.5 c 128,-1,53
 53 635 53 635 81 635 c 128,-1,54
EndSplineSet
Validated: 1
EndChar

StartChar: triangledownsld
Encoding: 9660 9660 51
Width: 743
Flags: W
LayerCount: 2
Fore
SplineSet
80 557 m 2,0,1
 78 563 78 563 78 565 c 2,2,-1
 78 567 l 1,3,-1
 78 569 l 2,4,5
 78 594 78 594 105 602 c 1,6,-1
 107 602 l 1,7,-1
 637 602 l 1,8,-1
 639 602 l 1,9,10
 665 596 665 596 665 569 c 2,11,12
 665 565 l 1,13,14
 665 562 l 1,15,16
 664 561 664 561 664 560 c 0,17,18
 664 558 664 558 663 557 c 2,19,-1
 401 -12 l 1,20,21
 393 -25 393 -25 389 -27 c 0,22,23
 379 -33 379 -33 372 -33 c 0,24,25
 367 -33 367 -33 361 -31 c 0,26,27
 348 -25 348 -25 342 -12 c 2,28,-1
 80 557 l 2,0,1
EndSplineSet
Validated: 1
EndChar

StartChar: Yen
Encoding: 165 165 52
Width: 788
Flags: W
HStem: -10 56<236 339.908 450.329 554> 205 53<55.3186 340 449 733.863> 413 53<55.3186 220 383 469 569 733.863> 654 55<3 111.396 241.383 307 545 599.462 689.23 785>
VStem: 340 109<52.3809 66 67 205 258 277>
LayerCount: 2
Fore
SplineSet
55 228 m 1,0,-1
 55 234 l 1,1,2
 58 250 58 250 71 256 c 0,3,4
 77 258 77 258 78 258 c 2,5,-1
 340 258 l 1,6,-1
 340 277 l 1,7,-1
 254 413 l 1,8,-1
 78 413 l 1,9,10
 58 416 58 416 55 432 c 1,11,-1
 55 436 l 1,12,-1
 55 442 l 1,13,14
 58 458 58 458 71 464 c 0,15,16
 77 466 77 466 78 466 c 2,17,-1
 220 466 l 1,18,-1
 118 624 l 1,19,20
 104 643 104 643 80 648.5 c 128,-1,21
 56 654 56 654 13 654 c 2,22,-1
 3 654 l 1,23,-1
 3 709 l 1,24,-1
 13 709 l 2,25,26
 34 709 34 709 77.5 707.5 c 128,-1,27
 121 706 121 706 143 706 c 0,28,29
 168 706 168 706 220 707.5 c 128,-1,30
 272 709 272 709 297 709 c 2,31,-1
 307 709 l 1,32,-1
 307 654 l 1,33,-1
 297 654 l 2,34,35
 253 654 253 654 241 645 c 0,36,37
 238 643 238 643 238 640 c 2,38,-1
 238 638 l 1,39,-1
 239 637 l 1,40,-1
 239 636 l 1,41,-1
 239 635 l 1,42,-1
 348 466 l 1,43,-1
 504 466 l 1,44,-1
 594 606 l 2,45,46
 600 617 600 617 600 626 c 0,47,48
 600 654 600 654 555 654 c 2,49,-1
 545 654 l 1,50,-1
 545 709 l 1,51,-1
 555 709 l 2,52,53
 575 709 575 709 615.5 707.5 c 128,-1,54
 656 706 656 706 677 706 c 0,55,56
 693 706 693 706 725.5 707.5 c 128,-1,57
 758 709 758 709 775 709 c 2,58,-1
 785 709 l 1,59,-1
 785 654 l 1,60,-1
 775 654 l 2,61,62
 690 654 690 654 653 596 c 2,63,-1
 569 466 l 1,64,-1
 711 466 l 1,65,66
 717 464 717 464 718 464 c 0,67,68
 732 457 732 457 734 446 c 1,69,-1
 734 442 l 1,70,-1
 734 436 l 1,71,72
 730 417 730 417 715 413 c 1,73,-1
 711 413 l 1,74,-1
 535 413 l 1,75,-1
 449 277 l 1,76,-1
 449 258 l 1,77,-1
 711 258 l 1,78,79
 717 256 717 256 718 256 c 0,80,81
 732 249 732 249 734 238 c 1,82,-1
 734 234 l 1,83,-1
 734 228 l 1,84,85
 730 209 730 209 715 205 c 1,86,-1
 711 205 l 1,87,-1
 449 205 l 1,88,-1
 449 70 l 1,89,-1
 449 67 l 1,90,-1
 450 66 l 1,91,-1
 450 65 l 1,92,93
 460 46 460 46 538 46 c 2,94,-1
 544 46 l 1,95,-1
 554 46 l 1,96,-1
 554 -10 l 1,97,-1
 544 -10 l 2,98,99
 519 -10 519 -10 469 -8.5 c 128,-1,100
 419 -7 419 -7 394 -7 c 0,101,102
 370 -7 370 -7 320.5 -8.5 c 128,-1,103
 271 -10 271 -10 246 -10 c 2,104,-1
 236 -10 l 1,105,-1
 236 46 l 1,106,-1
 246 46 l 2,107,108
 340 46 340 46 340 70 c 2,109,-1
 340 205 l 1,110,-1
 78 205 l 1,111,112
 58 208 58 208 55 224 c 1,113,-1
 55 228 l 1,0,-1
426 345 m 1,114,-1
 469 413 l 1,115,-1
 383 413 l 1,116,-1
 426 345 l 1,114,-1
EndSplineSet
Validated: 1
EndChar

StartChar: uniondbl
Encoding: 8914 8914 53
Width: 701
Flags: W
HStem: -33 65<228.313 474.108> 131 64<296.193 403.807>
VStem: 48 64<123.061 622.242> 212 64<213.343 622.242> 424 64<213.343 622.242> 588 64<125.536 622.242>
LayerCount: 2
Fore
SplineSet
48 196 m 2,0,-1
 48 596 l 1,1,-1
 48 597 l 1,2,3
 50 608 50 608 59.5 616 c 128,-1,4
 69 624 69 624 81 624 c 0,5,6
 90 624 90 624 99 618 c 0,7,8
 110 610 110 610 112 597 c 1,9,-1
 112 596 l 1,10,-1
 112 200 l 2,11,12
 112 119 112 119 185.5 75.5 c 128,-1,13
 259 32 259 32 350 32 c 0,14,15
 406 32 406 32 458 48.5 c 128,-1,16
 510 65 510 65 549 104.5 c 128,-1,17
 588 144 588 144 588 199 c 2,18,-1
 588 596 l 1,19,-1
 588 597 l 1,20,21
 590 608 590 608 599.5 616 c 128,-1,22
 609 624 609 624 621 624 c 0,23,24
 630 624 630 624 639 618 c 0,25,26
 650 610 650 610 652 597 c 1,27,-1
 652 596 l 1,28,-1
 652 195 l 2,29,30
 652 123 652 123 604 69 c 128,-1,31
 556 15 556 15 489 -9 c 128,-1,32
 422 -33 422 -33 350 -33 c 0,33,34
 299 -33 299 -33 247.5 -19 c 128,-1,35
 196 -5 196 -5 150.5 21.5 c 128,-1,36
 105 48 105 48 76.5 93.5 c 128,-1,37
 48 139 48 139 48 196 c 2,0,-1
212 254 m 2,38,-1
 212 596 l 1,39,-1
 212 597 l 1,40,41
 214 608 214 608 223.5 616 c 128,-1,42
 233 624 233 624 245 624 c 0,43,44
 254 624 254 624 263 618 c 0,45,46
 274 610 274 610 276 597 c 1,47,-1
 276 596 l 1,48,-1
 276 258 l 2,49,50
 276 230 276 230 298 212.5 c 128,-1,51
 320 195 320 195 350 195 c 128,-1,52
 380 195 380 195 402 212.5 c 128,-1,53
 424 230 424 230 424 258 c 2,54,-1
 424 596 l 1,55,-1
 424 597 l 1,56,57
 426 608 426 608 435.5 616 c 128,-1,58
 445 624 445 624 457 624 c 0,59,60
 466 624 466 624 475 618 c 0,61,62
 486 610 486 610 488 597 c 1,63,-1
 488 596 l 1,64,-1
 488 254 l 2,65,66
 488 200 488 200 445.5 165.5 c 128,-1,67
 403 131 403 131 350 131 c 128,-1,68
 297 131 297 131 254.5 165.5 c 128,-1,69
 212 200 212 200 212 254 c 2,38,-1
EndSplineSet
Validated: 1
EndChar

StartChar: rightanglene
Encoding: 9488 9488 54
Width: 525
Flags: W
HStem: 657 64<49.7727 413>
VStem: 413 64<293.593 657>
LayerCount: 2
Fore
SplineSet
413 657 m 1,0,-1
 78 657 l 1,1,-1
 77 657 l 1,2,3
 61 661 61 661 53 673 c 0,4,5
 48 681 48 681 48 689 c 1,6,7
 47 695 47 695 51 702 c 0,8,9
 59 718 59 718 77 721 c 1,10,-1
 78 721 l 1,11,-1
 446 721 l 2,12,13
 456 721 456 721 464 714 c 0,14,15
 475 704 475 704 477 693 c 1,16,-1
 477 692 l 1,17,-1
 477 322 l 1,18,-1
 477 321 l 1,19,20
 471 292 471 292 444 292 c 0,21,22
 434 292 434 292 425 300 c 0,23,24
 415 309 415 309 413 321 c 1,25,-1
 413 322 l 1,26,-1
 413 657 l 1,0,-1
EndSplineSet
Validated: 1
EndChar

StartChar: ominus
Encoding: 8854 8854 55
Width: 799
VWidth: 1000
Flags: W
HStem: -102 48<283.847 514.441> 227 48<96 702> 555 48<284.826 512.885>
VStem: 47 49<134.8 227 275 365.898> 702 49<135.042 227 275 365.898>
LayerCount: 2
Fore
SplineSet
399 -102 m 0,0,1
 254 -102 254 -102 150.5 1 c 128,-1,2
 47 104 47 104 47 251 c 0,3,4
 47 396 47 396 150 499.5 c 128,-1,5
 253 603 253 603 399 603 c 0,6,7
 544 603 544 603 647.5 500 c 128,-1,8
 751 397 751 397 751 250 c 0,9,10
 751 105 751 105 648 1.5 c 128,-1,11
 545 -102 545 -102 399 -102 c 0,0,1
96 275 m 1,12,-1
 702 275 l 1,13,14
 691 395 691 395 603.5 475 c 128,-1,15
 516 555 516 555 399 555 c 128,-1,16
 282 555 282 555 194.5 475 c 128,-1,17
 107 395 107 395 96 275 c 1,12,-1
702 227 m 1,18,-1
 96 227 l 1,19,20
 107 104 107 104 195 25 c 128,-1,21
 283 -54 283 -54 399 -54 c 128,-1,22
 515 -54 515 -54 603 25 c 128,-1,23
 691 104 691 104 702 227 c 1,18,-1
EndSplineSet
Validated: 1
EndChar

StartChar: clockwise
Encoding: 8635 8635 56
Width: 818
Flags: W
HStem: -106 53<294.501 523.399> 534 49<528.257 563.969> 564 53<389.221 426.749>
VStem: 48 53<141.401 369.568> 716 53<139.381 369.54>
LayerCount: 2
Fore
SplineSet
48 256 m 0,0,1
 48 364 48 364 109 455.5 c 128,-1,2
 170 547 170 547 269 589 c 1,3,4
 222 615 222 615 178 661 c 1,5,-1
 166 673 l 1,6,-1
 224 688 l 1,7,-1
 228 684 l 1,8,9
 273 632 273 632 343 611 c 1,10,11
 373 617 373 617 408 617 c 0,12,13
 419 617 419 617 427 610 c 128,-1,14
 435 603 435 603 435 591 c 0,15,16
 435 582 435 582 428.5 573 c 128,-1,17
 422 564 422 564 411 564 c 0,18,19
 396 564 396 564 389 563 c 1,20,21
 319 504 319 504 305 416 c 2,22,-1
 304 410 l 1,23,-1
 248 394 l 1,24,-1
 250 410 l 1,25,26
 262 482 262 482 305 544 c 1,27,-1
 304 546 l 1,28,29
 214 513 214 513 157.5 432.5 c 128,-1,30
 101 352 101 352 101 256 c 0,31,32
 101 129 101 129 191.5 38 c 128,-1,33
 282 -53 282 -53 409 -53 c 128,-1,34
 536 -53 536 -53 626 37.5 c 128,-1,35
 716 128 716 128 716 256 c 0,36,37
 716 344 716 344 668 420 c 128,-1,38
 620 496 620 496 541 534 c 0,39,40
 528 540 528 540 528 557 c 0,41,42
 528 568 528 568 536 575.5 c 128,-1,43
 544 583 544 583 554 583 c 0,44,45
 560 583 560 583 562 582 c 2,46,-1
 564 581 l 1,47,-1
 565 580 l 1,48,-1
 566 580 l 1,49,50
 659 536 659 536 714 447.5 c 128,-1,51
 769 359 769 359 769 256 c 0,52,53
 769 106 769 106 664 0 c 128,-1,54
 559 -106 559 -106 409 -106 c 128,-1,55
 259 -106 259 -106 153.5 0 c 128,-1,56
 48 106 48 106 48 256 c 0,0,1
EndSplineSet
Validated: 1
EndChar

StartChar: dblarrowdwn
Encoding: 8650 8650 57
Width: 876
Flags: W
VStem: 232 63<-82 708.719> 582 64<-82 708.719>
LayerCount: 2
Fore
SplineSet
65 -22 m 2,0,-1
 65 -10 l 2,1,2
 65 -3 65 -3 70 3 c 0,3,4
 78 11 78 11 88 11 c 2,5,-1
 94 11 l 1,6,-1
 96 10 l 1,7,8
 174 -21 174 -21 232 -83 c 1,9,-1
 232 691 l 2,10,11
 232 700 232 700 239 709 c 0,12,13
 249 721 249 721 263 721 c 1,14,15
 279 719 279 719 288 709 c 0,16,17
 295 700 295 700 295 691 c 2,18,-1
 295 -82 l 1,19,20
 350 -22 350 -22 430 10 c 1,21,-1
 432 11 l 1,22,-1
 444 11 l 1,23,-1
 446 10 l 1,24,25
 527 -21 527 -21 582 -82 c 1,26,-1
 582 691 l 2,27,28
 582 700 582 700 587 707 c 0,29,30
 596 718 596 718 605 720 c 1,31,32
 607 720 l 1,33,34
 609 721 609 721 610 721 c 2,35,36
 613 721 l 1,37,38
 630 719 630 719 639 709 c 0,39,40
 646 700 646 700 646 691 c 2,41,-1
 646 -82 l 1,42,43
 701 -21 701 -21 781 10 c 1,44,-1
 783 11 l 1,45,-1
 790 11 l 1,46,47
 805 7 805 7 809 1 c 0,48,49
 812 -5 812 -5 812 -10 c 2,50,-1
 812 -22 l 1,51,52
 811 -28 811 -28 811 -29 c 0,53,54
 808 -37 808 -37 797 -41 c 0,55,56
 743 -61 743 -61 700.5 -101 c 128,-1,57
 658 -141 658 -141 635 -194 c 0,58,59
 628 -209 628 -209 613 -209 c 1,60,61
 605 -208 605 -208 604 -207 c 0,62,63
 598 -203 598 -203 593 -194 c 0,64,65
 570 -143 570 -143 530 -104 c 128,-1,66
 490 -65 490 -65 438 -45 c 1,67,68
 386 -65 386 -65 346 -104 c 128,-1,69
 306 -143 306 -143 284 -194 c 1,70,71
 276 -209 276 -209 263 -209 c 0,72,73
 248 -209 248 -209 242 -194 c 0,74,75
 194 -85 194 -85 80 -42 c 0,76,77
 70 -39 70 -39 66 -29 c 0,78,79
 65 -26 65 -26 65 -22 c 2,0,-1
EndSplineSet
Validated: 1
EndChar

StartChar: curlyleft
Encoding: 8619 8619 58
Width: 1051
Flags: W
HStem: 223 65<173 644 708 909.749> 537 65<755.27 923.795>
VStem: 644 64<-47.8105 223 288 483.787> 961 65<337.365 500.203>
LayerCount: 2
Fore
SplineSet
54 247 m 1,0,-1
 35 256 l 1,1,-1
 54 265 l 2,2,3
 162 317 162 317 207 430 c 1,4,-1
 209 436 l 1,5,-1
 267 436 l 1,6,-1
 261 422 l 1,7,8
 231 348 231 348 173 288 c 1,9,-1
 644 288 l 1,10,11
 644 325 644 325 645 350 c 128,-1,12
 646 375 646 375 650 411 c 128,-1,13
 654 447 654 447 661 471 c 128,-1,14
 668 495 668 495 682 522 c 128,-1,15
 696 549 696 549 716 565 c 128,-1,16
 736 581 736 581 766.5 591.5 c 128,-1,17
 797 602 797 602 835 602 c 0,18,19
 1026 602 1026 602 1026 413 c 0,20,21
 1026 375 1026 375 1017 345 c 128,-1,22
 1008 315 1008 315 994 295 c 128,-1,23
 980 275 980 275 956 261 c 128,-1,24
 932 247 932 247 910.5 240 c 128,-1,25
 889 233 889 233 856 229 c 128,-1,26
 823 225 823 225 800 224 c 128,-1,27
 777 223 777 223 742 223 c 2,28,-1
 708 223 l 1,29,-1
 708 -26 l 1,30,-1
 708 -28 l 1,31,32
 703 -42 703 -42 696 -48 c 0,33,34
 687 -55 687 -55 676 -55 c 0,35,36
 663 -55 663 -55 654.5 -46.5 c 128,-1,37
 646 -38 646 -38 644 -27 c 1,38,-1
 644 -26 l 1,39,-1
 644 223 l 1,40,-1
 173 223 l 1,41,42
 231 163 231 163 261 89 c 1,43,-1
 267 75 l 1,44,-1
 209 75 l 1,45,-1
 207 81 l 1,46,47
 162 193 162 193 54 247 c 1,0,-1
708 288 m 1,48,-1
 741 288 l 2,49,50
 786 288 786 288 809.5 289 c 128,-1,51
 833 290 833 290 867 296.5 c 128,-1,52
 901 303 901 303 918 315.5 c 128,-1,53
 935 328 935 328 948 352.5 c 128,-1,54
 961 377 961 377 961 413 c 0,55,56
 961 481 961 481 931.5 509 c 128,-1,57
 902 537 902 537 835 537 c 0,58,59
 784 537 784 537 756 516.5 c 128,-1,60
 728 496 728 496 718 445 c 0,61,62
 708 398 708 398 708 288 c 1,48,-1
EndSplineSet
Validated: 1
EndChar

StartChar: geqq
Encoding: 8807 8807 59
Width: 818
Flags: W
HStem: -207 64<83.2827 737.886> 1 64<83.2827 737.886> 165 62<80.0098 98>
LayerCount: 2
Fore
SplineSet
78 -175 m 0,0,1
 78 -168 78 -168 83 -159 c 1,2,3
 92 -146 92 -146 107 -143 c 1,4,-1
 108 -143 l 1,5,-1
 711 -143 l 1,6,-1
 712 -143 l 1,7,8
 739 -149 739 -149 739 -175 c 128,-1,9
 739 -201 739 -201 712 -207 c 1,10,-1
 711 -207 l 1,11,-1
 108 -207 l 1,12,-1
 107 -207 l 1,13,14
 88 -202 88 -202 81 -188 c 0,15,16
 78 -180 78 -180 78 -175 c 0,0,1
78 33 m 0,17,18
 78 40 78 40 83 49 c 1,19,20
 92 62 92 62 107 65 c 1,21,-1
 108 65 l 1,22,-1
 711 65 l 1,23,-1
 712 65 l 1,24,25
 739 59 739 59 739 33 c 128,-1,26
 739 7 739 7 712 1 c 1,27,-1
 711 1 l 1,28,-1
 108 1 l 1,29,-1
 107 1 l 1,30,31
 88 6 88 6 81 20 c 0,32,33
 78 28 78 28 78 33 c 0,17,18
98 227 m 1,34,-1
 633 484 l 1,35,-1
 95 743 l 2,36,37
 83 749 83 749 80 758 c 0,38,39
 78 762 78 762 78 771 c 0,40,41
 78 776 78 776 79 779 c 0,42,43
 86 803 86 803 111 803 c 0,44,45
 114 803 114 803 122 801 c 1,46,-1
 123 801 l 1,47,-1
 723 512 l 1,48,-1
 725 511 l 2,49,50
 727 510 727 510 729 508 c 128,-1,51
 731 506 731 506 733 503 c 0,52,53
 739 494 739 494 739 484 c 0,54,55
 739 463 739 463 720 455 c 1,56,-1
 124 168 l 2,57,58
 119 165 119 165 111 165 c 0,59,60
 99 165 99 165 88.5 175 c 128,-1,61
 78 185 78 185 78 198 c 0,62,63
 78 207 78 207 82 213 c 0,64,65
 86 220 86 220 98 227 c 1,34,-1
EndSplineSet
Validated: 1
EndChar

StartChar: arrowtripleleft
Encoding: 8666 8666 60
Width: 1051
Flags: W
HStem: 16 64<404 1001.89> 223 65<216 993.718> 431 64<404 996.718>
CounterMasks: 1 e0
LayerCount: 2
Fore
SplineSet
76 247 m 1,0,-1
 60 256 l 1,1,-1
 76 265 l 1,2,3
 187 325 187 325 270 421.5 c 128,-1,4
 353 518 353 518 395 637 c 1,5,-1
 397 644 l 1,6,-1
 472 644 l 1,7,-1
 467 631 l 1,8,9
 444 564 444 564 404 495 c 1,10,-1
 975 495 l 1,11,-1
 976 495 l 1,12,13
 988 492 988 492 997 482 c 1,14,15
 1003 473 1003 473 1003 464 c 0,16,17
 1003 452 1003 452 995 442.5 c 128,-1,18
 987 433 987 433 976 431 c 1,19,-1
 975 431 l 1,20,-1
 360 431 l 1,21,22
 300 352 300 352 216 288 c 1,23,-1
 972 288 l 2,24,25
 985 288 985 288 994 278.5 c 128,-1,26
 1003 269 1003 269 1003 256 c 0,27,28
 1003 238 1003 238 990 229 c 0,29,30
 984 225 984 225 977 223 c 1,31,-1
 972 223 l 1,32,-1
 216 223 l 1,33,34
 300 159 300 159 360 80 c 1,35,-1
 975 80 l 1,36,-1
 976 80 l 1,37,38
 1003 74 1003 74 1003 48 c 128,-1,39
 1003 22 1003 22 976 16 c 1,40,-1
 975 16 l 1,41,-1
 404 16 l 1,42,43
 444 -53 444 -53 467 -120 c 1,44,-1
 472 -133 l 1,45,-1
 397 -133 l 1,46,-1
 395 -126 l 1,47,48
 353 -7 353 -7 270 89.5 c 128,-1,49
 187 186 187 186 76 247 c 1,0,-1
EndSplineSet
Validated: 1
EndChar

StartChar: uprise
Encoding: 8911 8911 61
Width: 806
Flags: W
VStem: 371 64<337.96 600.517>
LayerCount: 2
Fore
SplineSet
107 32 m 0,0,1
 163 38 163 38 207 66 c 128,-1,2
 251 94 251 94 279 140 c 128,-1,3
 307 186 307 186 326 237.5 c 128,-1,4
 345 289 345 289 354.5 351.5 c 128,-1,5
 364 414 364 414 367.5 465.5 c 128,-1,6
 371 517 371 517 371 572 c 2,7,-1
 371 573 l 1,8,-1
 371 574 l 1,9,10
 378 595 378 595 392 600 c 0,11,12
 394 601 394 601 397 601 c 2,13,-1
 399.5 601.5 l 2,14,15
 402 602 402 602 403 602 c 0,16,17
 411 602 411 602 416 599 c 0,18,19
 432 591 432 591 435 574 c 1,20,-1
 435 573 l 1,21,-1
 435 572 l 2,22,23
 435 517 435 517 438.5 465.5 c 128,-1,24
 442 414 442 414 451.5 351.5 c 128,-1,25
 461 289 461 289 480 237.5 c 128,-1,26
 499 186 499 186 527 140 c 128,-1,27
 555 94 555 94 599 66 c 128,-1,28
 643 38 643 38 699 32 c 0,29,30
 711 30 711 30 719.5 20.5 c 128,-1,31
 728 11 728 11 728 -1 c 1,32,33
 727 -6 727 -6 727 -7 c 2,34,-1
 727 -10 l 1,35,36
 721 -33 721 -33 694 -33 c 1,37,38
 633 -27 633 -27 583 1 c 128,-1,39
 533 29 533 29 498.5 73 c 128,-1,40
 464 117 464 117 441 166.5 c 128,-1,41
 418 216 418 216 403 275 c 1,42,43
 388 216 388 216 365 166.5 c 128,-1,44
 342 117 342 117 307.5 73 c 128,-1,45
 273 29 273 29 223 1 c 128,-1,46
 173 -27 173 -27 112 -33 c 1,47,48
 87 -30 87 -30 80 -14 c 0,49,50
 80 -13.5 80 -13.5 79.375 -11.625 c 0,51,52
 78.5 -9 78.5 -9 78 -7 c 2,53,-1
 78 -1 l 2,54,55
 78 11 78 11 86.5 20.5 c 128,-1,56
 95 30 95 30 107 32 c 0,0,1
EndSplineSet
Validated: 1
EndChar

StartChar: circleS
Encoding: 9416 9416 62
Width: 937
Flags: W
HStem: -191 64<336.255 601.745> -24 51<395.173 549.894> 514 49<385.315 525.306> 688 64<335.601 602.399>
VStem: -3 64<147.967 414.355> 277 76<372.042 480.771> 277 52<87.3716 186.967> 585 76<62.4889 184.998> 586 53<363.186 448.655> 877 64<147.967 414.355>
LayerCount: 2
Fore
SplineSet
469 752 m 128,-1,1
 597 752 597 752 705.5 689 c 128,-1,2
 814 626 814 626 877.5 517.5 c 128,-1,3
 941 409 941 409 941 281 c 0,4,5
 941 86 941 86 802.5 -52.5 c 128,-1,6
 664 -191 664 -191 469 -191 c 128,-1,7
 274 -191 274 -191 135.5 -52.5 c 128,-1,8
 -3 86 -3 86 -3 281 c 0,9,10
 -3 409 -3 409 60.5 517.5 c 128,-1,11
 124 626 124 626 232.5 689 c 128,-1,0
 341 752 341 752 469 752 c 128,-1,1
61 281 m 0,12,13
 61 113 61 113 181.5 -7 c 128,-1,14
 302 -127 302 -127 469 -127 c 128,-1,15
 636 -127 636 -127 756.5 -7 c 128,-1,16
 877 113 877 113 877 281 c 0,17,18
 877 448 877 448 756.5 568 c 128,-1,19
 636 688 636 688 469 688 c 128,-1,20
 302 688 302 688 181.5 568 c 128,-1,21
 61 448 61 448 61 281 c 0,12,13
277 169 m 2,22,23
 277 170 277 170 277.5 171.5 c 128,-1,24
 278 173 278 173 278.5 175 c 128,-1,25
 279 177 279 177 281 179 c 0,26,27
 286 186 286 186 290 187 c 0,28,29
 293 188 293 188 297 188 c 2,30,-1
 309 188 l 1,31,32
 315 187 315 187 316 187 c 0,33,34
 320 186 320 186 325 179 c 0,35,36
 329 175 329 175 329 169 c 0,37,38
 329 99 329 99 374.5 63 c 128,-1,39
 420 27 420 27 492 27 c 0,40,41
 530 27 530 27 557.5 56 c 128,-1,42
 585 85 585 85 585 124 c 0,43,44
 585 157 585 157 564 184 c 128,-1,45
 543 211 543 211 512 218 c 2,46,-1
 405 243 l 2,47,48
 350 256 350 256 313.5 300 c 128,-1,49
 277 344 277 344 277 400 c 0,50,51
 277 468 277 468 327.5 515.5 c 128,-1,52
 378 563 378 563 446 563 c 0,53,54
 522 563 522 563 572 519 c 1,55,-1
 598 555 l 1,56,57
 604 561 604 561 608 562 c 0,58,59
 611 563 611 563 616 563 c 0,60,61
 627 561 627 561 631 558 c 0,62,63
 639 553 639 553 639 544 c 2,64,-1
 639 370 l 1,65,66
 638 363 638 363 637 362 c 0,67,68
 633 353 633 353 622 351 c 2,69,-1
 620 350.5 l 1,70,-1
 618 350 l 1,71,-1
 606 350 l 1,72,73
 600 351 600 351 599 352 c 0,74,75
 593 355 593 355 588 363 c 1,76,77
 586 369 586 369 586 370 c 0,78,79
 586 396 586 396 573.5 427.5 c 128,-1,80
 561 459 561 459 541 479 c 0,81,82
 505 514 505 514 446 514 c 0,83,84
 409 514 409 514 381 488.5 c 128,-1,85
 353 463 353 463 353 427 c 0,86,87
 353 397 353 397 373.5 373.5 c 128,-1,88
 394 350 394 350 424 343 c 2,89,-1
 530 317 l 1,90,91
 588 304 588 304 624.5 256 c 128,-1,92
 661 208 661 208 661 148 c 0,93,94
 661 78 661 78 611.5 27 c 128,-1,95
 562 -24 562 -24 492 -24 c 0,96,97
 403 -24 403 -24 344 21 c 1,98,-1
 317 -16 l 1,99,100
 311 -22 311 -22 307 -23 c 0,101,102
 304 -24 304 -24 299 -24 c 0,103,104
 292 -24 292 -24 285 -19 c 0,105,106
 277 -14 277 -14 277 -5 c 2,107,-1
 277 169 l 2,22,23
EndSplineSet
Validated: 1
EndChar

StartChar: harpoonleftright
Encoding: 8651 8651 63
Width: 1051
Flags: W
HStem: 120 64<57.798 872> 328 64<181 989.719> 520 20G<207 265>
LayerCount: 2
Fore
SplineSet
48 152 m 128,-1,1
 48 165 48 165 57.5 174.5 c 128,-1,2
 67 184 67 184 81 184 c 2,3,-1
 1003 184 l 1,4,-1
 1003 146 l 1,5,-1
 997 143 l 1,6,7
 890 91 890 91 845 -23 c 1,8,-1
 843 -29 l 1,9,-1
 787 -29 l 1,10,-1
 790 -16 l 1,11,12
 812 60 812 60 872 120 c 1,13,-1
 81 120 l 2,14,15
 67 120 67 120 57.5 129.5 c 128,-1,0
 48 139 48 139 48 152 c 128,-1,1
48 328 m 1,16,-1
 48 365 l 1,17,-1
 54 368 l 1,18,19
 162 420 162 420 207 534 c 1,20,-1
 209 540 l 1,21,-1
 265 540 l 1,22,-1
 262 527 l 1,23,24
 240 450 240 450 181 392 c 1,25,-1
 972 392 l 2,26,27
 981 392 981 392 990 386 c 0,28,29
 1003 376 1003 376 1003 359 c 0,30,31
 1003 350 1003 350 997 341 c 0,32,33
 994 337 994 337 990 334 c 0,34,35
 982.5 328 982.5 328 972 328 c 2,36,-1
 48 328 l 1,16,-1
EndSplineSet
Validated: 1
EndChar

StartChar: harpoondownright
Encoding: 8642 8642 64
Width: 438
Flags: W
VStem: 187 64<-77 719.55>
LayerCount: 2
Fore
SplineSet
187 689 m 2,0,1
 187 702 187 702 196.5 711.5 c 128,-1,2
 206 721 206 721 219 721 c 128,-1,3
 232 721 232 721 241.5 711.5 c 128,-1,4
 251 702 251 702 251 689 c 2,5,-1
 251 -77 l 1,6,7
 311 -17 311 -17 386 5 c 1,8,-1
 399 8 l 1,9,-1
 399 -48 l 1,10,-1
 393 -50 l 1,11,12
 278 -96 278 -96 228 -203 c 1,13,-1
 225 -209 l 1,14,-1
 187 -209 l 1,15,-1
 187 689 l 2,0,1
EndSplineSet
Validated: 1
EndChar

StartChar: greaterorless
Encoding: 8823 8823 65
Width: 818
Flags: W
HStem: 154 62<79.6194 98>
LayerCount: 2
Fore
SplineSet
78 -0 m 0,0,1
 78 4 78 4 79 7 c 1,2,-1
 79 9 l 1,3,4
 80 9 80 9 80 10 c 0,5,6
 85 23 85 23 98 29 c 2,7,-1
 695 284 l 2,8,9
 699 286 699 286 708 286 c 0,10,11
 713 286 713 286 716 285 c 0,12,13
 733 280 733 280 738 263 c 0,14,15
 739 260 739 260 739 255 c 0,16,17
 739 244 739 244 732 234 c 0,18,19
 727.5 228 727.5 228 720 225 c 2,20,-1
 192 0 l 1,21,-1
 720 -225 l 2,22,23
 739 -234 739 -234 739 -255 c 128,-1,24
 739 -276 739 -276 721 -285 c 0,25,26
 715 -288 715 -288 708 -288 c 0,27,28
 700 -288 700 -288 695 -284 c 1,29,30
 695 -285 695 -285 694 -284 c 2,31,-1
 98 -29 l 2,32,33
 95 -28 95 -28 94 -27 c 0,34,35
 85 -22 85 -22 81 -15 c 1,36,37
 78 -7.5 78 -7.5 78 -0 c 0,0,1
98 216 m 2,38,-1
 626 441 l 1,39,-1
 98 667 l 2,40,41
 95 668 95 668 94 669 c 0,42,43
 85 674 85 674 81 681 c 1,44,45
 78 688.5 78 688.5 78 696 c 0,46,47
 78 701 78 701 79 704 c 0,48,49
 86 728 86 728 111 728 c 0,50,51
 115 728 115 728 123 726 c 1,52,-1
 720 471 l 2,53,54
 739 462 739 462 739 441 c 0,55,56
 739 430 739 430 734 423 c 0,57,58
 729 415 729 415 720 412 c 2,59,-1
 124 157 l 2,60,61
 119 154 119 154 111 154 c 0,62,63
 82 156 82 156 78 183 c 1,64,-1
 78 186 l 2,65,66
 78 207 78 207 98 216 c 2,38,-1
EndSplineSet
Validated: 1
EndChar

StartChar: leftarrow
Encoding: 8592 8592 66
Width: 1027
VWidth: 1000
Flags: W
HStem: 219 63<175 978.792>
VStem: 216 50<67.1887 120.246>
LayerCount: 2
Fore
SplineSet
175 219 m 1,0,1
 217 183 217 183 240.5 143 c 128,-1,2
 264 103 264 103 266 86 c 1,3,-1
 266 84 l 2,4,5
 266 73 266 73 258 67 c 128,-1,6
 250 61 250 61 241 61 c 0,7,8
 224 61 224 61 216 78 c 0,9,10
 207 98 207 98 200.5 109.5 c 128,-1,11
 194 121 194 121 177 145.5 c 128,-1,12
 160 170 160 170 134 190 c 128,-1,13
 108 210 108 210 76 224 c 0,14,15
 71 226 71 226 66 228 c 128,-1,16
 61 230 61 230 58.5 231.5 c 128,-1,17
 56 233 56 233 54 234 c 0,18,19
 49 238 49 238 47 247 c 1,20,-1
 47 251 l 2,21,22
 47 260 47 260 52 265 c 0,23,24
 56 269 56 269 72 276 c 0,25,26
 165 316 165 316 211 412 c 0,27,28
 221 433 221 433 228 437 c 0,29,30
 229 438 229 438 230 438 c 0,31,32
 234 440 234 440 241 440 c 0,33,34
 249 440 249 440 257.5 434.5 c 128,-1,35
 266 429 266 429 266 417 c 2,36,-1
 266 415 l 1,37,38
 264 397 264 397 239.5 357 c 128,-1,39
 215 317 215 317 175 282 c 1,40,-1
 935 282 l 2,41,42
 950 282 950 282 960 279 c 0,43,44
 980 272 980 272 980 250 c 0,45,46
 980 227 980 227 958 221 c 0,47,48
 950 219 950 219 935 219 c 2,49,-1
 175 219 l 1,0,1
EndSplineSet
Validated: 1
EndChar

StartChar: xor
Encoding: 8891 8891 67
Width: 643
Flags: W
HStem: -10 64<49.4238 592.125>
LayerCount: 2
Fore
SplineSet
48 23 m 0,0,1
 48 34 48 34 56 42 c 0,2,3
 65 52 65 52 77 54 c 1,4,-1
 78 54 l 1,5,-1
 565 54 l 1,6,-1
 566 54 l 1,7,8
 580 49 580 49 587 41 c 0,9,10
 594 32 594 32 594 23 c 0,11,12
 594 12 594 12 586.5 2.5 c 128,-1,13
 579 -7 579 -7 566 -10 c 1,14,-1
 565 -10 l 1,15,-1
 78 -10 l 1,16,-1
 77 -10 l 1,17,18
 48 -4 48 -4 48 23 c 0,0,1
51 699 m 2,19,20
 49 703 49 703 49 704 c 128,-1,21
 49 705 49 705 48.5 707 c 128,-1,22
 48 709 48 709 48 712 c 0,23,24
 47 718 47 718 51 725 c 0,25,26
 61 743 61 743 81 743 c 0,27,28
 92 743 92 743 99 738 c 0,29,30
 104 735 104 735 108 727 c 2,31,-1
 322 302 l 1,32,-1
 534 727 l 1,33,-1
 535 729 l 2,34,35
 536 731 536 731 537.5 732.5 c 128,-1,36
 539 734 539 734 541.5 736.5 c 128,-1,37
 544 739 544 739 547 740 c 0,38,39
 554.5 743 554.5 743 562 743 c 0,40,41
 580 743 580 743 590 725 c 0,42,43
 594 717 594 717 594 712 c 0,44,45
 594 708 594 708 593.5 705 c 2,46,-1
 593 702 l 2,47,48
 593 700 593 700 592 699 c 2,49,-1
 350 214 l 2,50,51
 342 198 342 198 322 198 c 0,52,53
 315 198 315 198 305 203 c 0,54,55
 296 208 296 208 294 215 c 1,56,-1
 51 699 l 2,19,20
EndSplineSet
Validated: 1
EndChar

StartChar: multiopenleft
Encoding: 8907 8907 68
Width: 818
Flags: W
LayerCount: 2
Fore
SplineSet
48 -1 m 128,-1,1
 48 4 48 4 49 7 c 0,2,3
 52 15 52 15 57 22 c 1,4,-1
 364 344 l 1,5,-1
 58 667 l 2,6,7
 53 672 53 672 51 676 c 0,8,9
 48 684 48 684 48 689 c 128,-1,10
 48 694 48 694 49 697 c 0,11,12
 56 721 56 721 81 721 c 0,13,14
 93 721 93 721 101 714 c 2,15,-1
 103 712 l 1,16,-1
 761 22 l 1,17,18
 769 11 769 11 769 -1 c 0,19,20
 769 -6 769 -6 768 -9 c 0,21,22
 761 -33 761 -33 736 -33 c 0,23,24
 732 -33 732 -33 728 -32 c 0,25,26
 720 -30 720 -30 714 -23 c 2,27,-1
 409 298 l 1,28,-1
 103 -23 l 1,29,30
 94 -30 94 -30 89 -32 c 0,31,32
 87 -33 87 -33 81 -33 c 0,33,34
 55 -30 55 -30 49 -9 c 0,35,0
 48 -6 48 -6 48 -1 c 128,-1,1
EndSplineSet
Validated: 1
EndChar

StartChar: revsimilar
Encoding: 8765 8765 69
Width: 818
Flags: W
HStem: 121 82<161.468 310.407> 309 82<506.593 655.532>
VStem: 48 51<269.973 385.685> 718 51<126.315 242.027>
LayerCount: 2
Fore
SplineSet
48 346 m 2,0,-1
 48 355 l 1,1,2
 53 380 53 380 64 388 c 0,3,4
 68 391 68 391 74 391 c 0,5,6
 81 391 81 391 87 386 c 0,7,8
 97 376 97 376 99 355 c 1,9,-1
 99 354 l 2,10,11
 99 293 99 293 137 248 c 128,-1,12
 175 203 175 203 233 203 c 0,13,14
 270 203 270 203 306 222.5 c 128,-1,15
 342 242 342 242 372 269.5 c 128,-1,16
 402 297 402 297 433 324.5 c 128,-1,17
 464 352 464 352 503 371.5 c 128,-1,18
 542 391 542 391 584 391 c 0,19,20
 668 391 668 391 718.5 321 c 128,-1,21
 769 251 769 251 769 166 c 2,22,-1
 769 157 l 1,23,24
 764 132 764 132 753 124 c 0,25,26
 748 121 748 121 743 121 c 0,27,28
 736 121 736 121 730 126 c 0,29,30
 720 136 720 136 718 157 c 1,31,-1
 718 158 l 2,32,33
 718 219 718 219 680 264 c 128,-1,34
 642 309 642 309 584 309 c 0,35,36
 547 309 547 309 511 289.5 c 128,-1,37
 475 270 475 270 445 242.5 c 128,-1,38
 415 215 415 215 384 187.5 c 128,-1,39
 353 160 353 160 314 140.5 c 128,-1,40
 275 121 275 121 233 121 c 0,41,42
 149 121 149 121 98.5 191 c 128,-1,43
 48 261 48 261 48 346 c 2,0,-1
EndSplineSet
Validated: 1
EndChar

StartChar: squareminus
Encoding: 8863 8863 70
Width: 818
Flags: W
HStem: -10 64<112 705> 330 64<112 705> 669 64<112 705>
VStem: 48 64<54 330 394 669> 705 64<54 330 394 669>
LayerCount: 2
Fore
SplineSet
48 703 m 2,0,1
 48 713 48 713 55 721 c 0,2,3
 64 730 64 730 77 733 c 1,4,-1
 78 733 l 1,5,-1
 739 733 l 2,6,7
 749 733 749 733 757 726 c 0,8,9
 767 717 767 717 769 705 c 1,10,-1
 769 704 l 1,11,-1
 769 20 l 2,12,13
 769 8 769 8 760 0 c 0,14,15
 753 -7 753 -7 741 -10 c 1,16,-1
 740 -10 l 1,17,-1
 79 -10 l 2,18,19
 69 -10 69 -10 61 -3 c 0,20,21
 50 7 50 7 48 18 c 1,22,-1
 48 19 l 1,23,-1
 48 703 l 2,0,1
112 54 m 1,24,-1
 705 54 l 1,25,-1
 705 330 l 1,26,-1
 112 330 l 1,27,-1
 112 54 l 1,24,-1
112 394 m 1,28,-1
 705 394 l 1,29,-1
 705 669 l 1,30,-1
 112 669 l 1,31,-1
 112 394 l 1,28,-1
EndSplineSet
Validated: 1
EndChar

StartChar: harpoondownleft
Encoding: 8643 8643 71
Width: 438
Flags: W
VStem: 188 64<-77 711.202>
LayerCount: 2
Fore
SplineSet
39 -48 m 1,0,-1
 39 8 l 1,1,-1
 52 5 l 1,2,3
 128 -18 128 -18 188 -77 c 1,4,-1
 188 689 l 2,5,6
 188 702 188 702 197.5 711.5 c 128,-1,7
 207 721 207 721 220 721 c 0,8,9
 234 721 234 721 243 711.5 c 128,-1,10
 252 702 252 702 252 689 c 2,11,-1
 252 -209 l 1,12,-1
 214 -209 l 1,13,-1
 211 -203 l 1,14,15
 159 -96 159 -96 45 -50 c 1,16,-1
 39 -48 l 1,0,-1
EndSplineSet
Validated: 1
EndChar

StartChar: greaterorsimilar
Encoding: 8819 8819 72
Width: 818
Flags: W
HStem: -262 82<506.593 655.532> -75 82<161.468 310.407> 143 62<79.6194 98>
VStem: 48 51<-256.746 -143.151> 718 51<-111.849 1.74634>
LayerCount: 2
Fore
SplineSet
48 -226 m 1,0,-1
 48 -217 l 2,1,2
 48 -132 48 -132 98.5 -62.5 c 128,-1,3
 149 7 149 7 233 7 c 0,4,5
 275 7 275 7 314 -12.5 c 128,-1,6
 353 -32 353 -32 384 -59 c 128,-1,7
 415 -86 415 -86 445 -113.5 c 128,-1,8
 475 -141 475 -141 511 -160.5 c 128,-1,9
 547 -180 547 -180 584 -180 c 0,10,11
 642 -180 642 -180 680 -135.5 c 128,-1,12
 718 -91 718 -91 718 -30 c 2,13,-1
 718 -29 l 1,14,15
 721 -6 721 -6 730 2 c 0,16,17
 735 7 735 7 743 7 c 1,18,19
 750 6 750 6 753 4 c 0,20,21
 767 -3 767 -3 769 -29 c 1,22,-1
 769 -38 l 2,23,24
 769 -123 769 -123 718.5 -192.5 c 128,-1,25
 668 -262 668 -262 584 -262 c 0,26,27
 542 -262 542 -262 503 -242.5 c 128,-1,28
 464 -223 464 -223 433 -195.5 c 128,-1,29
 402 -168 402 -168 372 -141 c 128,-1,30
 342 -114 342 -114 306 -94.5 c 128,-1,31
 270 -75 270 -75 233 -75 c 0,32,33
 175 -75 175 -75 137 -120 c 128,-1,34
 99 -165 99 -165 99 -225 c 2,35,-1
 99 -226 l 1,36,37
 96 -249 96 -249 87 -257 c 0,38,39
 82 -262 82 -262 74 -262 c 0,40,41
 69 -262 69 -262 64 -259 c 0,42,43
 50 -249 50 -249 48 -226 c 1,0,-1
98 205 m 2,44,-1
 633 462 l 1,45,-1
 95 720 l 1,46,-1
 93 721.5 l 2,47,48
 91 723 91 723 88 725 c 128,-1,49
 85 727 85 727 83 731 c 0,50,51
 78 739 78 739 78 749 c 1,52,53
 77 755 77 755 81 762 c 0,54,55
 91 780 91 780 111 780 c 0,56,57
 114 780 114 780 122 778 c 1,58,-1
 123 778 l 1,59,-1
 723 489 l 1,60,-1
 725 488 l 2,61,62
 727 487 727 487 729.5 485 c 128,-1,63
 732 483 732 483 734 480 c 0,64,65
 739 472 739 472 739 462 c 0,66,67
 739 445 739 445 726 435 c 0,68,69
 725 434 725 434 724 434 c 0,70,71
 723 433 723 433 722 433 c 0,72,73
 721 432 721 432 720 432 c 2,74,-1
 124 146 l 2,75,76
 119 143 119 143 111 143 c 0,77,78
 82 145 82 145 78 172 c 1,79,-1
 78 175 l 2,80,81
 78 196 78 196 98 205 c 2,44,-1
EndSplineSet
Validated: 1
EndChar

StartChar: squareoriginal
Encoding: 8848 8848 73
Width: 818
Flags: W
HStem: -63 64<58.4238 698> 510 64<57.9492 698>
VStem: 698 64<1 510>
LayerCount: 2
Fore
SplineSet
57 -32 m 2,0,1
 57 -18 57 -18 65 -9.5 c 128,-1,2
 73 -1 73 -1 84 1 c 1,3,-1
 85 1 l 1,4,-1
 698 1 l 1,5,-1
 698 510 l 1,6,-1
 85 510 l 1,7,-1
 84 510 l 1,8,9
 57 514 57 514 57 541 c 2,10,-1
 57 543 l 1,11,-1
 57 548 l 1,12,13
 59 557 59 557 64 563 c 0,14,15
 72 572 72 572 84 574 c 1,16,-1
 85 574 l 1,17,-1
 731 574 l 2,18,19
 741 574 741 574 749 567 c 0,20,21
 756 561 756 561 761 548 c 1,22,-1
 762 547 l 1,23,-1
 762 -34 l 1,24,25
 760 -47 760 -47 752 -54 c 0,26,27
 743 -61 743 -61 733 -63 c 1,28,-1
 732 -63 l 1,29,-1
 85 -63 l 1,30,-1
 84 -63 l 1,31,32
 71 -60 71 -60 64 -52 c 0,33,34
 59 -46 59 -46 57 -37 c 1,35,36
 57 -32 l 2,0,1
EndSplineSet
Validated: 1
EndChar

StartChar: trianglesolid
Encoding: 9650 9650 74
Width: 743
Flags: W
LayerCount: 2
Fore
SplineSet
78 -0 m 2,0,1
 78 4 l 1,2,3
 78 7 l 1,4,5
 79 9 l 2,6,7
 79 10 79 10 80 12 c 2,8,-1
 342 582 l 2,9,10
 351 602 351 602 372 602 c 0,11,12
 381 602 381 602 387 598 c 0,13,14
 394 594 394 594 401 582 c 1,15,-1
 663 12 l 2,16,17
 665 6 665 6 665 4 c 2,18,19
 665 2 l 1,20,-1
 665 -0 l 2,21,22
 665 -26 665 -26 639 -33 c 1,23,-1
 637 -33 l 1,24,-1
 107 -33 l 1,25,-1
 105 -33 l 1,26,27
 78 -25 78 -25 78 -0 c 2,0,1
EndSplineSet
Validated: 1
EndChar

StartChar: subseteq
Encoding: 8838 8838 75
Width: 799
VWidth: 1000
Flags: W
HStem: -164 63<99.6746 721.043> 39 63<290.441 721.043> 599 63<290.211 721.043>
VStem: 76 63<249.963 451.14>
LayerCount: 2
Fore
SplineSet
401 599 m 2,0,1
 290 599 290 599 214.5 526.5 c 128,-1,2
 139 454 139 454 139 350 c 0,3,4
 139 248 139 248 214.5 175 c 128,-1,5
 290 102 290 102 401 102 c 2,6,-1
 677 102 l 2,7,8
 692 102 692 102 702 99 c 0,9,10
 722 91 722 91 722 72 c 2,11,-1
 722 70 l 2,12,13
 722 49 722 49 702 42 c 0,14,15
 693 39 693 39 677 39 c 2,16,-1
 397 39 l 2,17,18
 268 39 268 39 172 128.5 c 128,-1,19
 76 218 76 218 76 351 c 0,20,21
 76 482 76 482 171.5 572 c 128,-1,22
 267 662 267 662 397 662 c 2,23,-1
 677 662 l 2,24,25
 692 662 692 662 702 659 c 0,26,27
 722 651 722 651 722 632 c 2,28,-1
 722 630 l 2,29,30
 722 609 722 609 702 602 c 0,31,32
 693 599 693 599 677 599 c 2,33,-1
 401 599 l 2,0,1
677 -101 m 2,34,35
 692 -101 692 -101 702 -104 c 0,36,37
 722 -112 722 -112 722 -131 c 2,38,-1
 722 -133 l 2,39,40
 722 -154 722 -154 702 -161 c 0,41,42
 693 -164 693 -164 677 -164 c 2,43,-1
 142 -164 l 2,44,45
 126 -164 126 -164 117 -161 c 0,46,47
 98 -154 98 -154 98 -132 c 1,48,49
 100 -111 100 -111 118 -104 c 0,50,51
 127 -101 127 -101 142 -101 c 2,52,-1
 677 -101 l 2,34,35
EndSplineSet
Validated: 1
EndChar

StartChar: rightanglesw
Encoding: 9492 9492 76
Width: 525
Flags: W
HStem: -33 65<112 475.612>
VStem: 48 64<32 394.66>
LayerCount: 2
Fore
SplineSet
48 -5 m 1,0,-1
 48 -4 l 1,1,-1
 48 367 l 1,2,-1
 48 368 l 1,3,4
 54 396 54 396 81 396 c 1,5,6
 91 397 91 397 99 390 c 1,7,8
 109 383 109 383 112 368 c 1,9,-1
 112 367 l 1,10,-1
 112 32 l 1,11,-1
 447 32 l 1,12,-1
 448 32 l 1,13,14
 477 26 477 26 477 -1 c 1,15,16
 478 -7 478 -7 474 -14 c 0,17,18
 466 -30 466 -30 448 -33 c 1,19,-1
 447 -33 l 1,20,-1
 79 -33 l 2,21,22
 69 -33 69 -33 61 -26 c 0,23,24
 50 -16 50 -16 48 -5 c 1,0,-1
EndSplineSet
Validated: 1
EndChar

StartChar: squaredot
Encoding: 8865 8865 77
Width: 818
Flags: W
HStem: -10 64<112 705> 295 135<362.627 456.373> 669 64<112 705>
VStem: 48 64<54 669> 342 135<315.111 409.373> 705 64<54 669>
LayerCount: 2
Fore
SplineSet
48 703 m 2,0,1
 48 713 48 713 55 721 c 0,2,3
 64 730 64 730 77 733 c 1,4,-1
 78 733 l 1,5,-1
 739 733 l 2,6,7
 749 733 749 733 757 726 c 0,8,9
 767 717 767 717 769 705 c 1,10,-1
 769 704 l 1,11,-1
 769 20 l 2,12,13
 769 8 769 8 760 0 c 0,14,15
 753 -7 753 -7 741 -10 c 1,16,-1
 740 -10 l 1,17,-1
 79 -10 l 2,18,19
 69 -10 69 -10 61 -3 c 0,20,21
 50 7 50 7 48 18 c 1,22,-1
 48 19 l 1,23,-1
 48 703 l 2,0,1
112 54 m 1,24,-1
 705 54 l 1,25,-1
 705 669 l 1,26,-1
 112 669 l 1,27,-1
 112 54 l 1,24,-1
410 430 m 128,-1,29
 438 430 438 430 457.5 410 c 128,-1,30
 477 390 477 390 477 362 c 128,-1,31
 477 334 477 334 457 314.5 c 128,-1,32
 437 295 437 295 410 295 c 0,33,34
 382 295 382 295 362 314.5 c 128,-1,35
 342 334 342 334 342 362 c 128,-1,36
 342 390 342 390 362 410 c 128,-1,28
 382 430 382 430 410 430 c 128,-1,29
EndSplineSet
Validated: 1
EndChar

StartChar: forcesbar
Encoding: 8874 8874 78
Width: 934
Flags: W
HStem: -10 21G<67.5 86.5 268.5 289 456.5 484> 324 64<502 885.45>
VStem: 48 64<-3.71777 719.125> 243 64<-8.59717 719.517> 437 65<-8.60352 324 388 719.125>
LayerCount: 2
Fore
SplineSet
48 19 m 1,0,-1
 48 692 l 1,1,-1
 48 693 l 1,2,3
 51 706 51 706 60.5 713.5 c 128,-1,4
 70 721 70 721 81 721 c 0,5,6
 91 721 91 721 99 714 c 0,7,8
 110 704 110 704 112 693 c 1,9,-1
 112 692 l 1,10,-1
 112 19 l 1,11,-1
 112 18 l 1,12,13
 109 5 109 5 99 -4 c 0,14,15
 92 -10 92 -10 81 -10 c 0,16,17
 54 -10 54 -10 48 18 c 1,18,-1
 48 19 l 1,0,-1
243 19 m 1,19,-1
 243 692 l 1,20,-1
 243 693 l 1,21,22
 250 714 250 714 264 719 c 0,23,24
 266 720 266 720 269 720 c 2,25,-1
 271.5 720.5 l 2,26,27
 274 721 274 721 275 721 c 0,28,29
 283 721 283 721 288 718 c 0,30,31
 304 710 304 710 307 693 c 1,32,-1
 307 692 l 1,33,-1
 307 19 l 1,34,-1
 307 18 l 1,35,36
 300 -8 300 -8 278 -10 c 1,37,-1
 275 -10 l 2,38,39
 262 -10 262 -10 253.5 -1.5 c 128,-1,40
 245 7 245 7 243 18 c 1,41,-1
 243 19 l 1,19,-1
437 19 m 1,42,-1
 437 692 l 1,43,-1
 437 693 l 1,44,45
 440 706 440 706 449.5 713.5 c 128,-1,46
 459 721 459 721 470 721 c 1,47,48
 476 722 476 722 483 718 c 0,49,50
 499 710 499 710 502 693 c 1,51,-1
 502 692 l 1,52,-1
 502 388 l 1,53,-1
 858 388 l 1,54,-1
 859 388 l 1,55,56
 877 383 877 383 884 369 c 0,57,58
 887 363 887 363 887 356 c 1,59,60
 886 351 886 351 886 350 c 0,61,62
 886 347 886 347 885 345 c 0,63,64
 879 327 879 327 859 324 c 1,65,-1
 858 324 l 1,66,-1
 502 324 l 1,67,-1
 502 19 l 1,68,-1
 502 18 l 1,69,70
 495 -8 495 -8 473 -10 c 1,71,-1
 470 -10 l 2,72,73
 443 -10 443 -10 437 18 c 1,74,-1
 437 19 l 1,42,-1
EndSplineSet
Validated: 1
EndChar

StartChar: arrowtailleft
Encoding: 8610 8610 79
Width: 1169
Flags: W
HStem: 223 65<173 962.738>
LayerCount: 2
Fore
SplineSet
54 247 m 1,0,-1
 35 256 l 1,1,-1
 54 265 l 2,2,3
 162 317 162 317 207 430 c 1,4,-1
 209 436 l 1,5,-1
 267 436 l 1,6,-1
 261 422 l 1,7,8
 231 348 231 348 173 288 c 1,9,-1
 935 288 l 1,10,11
 1013 342 1013 342 1048 430 c 1,12,-1
 1050 436 l 1,13,-1
 1108 436 l 1,14,-1
 1102 422 l 1,15,16
 1067 336 1067 336 999 274 c 1,17,-1
 999 237 l 1,18,19
 1067 175 1067 175 1102 89 c 1,20,-1
 1108 75 l 1,21,-1
 1050 75 l 1,22,-1
 1048 81 l 1,23,24
 1013 169 1013 169 935 223 c 1,25,-1
 173 223 l 1,26,27
 231 163 231 163 261 89 c 1,28,-1
 267 75 l 1,29,-1
 209 75 l 1,30,-1
 207 81 l 1,31,32
 162 193 162 193 54 247 c 1,0,-1
EndSplineSet
Validated: 1
EndChar

StartChar: multimap
Encoding: 8888 8888 80
Width: 1169
Flags: W
HStem: 77 64<876.089 1007.8> 223 65<49.418 771.248> 370 64<875.514 1008.37>
VStem: 1056 64<189.408 322.369>
CounterMasks: 1 e0
LayerCount: 2
Fore
SplineSet
48 256 m 0,0,1
 48 264 48 264 51 269 c 0,2,3
 59 285 59 285 77 288 c 1,4,-1
 78 288 l 1,5,-1
 766 288 l 1,6,7
 778 351 778 351 828 392.5 c 128,-1,8
 878 434 878 434 942 434 c 0,9,10
 1015 434 1015 434 1067.5 381.5 c 128,-1,11
 1120 329 1120 329 1120 256 c 128,-1,12
 1120 183 1120 183 1067.5 130 c 128,-1,13
 1015 77 1015 77 942 77 c 0,14,15
 878 77 878 77 828 118.5 c 128,-1,16
 778 160 778 160 766 223 c 1,17,-1
 78 223 l 1,18,-1
 77 223 l 1,19,20
 48 229 48 229 48 256 c 0,0,1
942 141 m 128,-1,22
 988 141 988 141 1022 175.5 c 128,-1,23
 1056 210 1056 210 1056 256 c 128,-1,24
 1056 302 1056 302 1022 336 c 128,-1,25
 988 370 988 370 942 370 c 128,-1,26
 896 370 896 370 861.5 336 c 128,-1,27
 827 302 827 302 827 256 c 128,-1,28
 827 210 827 210 861.5 175.5 c 128,-1,21
 896 141 896 141 942 141 c 128,-1,22
EndSplineSet
Validated: 1
EndChar

StartChar: leq
Encoding: 8804 8804 81
Width: 799
VWidth: 1000
Flags: W
HStem: -164 63<77.1536 720.995> 642 20G<688 697>
LayerCount: 2
Fore
SplineSet
180 351 m 1,0,-1
 698 101 l 1,1,2
 710 95 l 1,3,4
 722 87 722 87 722 70 c 0,5,6
 722 58 722 58 713.5 48.5 c 128,-1,7
 705 39 705 39 690 39 c 0,8,9
 688 39 688 39 680 41 c 0,10,11
 674 43 674 43 667 47 c 2,12,-1
 100 320 l 1,13,-1
 95.5 322 l 2,14,15
 91 324 91 324 89 326 c 0,16,17
 76 336 76 336 76 350 c 2,18,-1
 76 354 l 2,19,20
 76 364 76 364 84 372 c 0,21,22
 86 374 86 374 102 383 c 1,23,-1
 669 655 l 1,24,-1
 671 656 l 2,25,26
 673 657 673 657 675.5 658 c 128,-1,27
 678 659 678 659 680 660 c 0,28,29
 685 662 685 662 691 662 c 0,30,31
 703 662 703 662 712.5 653.5 c 128,-1,32
 722 645 722 645 722 630 c 0,33,34
 722 616 722 616 713 608 c 0,35,36
 711 606 711 606 707.5 604 c 128,-1,37
 704 602 704 602 700.5 600.5 c 128,-1,38
 697 599 697 599 696 598 c 2,39,-1
 180 351 l 1,0,-1
121 -164 m 2,40,41
 106 -164 106 -164 96 -161 c 0,42,43
 76 -155 76 -155 76 -136 c 2,44,-1
 76 -133 l 2,45,46
 76 -110 76 -110 97 -104 c 0,47,48
 106 -101 106 -101 121 -101 c 2,49,-1
 677 -101 l 2,50,51
 690 -101 690 -101 701 -104 c 1,52,53
 722 -112 722 -112 722 -131 c 2,54,-1
 722 -133 l 2,55,56
 722 -154 722 -154 702 -161 c 0,57,58
 693 -164 693 -164 677 -164 c 2,59,-1
 121 -164 l 2,40,41
EndSplineSet
Validated: 1
EndChar

StartChar: triangleleft
Encoding: 8883 8883 82
Width: 818
Flags: W
VStem: 675 64<20 491>
LayerCount: 2
Fore
SplineSet
79 256 m 0,0,1
 79 260 79 260 80 263 c 0,2,3
 84 278 84 278 95 283 c 2,4,-1
 695 572 l 2,5,6
 699 574 699 574 708 574 c 128,-1,7
 717 574 717 574 726 568 c 0,8,9
 737 560 737 560 739 547 c 1,10,-1
 739 546 l 1,11,-1
 739 -35 l 1,12,-1
 739 -36 l 1,13,14
 736 -48 736 -48 726 -57 c 1,15,16
 717 -63 717 -63 708 -63 c 0,17,18
 704 -63 704 -63 701 -62.5 c 2,19,-1
 698 -62 l 2,20,21
 697 -62 697 -62 695 -61 c 2,22,-1
 98 227 l 1,23,24
 83 233 83 233 80 248 c 0,25,26
 79 251 79 251 79 256 c 0,0,1
185 256 m 1,27,-1
 675 20 l 1,28,-1
 675 491 l 1,29,-1
 185 256 l 1,27,-1
EndSplineSet
Validated: 1
EndChar

StartChar: ringinequal
Encoding: 8790 8790 83
Width: 818
Flags: W
HStem: 120 64<49.7627 305 344.205 474.841 513 762.78> 328 64<49.4062 305 343.339 472.836 513 760.749>
VStem: 282 45<200.453 311.567> 490 45<198.657 311.8>
LayerCount: 2
Fore
SplineSet
48 152 m 0,0,1
 48 163 48 163 56 172 c 0,2,3
 65 181 65 181 76 184 c 1,4,-1
 78 184 l 1,5,-1
 305 184 l 1,6,7
 282 216 282 216 282 256 c 128,-1,8
 282 296 282 296 305 328 c 1,9,-1
 78 328 l 1,10,-1
 77 328 l 1,11,12
 64 331 64 331 58 337 c 0,13,14
 48 346 48 346 48 359 c 2,15,-1
 48 367 l 1,16,17
 50 371 50 371 51 372 c 0,18,19
 58 386 58 386 76 392 c 1,20,-1
 78 392 l 1,21,-1
 740 392 l 1,22,-1
 742 392 l 1,23,24
 769 383 769 383 769 359 c 0,25,26
 769 346 769 346 761 338 c 128,-1,27
 753 330 753 330 741 328 c 1,28,-1
 740 328 l 1,29,-1
 513 328 l 1,30,31
 535 296 535 296 535 256 c 0,32,33
 535 217 535 217 513 184 c 1,34,-1
 740 184 l 1,35,-1
 742 184 l 1,36,37
 756 179 756 179 763 170 c 0,38,39
 769 161 769 161 769 152 c 1,40,41
 768 147 768 147 768 146 c 0,42,43
 768 143 768 143 767 141 c 0,44,45
 761 123 761 123 741 120 c 1,46,-1
 740 120 l 1,47,-1
 78 120 l 1,48,-1
 77 120 l 1,49,50
 61 124 61 124 53 136 c 0,51,52
 48 144 48 144 48 152 c 0,0,1
371 184 m 1,53,-1
 447 184 l 1,54,55
 490 206 490 206 490 256 c 0,56,57
 490 278 490 278 478 298 c 128,-1,58
 466 318 466 318 447 328 c 1,59,-1
 371 328 l 1,60,61
 327 304 327 304 327 256 c 0,62,63
 327 234 327 234 339 214 c 128,-1,64
 351 194 351 194 371 184 c 1,53,-1
EndSplineSet
Validated: 1
EndChar

StartChar: sphericalangle
Encoding: 8738 8738 84
Width: 759
Flags: W
VStem: 545 64<113.151 397.911>
LayerCount: 2
Fore
SplineSet
48 256 m 0,0,1
 48 261 48 261 49 264 c 0,2,3
 51 272 51 272 59 279 c 0,4,5
 62 282 62 282 66 283 c 2,6,-1
 667 573 l 2,7,8
 673 575 673 575 675 575 c 2,9,10
 677 575 l 1,11,12
 679 575 l 2,13,14
 691 575 691 575 700.5 566 c 128,-1,15
 710 557 710 557 710 544 c 0,16,17
 710 536 710 536 704 525 c 0,18,19
 699 517 699 517 694 515 c 2,20,-1
 570 456 l 1,21,22
 609 360 609 360 609 256 c 0,23,24
 609 151 609 151 570 55 c 1,25,-1
 692 -3 l 1,26,27
 710 -13 710 -13 710 -33 c 0,28,29
 710 -38 710 -38 709 -41 c 0,30,31
 704 -58 704 -58 687 -63 c 0,32,33
 684 -64 684 -64 679 -64 c 2,34,-1
 675 -64 l 1,35,36
 672 -64 l 1,37,38
 671 -63.5 l 1,39,-1
 670 -63 l 2,40,41
 669 -63 669 -63 667 -62 c 2,42,-1
 69 227 l 2,43,44
 58 232 58 232 54 238 c 0,45,46
 48 246 48 246 48 256 c 0,0,1
154 256 m 1,47,-1
 512 84 l 1,48,49
 545 161 545 161 545 256 c 0,50,51
 545 350 545 350 512 427 c 1,52,-1
 154 256 l 1,47,-1
EndSplineSet
Validated: 1
EndChar

StartChar: sim
Encoding: 8764 8764 85
Width: 799
VWidth: 1000
Flags: W
HStem: 118 100<489.319 640.366> 282 100<157.634 308.681>
VStem: 47 54<121.348 226.218> 697 54<273.382 378.652>
LayerCount: 2
Fore
SplineSet
47 162 m 2,0,-1
 47 175 l 2,1,2
 47 256 47 256 97.5 319 c 128,-1,3
 148 382 148 382 228 382 c 0,4,5
 267 382 267 382 305 365 c 128,-1,6
 343 348 343 348 374 324 c 128,-1,7
 405 300 405 300 435 276 c 128,-1,8
 465 252 465 252 500 235 c 128,-1,9
 535 218 535 218 570 218 c 0,10,11
 619 218 619 218 657.5 253.5 c 128,-1,12
 696 289 696 289 697 339 c 0,13,14
 697 368 697 368 714 379 c 0,15,16
 720 382 720 382 724 382 c 0,17,18
 730 381 730 381 731 381 c 0,19,20
 751 374 751 374 751 339 c 2,21,-1
 751 326 l 2,22,23
 751 245 751 245 700.5 181.5 c 128,-1,24
 650 118 650 118 570 118 c 0,25,26
 531 118 531 118 493 135 c 128,-1,27
 455 152 455 152 424 176 c 128,-1,28
 393 200 393 200 363 224 c 128,-1,29
 333 248 333 248 298 265 c 128,-1,30
 263 282 263 282 228 282 c 0,31,32
 179 282 179 282 140.5 246.5 c 128,-1,33
 102 211 102 211 101 162 c 0,34,35
 101 132 101 132 84 121 c 0,36,37
 78 118 78 118 74 118 c 0,38,39
 68 119 68 119 67 119 c 0,40,41
 47 126 47 126 47 162 c 2,0,-1
EndSplineSet
Validated: 1
EndChar

StartChar: squaremultiply
Encoding: 8864 8864 86
Width: 818
Flags: W
HStem: -10 64<156 661> 669 64<156 661>
VStem: 48 64<102 621> 705 64<102 621>
LayerCount: 2
Fore
SplineSet
48 703 m 2,0,1
 48 713 48 713 55 721 c 0,2,3
 64 730 64 730 77 733 c 1,4,-1
 78 733 l 1,5,-1
 739 733 l 2,6,7
 749 733 749 733 757 726 c 0,8,9
 767 717 767 717 769 705 c 1,10,-1
 769 704 l 1,11,-1
 769 20 l 2,12,13
 769 8 769 8 760 0 c 0,14,15
 753 -7 753 -7 741 -10 c 1,16,-1
 740 -10 l 1,17,-1
 79 -10 l 2,18,19
 69 -10 69 -10 61 -3 c 0,20,21
 50 7 50 7 48 18 c 1,22,-1
 48 19 l 1,23,-1
 48 703 l 2,0,1
156 54 m 1,24,-1
 661 54 l 1,25,-1
 409 316 l 1,26,-1
 156 54 l 1,24,-1
112 102 m 1,27,-1
 364 361 l 1,28,-1
 112 621 l 1,29,-1
 112 102 l 1,27,-1
705 102 m 1,30,-1
 705 621 l 1,31,-1
 453 361 l 1,32,-1
 705 102 l 1,30,-1
409 407 m 1,33,-1
 661 669 l 1,34,-1
 156 669 l 1,35,-1
 409 407 l 1,33,-1
EndSplineSet
Validated: 1
EndChar

StartChar: dblarrowheadright
Encoding: 8608 8608 87
Width: 1051
Flags: W
HStem: 223 65<58.3132 685 737.531 878>
LayerCount: 2
Fore
SplineSet
48 256 m 0,0,1
 48 269 48 269 57.5 278.5 c 128,-1,2
 67 288 67 288 81 288 c 2,3,-1
 685 288 l 1,4,5
 627 348 627 348 597 422 c 1,6,-1
 591 436 l 1,7,-1
 649 436 l 1,8,-1
 651 430 l 1,9,10
 688 342 688 342 765 288 c 1,11,-1
 878 288 l 1,12,13
 821 346 821 346 791 422 c 1,14,-1
 785 436 l 1,15,-1
 843 436 l 1,16,-1
 845 430 l 1,17,18
 891 317 891 317 997 265 c 1,19,-1
 1016 256 l 1,20,-1
 997 247 l 1,21,22
 890 194 890 194 845 81 c 1,23,-1
 843 75 l 1,24,-1
 785 75 l 1,25,-1
 791 89 l 1,26,27
 821 165 821 165 878 223 c 1,28,-1
 765 223 l 1,29,30
 688 169 688 169 651 81 c 1,31,-1
 649 75 l 1,32,-1
 591 75 l 1,33,-1
 597 89 l 1,34,35
 627 163 627 163 685 223 c 1,36,-1
 81 223 l 2,37,38
 68 223 68 223 58 232.5 c 128,-1,39
 48 242 48 242 48 256 c 0,0,1
EndSplineSet
Validated: 1
EndChar

StartChar: arrowparrrightleft
Encoding: 8644 8644 88
Width: 1051
Flags: W
HStem: -11 21G<207 267> 138 65<173 989.719> 479 65<57.798 878>
LayerCount: 2
Fore
SplineSet
54 161 m 2,0,-1
 35 170 l 1,1,-1
 54 179 l 2,2,3
 162 231 162 231 207 345 c 1,4,-1
 209 351 l 1,5,-1
 267 351 l 1,6,-1
 261 337 l 1,7,8
 230 260 230 260 173 203 c 1,9,-1
 972 203 l 2,10,11
 981 203 981 203 990 197 c 0,12,13
 1003 187 1003 187 1003 170 c 0,14,15
 1003 157 1003 157 994 147.5 c 128,-1,16
 985 138 985 138 972 138 c 2,17,-1
 173 138 l 1,18,19
 232 78 232 78 261 3 c 1,20,-1
 267 -11 l 1,21,-1
 209 -11 l 1,22,-1
 207 -5 l 1,23,24
 162 109 162 109 54 161 c 2,0,-1
48 512 m 128,-1,26
 48 525 48 525 57.5 534.5 c 128,-1,27
 67 544 67 544 81 544 c 2,28,-1
 878 544 l 1,29,30
 821 602 821 602 791 678 c 1,31,-1
 785 692 l 1,32,-1
 843 692 l 1,33,-1
 845 686 l 1,34,35
 891 573 891 573 997 521 c 1,36,-1
 1016 512 l 1,37,-1
 997 503 l 1,38,39
 890 451 890 451 845 337 c 1,40,-1
 843 331 l 1,41,-1
 785 331 l 1,42,-1
 791 345 l 1,43,44
 821 421 821 421 878 479 c 1,45,-1
 81 479 l 2,46,47
 67 479 67 479 57.5 489 c 128,-1,25
 48 499 48 499 48 512 c 128,-1,26
EndSplineSet
Validated: 1
EndChar

StartChar: equalsdots
Encoding: 8785 8785 89
Width: 818
Flags: W
HStem: -129 145<358.174 459.342> 120 64<49.7627 762.78> 328 64<49.4062 760.749> 495 145<358.174 459.342>
VStem: 336 145<-106.826 -5.65845 516.658 617.826>
LayerCount: 2
Fore
SplineSet
409 16 m 128,-1,1
 439 16 439 16 460 -5 c 128,-1,2
 481 -26 481 -26 481 -56 c 128,-1,3
 481 -86 481 -86 460 -107.5 c 128,-1,4
 439 -129 439 -129 409 -129 c 128,-1,5
 379 -129 379 -129 357.5 -107.5 c 128,-1,6
 336 -86 336 -86 336 -56 c 128,-1,7
 336 -26 336 -26 357.5 -5 c 128,-1,0
 379 16 379 16 409 16 c 128,-1,1
48 152 m 0,8,9
 48 163 48 163 56 172 c 0,10,11
 65 181 65 181 76 184 c 1,12,-1
 78 184 l 1,13,-1
 740 184 l 1,14,-1
 742 184 l 1,15,16
 756 179 756 179 763 170 c 0,17,18
 769 161 769 161 769 152 c 1,19,20
 768 147 768 147 768 146 c 0,21,22
 768 143 768 143 767 141 c 0,23,24
 761 123 761 123 741 120 c 1,25,-1
 740 120 l 1,26,-1
 78 120 l 1,27,-1
 77 120 l 1,28,29
 61 124 61 124 53 136 c 0,30,31
 48 144 48 144 48 152 c 0,8,9
48 359 m 2,32,33
 48 367 l 1,34,35
 50 371 50 371 51 372 c 0,36,37
 58 386 58 386 76 392 c 1,38,-1
 78 392 l 1,39,-1
 740 392 l 1,40,-1
 742 392 l 1,41,42
 769 383 769 383 769 359 c 0,43,44
 769 346 769 346 761 338 c 128,-1,45
 753 330 753 330 741 328 c 1,46,-1
 740 328 l 1,47,-1
 78 328 l 1,48,-1
 77 328 l 1,49,50
 64 331 64 331 58 337 c 0,51,52
 48 346 48 346 48 359 c 2,32,33
409 640 m 128,-1,54
 439 640 439 640 460 618.5 c 128,-1,55
 481 597 481 597 481 567 c 128,-1,56
 481 537 481 537 460 516 c 128,-1,57
 439 495 439 495 409 495 c 128,-1,58
 379 495 379 495 357.5 516 c 128,-1,59
 336 537 336 537 336 567 c 128,-1,60
 336 597 336 597 357.5 618.5 c 128,-1,53
 379 640 379 640 409 640 c 128,-1,54
EndSplineSet
Validated: 1
EndChar

StartChar: primereverse
Encoding: 8245 8245 90
Width: 285
Flags: W
VStem: 2 262
LayerCount: 2
Fore
SplineSet
8 489 m 2,0,1
 2 505 2 505 2 517 c 0,2,3
 2 545 2 545 23.5 563.5 c 128,-1,4
 45 582 45 582 73 582 c 0,5,6
 96 582 96 582 113.5 568 c 128,-1,7
 131 554 131 554 137 532 c 2,8,-1
 264 68 l 1,9,-1
 264 67 l 1,10,11
 262 52 262 52 255 46 c 1,12,13
 252 45 252 45 251 44 c 2,14,-1
 219 33 l 1,15,-1
 214 33 l 2,16,17
 202 33 202 33 196 42 c 1,18,-1
 195 43 l 1,19,-1
 8 489 l 2,0,1
EndSplineSet
Validated: 1
EndChar

StartChar: triangleleftequal
Encoding: 8884 8884 91
Width: 818
Flags: W
HStem: -168 64<80.4028 737.886>
VStem: 675 64<124 594>
LayerCount: 2
Fore
SplineSet
79 -136 m 2,0,1
 79 -123 79 -123 87.5 -114.5 c 128,-1,2
 96 -106 96 -106 107 -104 c 1,3,-1
 108 -104 l 1,4,-1
 711 -104 l 1,5,-1
 712 -104 l 1,6,7
 739 -110 739 -110 739 -136 c 128,-1,8
 739 -162 739 -162 712 -168 c 1,9,-1
 711 -168 l 1,10,-1
 108 -168 l 1,11,-1
 107 -168 l 1,12,13
 81 -161 81 -161 79 -139 c 1,14,-1
 79 -136 l 2,0,1
79 359 m 0,15,16
 79 366 79 366 82 373 c 0,17,18
 86 383 86 383 95 387 c 2,19,-1
 695 676 l 2,20,21
 699 678 699 678 708 678 c 0,22,23
 718 678 718 678 726 671 c 0,24,25
 737 661 737 661 739 650 c 1,26,-1
 739 649 l 1,27,-1
 739 69 l 1,28,-1
 739 68 l 1,29,30
 734 54 734 54 726 47 c 0,31,32
 717 40 717 40 708 40 c 0,33,34
 704 40 704 40 701 40.5 c 2,35,-1
 698 41 l 2,36,37
 697 41 697 41 695 42 c 2,38,-1
 98 330 l 1,39,40
 83 336 83 336 80 351 c 0,41,42
 79 354 79 354 79 359 c 0,15,16
185 359 m 1,43,-1
 675 124 l 1,44,-1
 675 594 l 1,45,-1
 185 359 l 1,43,-1
EndSplineSet
Validated: 1
EndChar

StartChar: greaterlessequal
Encoding: 8923 8923 92
Width: 796
Flags: W
HStem: 88 61<668.612 716.394> 222 64<79.4238 716.576>
LayerCount: 2
Fore
SplineSet
78 -38 m 0,0,1
 78 -28 78 -28 81 -23 c 0,2,3
 85 -16 85 -16 94 -11 c 0,4,5
 95 -10 95 -10 96.4536 -9.9072 c 0,6,7
 98 -9 98 -9 99 -9 c 2,8,-1
 675 147 l 2,9,10
 679 149 679 149 683 149 c 2,11,-1
 685 149 l 1,12,13
 711 146 711 146 717 125 c 0,14,15
 718 122 718 122 718 117 c 0,16,17
 718 109 718 109 715 104 c 0,18,19
 709 91 709 91 697 88 c 2,20,-1
 198 -38 l 1,21,-1
 697 -163 l 1,22,23
 712 -172 712 -172 715 -179 c 0,24,25
 718 -185 718 -185 718 -192 c 0,26,27
 718 -204 718 -204 708 -214.5 c 128,-1,28
 698 -225 698 -225 685 -225 c 0,29,30
 681 -225 681 -225 678 -224 c 0,31,32
 675 -224 675 -224 674 -223 c 0,33,34
 673 -223 673 -223 672 -222 c 2,35,-1
 99 -68 l 1,36,37
 93 -68 93 -68 85 -59 c 0,38,39
 78 -51 78 -51 78 -38 c 0,0,1
78 255 m 0,40,41
 78 266 78 266 86 274 c 0,42,43
 95 284 95 284 107 286 c 1,44,-1
 108 286 l 1,45,-1
 688 286 l 1,46,-1
 689 286 l 1,47,48
 702 283 702 283 710 274 c 0,49,50
 718 266 718 266 718 255 c 0,51,52
 718 228 718 228 689 222 c 1,53,-1
 688 222 l 1,54,-1
 108 222 l 1,55,-1
 107 222 l 1,56,57
 78 228 78 228 78 255 c 0,40,41
99 422 m 2,58,-1
 598 548 l 1,59,-1
 99 674 l 2,60,61
 95 675 95 675 94 676 c 0,62,63
 85 681 85 681 81 688 c 1,64,65
 78 695.5 78 695.5 78 703 c 0,66,67
 78 708 78 708 79 711 c 0,68,69
 86 735 86 735 111 735 c 0,70,71
 114 735 114 735 122 733 c 2,72,-1
 697 578 l 2,73,74
 716 572 716 572 718 551 c 1,75,-1
 718 548 l 2,76,77
 718 540 718 540 715 535 c 0,78,79
 709 523 709 523 697 519 c 2,80,-1
 121 363 l 2,81,82
 117 361 117 361 113 361 c 2,83,-1
 111 361 l 1,84,85
 85 364 85 364 79 385 c 0,86,87
 78 388 78 388 78 393 c 0,88,89
 78 403 78 403 81 408 c 0,90,91
 85 415 85 415 94 420 c 0,92,93
 95 421 95 421 96.4536 421.093 c 0,94,95
 98 422 98 422 99 422 c 2,58,-1
EndSplineSet
Validated: 1
EndChar

StartChar: frown
Encoding: 8994 8994 93
Width: 818
Flags: W
HStem: 334 64<296.85 520.888>
VStem: 48 61<116.066 167.796> 708 61<131.188 167.796>
LayerCount: 2
Fore
SplineSet
53 162 m 0,0,1
 105 266 105 266 200.5 332 c 128,-1,2
 296 398 296 398 409 398 c 128,-1,3
 522 398 522 398 617 332 c 128,-1,4
 712 266 712 266 764 162 c 0,5,6
 768 154 768 154 769 148 c 1,7,-1
 769 145 l 2,8,9
 769 137 769 137 766 131 c 0,10,11
 757 114 757 114 737 114 c 128,-1,12
 717 114 717 114 708 130 c 0,13,14
 663 220 663 220 583 277 c 128,-1,15
 503 334 503 334 409 334 c 128,-1,16
 315 334 315 334 234 277 c 128,-1,17
 153 220 153 220 109 130 c 1,18,19
 100 114 100 114 81 114 c 1,20,21
 61 116 61 116 54 127 c 1,22,23
 48 134.5 48 134.5 48 145 c 0,24,25
 48 150 48 150 53 162 c 0,0,1
EndSplineSet
Validated: 1
EndChar

StartChar: lless
Encoding: 8810 8810 94
Width: 1027
VWidth: 1000
Flags: W
LayerCount: 2
Fore
SplineSet
144 250 m 1,0,-1
 644 -27 l 1,1,2
 648.5 -29.5 l 2,3,4
 653 -32 653 -32 655 -34 c 0,5,6
 667 -44 667 -44 667 -58 c 0,7,8
 667 -64 667 -64 664 -72 c 0,9,10
 658 -85 658 -85 643 -88 c 2,11,-1
 640.5 -88.5 l 2,12,13
 638 -89 638 -89 636 -89 c 0,14,15
 621 -89 621 -89 612 -82 c 1,16,-1
 69 219 l 2,17,18
 59 225 59 225 54 231 c 0,19,20
 47 239 47 239 47 250 c 0,21,22
 47 264 47 264 59 274 c 0,23,24
 69 282 69 282 72 283 c 2,25,-1
 613 583 l 2,26,27
 625 590 625 590 636 590 c 0,28,29
 640 590 640 590 643 589 c 0,30,31
 645 588 645 588 646 588 c 0,32,33
 658 583 658 583 663 573 c 0,34,35
 667 566 667 566 667 559 c 0,36,37
 667 543 667 543 655 535 c 0,38,39
 652 532 652 532 642 527 c 2,40,-1
 144 250 l 1,0,-1
457 250 m 1,41,-1
 957 -27 l 1,42,-1
 961.5 -29.5 l 2,43,44
 966 -32 966 -32 968 -34 c 0,45,46
 980 -44 980 -44 980 -58 c 0,47,48
 980 -64 980 -64 977 -72 c 0,49,50
 971 -85 971 -85 956 -88 c 2,51,-1
 953.5 -88.5 l 2,52,53
 951 -89 951 -89 949 -89 c 0,54,55
 934 -89 934 -89 925 -82 c 1,56,-1
 382 219 l 2,57,58
 372 225 372 225 367 231 c 0,59,60
 360 239 360 239 360 250 c 0,61,62
 360 264 360 264 372 274 c 0,63,64
 382 282 382 282 385 283 c 2,65,-1
 926 583 l 2,66,67
 938 590 938 590 949 590 c 0,68,69
 953 590 953 590 956 589 c 0,70,71
 958 588 958 588 959 588 c 0,72,73
 971 583 971 583 976 573 c 0,74,75
 980 566 980 566 980 559 c 0,76,77
 980 543 980 543 968 535 c 0,78,79
 965 532 965 532 955 527 c 2,80,-1
 457 250 l 1,41,-1
EndSplineSet
Validated: 1
EndChar

StartChar: intercal
Encoding: 8890 8890 95
Width: 584
Flags: W
HStem: 343 108<59.3115 238 346 523.688>
VStem: 238 108<-217.551 343>
LayerCount: 2
Fore
SplineSet
238 343 m 1,0,-1
 99 343 l 1,1,2
 79 345 79 345 65 358.5 c 128,-1,3
 51 372 51 372 48 394 c 1,4,-1
 48 401 l 1,5,6
 54 445 54 445 99 451 c 1,7,-1
 484 451 l 1,8,9
 529 445 529 445 535 401 c 1,10,-1
 535 394 l 1,11,12
 533 374 533 374 519.5 360 c 128,-1,13
 506 346 506 346 484 343 c 1,14,-1
 346 343 l 1,15,-1
 346 -178 l 1,16,17
 343 -199 343 -199 329 -213 c 128,-1,18
 315 -227 315 -227 295 -228 c 1,19,-1
 290 -228 l 1,20,21
 267 -226 267 -226 253.5 -212 c 128,-1,22
 240 -198 240 -198 238 -178 c 1,23,-1
 238 343 l 1,0,-1
EndSplineSet
Validated: 1
EndChar

StartChar: squaresolid
Encoding: 9632 9632 96
Width: 818
Flags: W
HStem: -10 743<55.2822 767.5>
VStem: 48 721<-8.25 720.75>
LayerCount: 2
Fore
SplineSet
48 703 m 2,0,1
 48 713 48 713 55 721 c 0,2,3
 64 730 64 730 77 733 c 1,4,-1
 78 733 l 1,5,-1
 739 733 l 2,6,7
 749 733 749 733 757 726 c 0,8,9
 767 717 767 717 769 705 c 1,10,-1
 769 704 l 1,11,-1
 769 20 l 2,12,13
 769 8 769 8 760 0 c 0,14,15
 753 -7 753 -7 741 -10 c 1,16,-1
 740 -10 l 1,17,-1
 79 -10 l 2,18,19
 69 -10 69 -10 61 -3 c 0,20,21
 50 7 50 7 48 18 c 1,22,-1
 48 19 l 1,23,-1
 48 703 l 2,0,1
EndSplineSet
Validated: 1
EndChar

StartChar: Leftrightarrow
Encoding: 8660 8660 97
Width: 1027
VWidth: 1000
Flags: W
HStem: 117 63<290 737> 321 63<290 737> 521 20G<318.5 339.5 687.5 707>
LayerCount: 2
Fore
SplineSet
737 384 m 1,0,1
 707 423 707 423 686 462 c 128,-1,2
 665 501 665 501 663 515 c 1,3,-1
 663 518 l 2,4,5
 663 524 663 524 665 528 c 0,6,7
 669 535 669 535 674 538 c 0,8,9
 681 541 681 541 694 541 c 2,10,11
 699 541 l 2,12,13
 715 541 715 541 723 527 c 0,14,15
 725 524 725 524 729 514 c 0,16,17
 805 345 805 345 983 273 c 0,18,19
 995 268 995 268 999 262 c 0,20,21
 999 261 999 261 1000 260 c 0,22,23
 1002 254 1002 254 1002 250 c 0,24,25
 1002 236 1002 236 987 229 c 0,26,27
 888 189 888 189 826.5 127.5 c 128,-1,28
 765 66 765 66 724 -26 c 1,29,30
 716 -39 716 -39 701 -40 c 1,31,-1
 694 -40 l 2,32,33
 681 -40 681 -40 674 -37 c 0,34,35
 669 -34 669 -34 665 -27 c 1,36,37
 663 -21 663 -21 663 -17 c 2,38,39
 663 -14 l 1,40,41
 665 -0 665 -0 686 39 c 128,-1,42
 707 78 707 78 737 117 c 1,43,-1
 290 117 l 1,44,45
 320 78 320 78 341 39 c 128,-1,46
 362 -0 362 -0 364 -14 c 1,47,-1
 364 -17 l 2,48,49
 364 -23 364 -23 362 -27 c 0,50,51
 358 -34 358 -34 353 -37 c 0,52,53
 346 -40 346 -40 333 -40 c 2,54,-1
 328 -40 l 2,55,56
 312 -40 312 -40 304 -26 c 0,57,58
 302 -23 302 -23 298 -13 c 0,59,60
 222 156 222 156 44 228 c 0,61,62
 32 233 32 233 28 239 c 2,63,-1
 27 241 l 2,64,65
 25 247 25 247 25 251 c 0,66,67
 25 264 25 264 40 272 c 1,68,69
 139 312 139 312 200.5 373.5 c 128,-1,70
 262 435 262 435 303 527 c 1,71,72
 311 540 311 540 326 541 c 1,73,-1
 333 541 l 2,74,75
 346 541 346 541 353 538 c 0,76,77
 358 535 358 535 362 528 c 1,78,79
 364 522 364 522 364 518 c 2,80,81
 364 515 l 1,82,83
 362 501 362 501 341 462 c 128,-1,84
 320 423 320 423 290 384 c 1,85,-1
 737 384 l 1,0,1
232 180 m 1,86,-1
 795 180 l 1,87,88
 842 222 842 222 890 251 c 1,89,90
 834 284 834 284 795 321 c 1,91,-1
 232 321 l 1,92,93
 185 279 185 279 137 250 c 1,94,95
 193 217 193 217 232 180 c 1,86,-1
EndSplineSet
Validated: 1
EndChar

StartChar: northeastarrow
Encoding: 8599 8599 98
Width: 1027
VWidth: 1000
Flags: W
HStem: 630 50<733.492 860.949>
VStem: 906 50<458.001 584.949>
LayerCount: 2
Fore
SplineSet
107 -213 m 1,0,1
 98 -222 l 1,2,3
 89 -229 89 -229 79 -229 c 0,4,5
 71 -229 71 -229 63 -225 c 0,6,7
 55.5 -220.5 55.5 -220.5 51 -213 c 0,8,9
 47 -205 47 -205 47 -197 c 0,10,11
 47 -187 47 -187 54 -178 c 1,12,13
 63 -169 l 1,14,-1
 862 631 l 1,15,16
 859 631 859 631 852 630.5 c 128,-1,17
 845 630 845 630 841 630 c 0,18,19
 803 630 803 630 755 641 c 128,-1,20
 707 652 707 652 697 670 c 0,21,22
 694 674.5 694 674.5 694 679 c 0,23,24
 694 690 694 690 702.5 698 c 128,-1,25
 711 706 711 706 721 706 c 2,26,-1
 724 706 l 1,27,28
 727 705 727 705 745 698 c 0,29,30
 788 680 788 680 842 680 c 0,31,32
 893 680 893 680 939 698 c 0,33,34
 945 701 945 701 952 703 c 0,35,36
 953 703 953 703 955 703.5 c 2,37,-1
 957 704 l 1,38,39
 967 704 967 704 973.5 697.5 c 128,-1,40
 980 691 980 691 980 681 c 1,41,42
 979 677 979 677 979 676 c 128,-1,43
 979 675 979 675 977 670.5 c 128,-1,44
 975 666 975 666 974 663 c 0,45,46
 956 617 956 617 956 566 c 2,47,-1
 956 563 l 2,48,49
 956 511 956 511 976 463 c 0,50,51
 982 450 982 450 982 447 c 2,52,-1
 982 446 l 1,53,-1
 982 445 l 2,54,55
 982 434 982 434 973.5 426 c 128,-1,56
 965 418 965 418 955 418 c 0,57,58
 950 418 950 418 946 421 c 0,59,60
 930 431 930 431 918 478 c 128,-1,61
 906 525 906 525 906 565 c 0,62,63
 906 569 906 569 906.5 576 c 128,-1,64
 907 583 907 583 907 586 c 1,65,-1
 107 -213 l 1,0,1
EndSplineSet
Validated: 1
EndChar

StartChar: precedesim
Encoding: 8830 8830 99
Width: 818
Flags: W
HStem: -257 82<504.207 656.308> -79 82<161 312.793> 425 64<79.4238 393.32>
VStem: 48 51<-251.746 -142.938> 675 64<148.283 242.623 672.407 765.625> 718 51<-111.062 -2.25366>
LayerCount: 2
Fore
SplineSet
48 -221 m 1,0,-1
 48 -212 l 2,1,2
 48 -129 48 -129 99.5 -63 c 128,-1,3
 151 3 151 3 233 3 c 0,4,5
 282 3 282 3 331 -25 c 128,-1,6
 380 -53 380 -53 414 -86 c 128,-1,7
 448 -119 448 -119 494 -147 c 128,-1,8
 540 -175 540 -175 584 -175 c 0,9,10
 640 -175 640 -175 679 -133 c 128,-1,11
 718 -91 718 -91 718 -34 c 2,12,-1
 718 -33 l 1,13,14
 721 -10 721 -10 730 -2 c 0,15,16
 735 3 735 3 743 3 c 1,17,18
 750 2 750 2 753 0 c 0,19,20
 767 -7 767 -7 769 -33 c 1,21,-1
 769 -42 l 2,22,23
 769 -125 769 -125 718 -191 c 128,-1,24
 667 -257 667 -257 584 -257 c 0,25,26
 535 -257 535 -257 486 -229 c 128,-1,27
 437 -201 437 -201 403 -168 c 128,-1,28
 369 -135 369 -135 323 -107 c 128,-1,29
 277 -79 277 -79 233 -79 c 0,30,31
 177 -79 177 -79 138 -121 c 128,-1,32
 99 -163 99 -163 99 -220 c 2,33,-1
 99 -221 l 1,34,35
 96 -244 96 -244 87 -252 c 0,36,37
 82 -257 82 -257 74 -257 c 0,38,39
 69 -257 69 -257 64 -254 c 0,40,41
 50 -244 50 -244 48 -221 c 1,0,-1
78 458 m 0,42,43
 78 469 78 469 86 477 c 0,44,45
 95 487 95 487 107 489 c 1,46,-1
 108 489 l 1,47,-1
 109 489 l 2,48,49
 160 489 160 489 202.5 490.5 c 128,-1,50
 245 492 245 492 303.5 498 c 128,-1,51
 362 504 362 504 408 514.5 c 128,-1,52
 454 525 454 525 503.5 544.5 c 128,-1,53
 553 564 553 564 587 590.5 c 128,-1,54
 621 617 621 617 645.5 657 c 128,-1,55
 670 697 670 697 675 747 c 1,56,57
 678 760 678 760 688 768 c 128,-1,58
 698 776 698 776 708 776 c 0,59,60
 721 776 721 776 730 766 c 0,61,62
 740 754 740 754 739 742 c 0,63,64
 718 527 718 527 437 458 c 1,65,66
 718 388 718 388 739 173 c 1,67,68
 737 157 737 157 730 148 c 0,69,70
 721 138 721 138 708 138 c 128,-1,71
 695 138 695 138 686 147 c 128,-1,72
 677 156 677 156 675 168 c 0,73,74
 669 225 669 225 639 269.5 c 128,-1,75
 609 314 609 314 560 341 c 128,-1,76
 511 368 511 368 458 386 c 128,-1,77
 405 404 405 404 337 412 c 128,-1,78
 269 420 269 420 219 422.5 c 128,-1,79
 169 425 169 425 109 425 c 2,80,-1
 108 425 l 1,81,-1
 107 425 l 1,82,83
 78 431 78 431 78 458 c 0,42,43
EndSplineSet
Validated: 1
EndChar

StartChar: equaldotrightleft
Encoding: 8787 8787 100
Width: 818
Flags: W
HStem: -124 135<34.1115 127.889> 120 64<49.7627 762.78> 328 64<49.4062 760.749> 500 135<690.111 784.373>
VStem: 14 134<-103.373 -9.62671> 670 135<520.111 614.373>
LayerCount: 2
Fore
SplineSet
81 11 m 128,-1,1
 109 11 109 11 128.5 -8.5 c 128,-1,2
 148 -28 148 -28 148 -56 c 128,-1,3
 148 -84 148 -84 128.5 -104 c 128,-1,4
 109 -124 109 -124 81 -124 c 128,-1,5
 53 -124 53 -124 33.5 -104 c 128,-1,6
 14 -84 14 -84 14 -56 c 0,7,8
 14 -29 14 -29 33.5 -9 c 128,-1,0
 53 11 53 11 81 11 c 128,-1,1
48 152 m 0,9,10
 48 163 48 163 56 172 c 0,11,12
 65 181 65 181 76 184 c 1,13,-1
 78 184 l 1,14,-1
 740 184 l 1,15,-1
 742 184 l 1,16,17
 756 179 756 179 763 170 c 0,18,19
 769 161 769 161 769 152 c 1,20,21
 768 147 768 147 768 146 c 0,22,23
 768 143 768 143 767 141 c 0,24,25
 761 123 761 123 741 120 c 1,26,-1
 740 120 l 1,27,-1
 78 120 l 1,28,-1
 77 120 l 1,29,30
 61 124 61 124 53 136 c 0,31,32
 48 144 48 144 48 152 c 0,9,10
48 359 m 2,33,-1
 48 367 l 1,34,35
 50 371 50 371 51 372 c 0,36,37
 58 386 58 386 76 392 c 1,38,-1
 78 392 l 1,39,-1
 740 392 l 1,40,-1
 742 392 l 1,41,42
 769 383 769 383 769 359 c 0,43,44
 769 346 769 346 761 338 c 128,-1,45
 753 330 753 330 741 328 c 1,46,-1
 740 328 l 1,47,-1
 78 328 l 1,48,-1
 77 328 l 1,49,50
 64 331 64 331 58 337 c 0,51,52
 48 346 48 346 48 359 c 2,33,-1
737 635 m 128,-1,54
 765 635 765 635 785 615 c 128,-1,55
 805 595 805 595 805 567 c 128,-1,56
 805 539 805 539 784.5 519.5 c 128,-1,57
 764 500 764 500 737 500 c 0,58,59
 709 500 709 500 689.5 519.5 c 128,-1,60
 670 539 670 539 670 567 c 0,61,62
 670 594 670 594 689.5 614.5 c 128,-1,53
 709 635 709 635 737 635 c 128,-1,54
EndSplineSet
Validated: 1
EndChar

StartChar: between
Encoding: 8812 8812 101
Width: 525
Flags: W
VStem: 67 73<103.969 408.031> 385 74<104.299 407.701>
LayerCount: 2
Fore
SplineSet
107 -216 m 1,0,1
 173 -179 173 -179 224 -131 c 1,2,3
 150 -51 150 -51 108.5 49 c 128,-1,4
 67 149 67 149 67 256 c 128,-1,5
 67 363 67 363 108.5 463 c 128,-1,6
 150 563 150 563 224 643 c 1,7,8
 175 689 175 689 107 728 c 0,9,10
 93 737 93 737 93 752 c 0,11,12
 93 763 93 763 101.5 770.5 c 128,-1,13
 110 778 110 778 121 778 c 2,14,-1
 122 778 l 1,15,-1
 123 778 l 1,16,17
 159 772 159 772 263 682 c 1,18,19
 369 772 369 772 402 778 c 1,20,-1
 406 778 l 2,21,22
 416 778 416 778 424 770 c 128,-1,23
 432 762 432 762 432 752 c 0,24,25
 432 736 432 736 419 728 c 0,26,27
 352 690 352 690 303 643 c 1,28,29
 377 563 377 563 418 462.5 c 128,-1,30
 459 362 459 362 459 256 c 128,-1,31
 459 150 459 150 418 49.5 c 128,-1,32
 377 -51 377 -51 303 -131 c 1,33,34
 350 -176 350 -176 419 -216 c 0,35,36
 432 -224 432 -224 432 -240 c 0,37,38
 432 -251 432 -251 423.5 -258.5 c 128,-1,39
 415 -266 415 -266 404 -266 c 2,40,-1
 403 -266 l 1,41,-1
 402 -266 l 1,42,43
 383 -263 383 -263 338.5 -230.5 c 128,-1,44
 294 -198 294 -198 263 -170 c 1,45,46
 160 -258 160 -258 125 -265 c 0,47,48
 124 -265 124 -265 122.5 -265.5 c 128,-1,49
 121 -266 121 -266 120 -266 c 0,50,51
 109 -266 109 -266 101 -258.5 c 128,-1,52
 93 -251 93 -251 93 -240 c 0,53,54
 93 -225 93 -225 107 -216 c 1,0,1
263 -87 m 1,55,56
 385 61 385 61 385 256 c 128,-1,57
 385 451 385 451 263 599 c 1,58,59
 140 451 140 451 140 256 c 128,-1,60
 140 61 140 61 263 -87 c 1,55,56
EndSplineSet
Validated: 1
EndChar

StartChar: supersetdbl
Encoding: 8913 8913 102
Width: 818
Flags: W
HStem: -63 64<79.4238 517.396> 101 64<79.7727 479.375> 346 64<79.593 413 415 479.375> 510 64<79.593 517.396>
VStem: 511 64<196.62 313.964> 675 64<150.944 360.941>
LayerCount: 2
Fore
SplineSet
78 -32 m 0,0,1
 78 -5 78 -5 107 1 c 1,2,-1
 108 1 l 1,3,-1
 407 1 l 2,4,5
 516 1 516 1 595.5 74.5 c 128,-1,6
 675 148 675 148 675 256 c 128,-1,7
 675 364 675 364 595.5 437 c 128,-1,8
 516 510 516 510 407 510 c 2,9,-1
 108 510 l 1,10,-1
 107 510 l 1,11,12
 78 516 78 516 78 543 c 0,13,14
 78 553 78 553 86 562 c 0,15,16
 95 572 95 572 107 574 c 1,17,-1
 108 574 l 1,18,-1
 411 574 l 2,19,20
 545 574 545 574 642 481.5 c 128,-1,21
 739 389 739 389 739 256 c 128,-1,22
 739 123 739 123 642 30 c 128,-1,23
 545 -63 545 -63 411 -63 c 2,24,-1
 108 -63 l 1,25,-1
 107 -63 l 1,26,27
 94 -60 94 -60 86 -51 c 0,28,29
 78 -43 78 -43 78 -32 c 0,0,1
78 133 m 1,30,31
 77 139 77 139 81 146 c 0,32,33
 89 162 89 162 107 165 c 1,34,-1
 108 165 l 1,35,-1
 411 165 l 1,36,-1
 416 164 l 1,37,-1
 421 164 l 2,38,39
 457 164 457 164 484 191.5 c 128,-1,40
 511 219 511 219 511 256 c 0,41,42
 511 292 511 292 484 319.5 c 128,-1,43
 457 347 457 347 421 347 c 2,44,-1
 416 347 l 1,45,-1
 415 347 l 1,46,-1
 413 346 l 1,47,-1
 108 346 l 1,48,-1
 107 346 l 1,49,50
 78 352 78 352 78 379 c 0,51,52
 78 389 78 389 86 398 c 0,53,54
 95 408 95 408 107 410 c 1,55,-1
 108 410 l 1,56,-1
 406 410 l 1,57,58
 407 411 407 411 412 411 c 2,59,-1
 414 411 l 1,60,-1
 420 411 l 2,61,62
 484 411 484 411 529.5 365.5 c 128,-1,63
 575 320 575 320 575 256 c 128,-1,64
 575 192 575 192 529.5 146 c 128,-1,65
 484 100 484 100 420 100 c 2,66,-1
 414 100 l 2,67,68
 411 100 411 100 409 100.5 c 2,69,-1
 407 101 l 1,70,-1
 108 101 l 1,71,-1
 107 101 l 1,72,73
 91 105 91 105 83 117 c 0,74,75
 78 125 78 125 78 133 c 1,30,31
EndSplineSet
Validated: 1
EndChar

StartChar: rightanglenw
Encoding: 9484 9484 103
Width: 525
Flags: W
HStem: 657 64<112 471.717>
VStem: 48 64<293.877 657>
LayerCount: 2
Fore
SplineSet
48 691 m 2,0,1
 48 701 48 701 55 709 c 0,2,3
 64 718 64 718 77 721 c 1,4,-1
 78 721 l 1,5,-1
 447 721 l 1,6,-1
 448 721 l 1,7,8
 467 716 467 716 474 702 c 0,9,10
 477 694 477 694 477 689 c 0,11,12
 477 682 477 682 472 673 c 1,13,14
 463 660 463 660 448 657 c 1,15,-1
 447 657 l 1,16,-1
 112 657 l 1,17,-1
 112 322 l 1,18,-1
 112 321 l 1,19,20
 109 308 109 308 100 300 c 0,21,22
 92 292 92 292 81 292 c 2,23,24
 76 292 l 2,25,26
 74 292 74 292 68 295 c 0,27,28
 54 302 54 302 48 320 c 1,29,-1
 48 322 l 1,30,-1
 48 691 l 2,0,1
EndSplineSet
Validated: 1
EndChar

StartChar: circleasterisk
Encoding: 8859 8859 104
Width: 818
Flags: W
HStem: -105 53<294.092 523.499> 119 77<209.981 224 593 607.564> 315 77<209.436 224 593 607.019> 563 53<290.61 525.203>
VStem: 47 53<141.501 370.117> 368 81<35.8297 143.745 367.255 474.655> 717 53<141.501 370.117>
CounterMasks: 1 0e
LayerCount: 2
Fore
SplineSet
409 616 m 0,0,1
 559 616 559 616 664.5 510.5 c 128,-1,2
 770 405 770 405 770 256 c 0,3,4
 770 106 770 106 664.5 0.5 c 128,-1,5
 559 -105 559 -105 409 -105 c 128,-1,6
 259 -105 259 -105 153 0.5 c 128,-1,7
 47 106 47 106 47 256 c 0,8,9
 47 405 47 405 153.5 510.5 c 128,-1,10
 260 616 260 616 409 616 c 0,0,1
100 256 m 128,-1,12
 100 129 100 129 190.5 38.5 c 128,-1,13
 281 -52 281 -52 409 -52 c 0,14,15
 536 -52 536 -52 626.5 38.5 c 128,-1,16
 717 129 717 129 717 256 c 128,-1,17
 717 383 717 383 626.5 473 c 128,-1,18
 536 563 536 563 409 563 c 0,19,20
 281 563 281 563 190.5 473 c 128,-1,11
 100 383 100 383 100 256 c 128,-1,12
204 162 m 0,21,22
 204 184 204 184 224 196 c 1,23,-1
 353 256 l 1,24,-1
 224 315 l 1,25,26
 204 327 204 327 204 349 c 0,27,28
 204 365 204 365 215.5 378.5 c 128,-1,29
 227 392 227 392 245 392 c 0,30,31
 257 392 257 392 266 385 c 2,32,-1
 381 304 l 1,33,-1
 368 445 l 1,34,-1
 368 447 l 2,35,36
 368 464 368 464 380.5 475 c 128,-1,37
 393 486 393 486 409 486 c 128,-1,38
 425 486 425 486 437 475 c 128,-1,39
 449 464 449 464 449 447 c 2,40,-1
 449 445 l 1,41,-1
 436 304 l 1,42,-1
 551 385 l 2,43,44
 560 392 560 392 572 392 c 0,45,46
 588 392 588 392 600.5 378.5 c 128,-1,47
 613 365 613 365 613 349 c 0,48,49
 613 327 613 327 593 315 c 1,50,-1
 464 256 l 1,51,-1
 593 196 l 1,52,53
 613 184 613 184 613 162 c 0,54,55
 613 146 613 146 601.5 132.5 c 128,-1,56
 590 119 590 119 572 119 c 0,57,58
 560 119 560 119 551 126 c 2,59,-1
 436 207 l 1,60,-1
 449 66 l 1,61,-1
 449 63 l 2,62,63
 449 46 449 46 437 35.5 c 128,-1,64
 425 25 425 25 409 25 c 128,-1,65
 393 25 393 25 380.5 35.5 c 128,-1,66
 368 46 368 46 368 63 c 2,67,-1
 368 66 l 1,68,-1
 381 207 l 1,69,-1
 266 126 l 2,70,71
 257 119 257 119 245 119 c 0,72,73
 229 119 229 119 216.5 132.5 c 128,-1,74
 204 146 204 146 204 162 c 0,21,22
EndSplineSet
Validated: 1
EndChar

StartChar: dblarrowup
Encoding: 8648 8648 105
Width: 876
Flags: W
VStem: 232 63<-207.708 594> 582 64<-206.874 594>
LayerCount: 2
Fore
SplineSet
232 595 m 1,0,1
 174 533 174 533 96 502 c 1,2,-1
 94 501 l 1,3,-1
 88 501 l 2,4,5
 77 501 77 501 70 509 c 0,6,7
 65 514 65 514 65 522 c 2,8,-1
 65 534 l 1,9,10
 66 538 66 538 66 541 c 1,11,12
 69 549 69 549 80 553 c 0,13,14
 134 573 134 573 176.5 613 c 128,-1,15
 219 653 219 653 242 706 c 0,16,17
 248 721 248 721 263 721 c 1,18,19
 269 720 269 720 270 720 c 0,20,21
 277 718 277 718 284 707 c 1,22,-1
 284 706 l 1,23,24
 306 655 306 655 346 616 c 128,-1,25
 386 577 386 577 438 557 c 1,26,27
 544 598 544 598 593 706 c 0,28,29
 598 715 598 715 604 719 c 0,30,31
 607 721 607 721 613 721 c 0,32,33
 628 721 628 721 635 706 c 0,34,35
 683 597 683 597 797 554 c 0,36,37
 807 551 807 551 811 541 c 0,38,39
 812 538 812 538 812 534 c 2,40,-1
 812 522 l 2,41,42
 812 515 812 515 809 511 c 0,43,44
 804 501 804 501 790 501 c 2,45,-1
 783 501 l 1,46,-1
 781 502 l 1,47,48
 701 533 701 533 646 594 c 1,49,-1
 646 -179 l 2,50,51
 646 -189 646 -189 639 -197 c 0,52,53
 629 -209 629 -209 613 -209 c 0,54,55
 608 -209 608 -209 605 -208 c 0,56,57
 603 -207 603 -207 602 -207 c 0,58,59
 593 -203 593 -203 587 -195 c 0,60,61
 582 -188 582 -188 582 -179 c 2,62,-1
 582 594 l 1,63,64
 527 533 527 533 446 502 c 1,65,-1
 444 501 l 1,66,-1
 432 501 l 1,67,-1
 430 502 l 1,68,69
 350 534 350 534 295 594 c 1,70,-1
 295 -179 l 2,71,72
 295 -189 295 -189 288 -197 c 0,73,74
 280 -208 280 -208 266 -209 c 1,75,-1
 263 -209 l 2,76,77
 249 -209 249 -209 239 -197 c 0,78,79
 232 -188 232 -188 232 -179 c 2,80,-1
 232 595 l 1,0,1
EndSplineSet
Validated: 1
EndChar

StartChar: squiggleleftright
Encoding: 8621 8621 106
Width: 1461
Flags: W
HStem: 223 65<173 287 1173 1287>
LayerCount: 2
Fore
SplineSet
54 247 m 1,0,-1
 35 256 l 1,1,-1
 54 265 l 2,2,3
 162 317 162 317 207 430 c 1,4,-1
 209 436 l 1,5,-1
 267 436 l 1,6,-1
 261 422 l 1,7,8
 231 348 231 348 173 288 c 1,9,-1
 287 288 l 1,10,-1
 364 363 l 2,11,12
 370 369 370 369 378 371 c 0,13,14
 381 372 381 372 386 372 c 0,15,16
 400 370 400 370 406 365 c 2,17,18
 408 363 l 1,19,-1
 558 216 l 1,20,-1
 708 363 l 2,21,22
 717 372 717 372 730 372 c 0,23,24
 742 372 742 372 750 365 c 2,25,26
 752 363 l 1,27,-1
 902 216 l 1,28,-1
 1052 363 l 2,29,30
 1061 372 1061 372 1074 372 c 0,31,32
 1083 372 1083 372 1091 368 c 1,33,34
 1093 366 l 2,35,36
 1094 366 1094 366 1095 365 c 2,37,38
 1097 363 l 1,39,-1
 1173 288 l 1,40,-1
 1287 288 l 1,41,42
 1229 348 1229 348 1199 422 c 1,43,-1
 1193 436 l 1,44,-1
 1251 436 l 1,45,-1
 1253 430 l 1,46,47
 1298 317 1298 317 1406 265 c 2,48,-1
 1425 256 l 1,49,-1
 1406 247 l 1,50,51
 1298 193 1298 193 1253 81 c 1,52,-1
 1251 75 l 1,53,-1
 1193 75 l 1,54,-1
 1199 89 l 1,55,56
 1229 163 1229 163 1287 223 c 1,57,-1
 1159 223 l 2,58,59
 1149 223 1149 223 1141 230 c 1,60,61
 1139.5 232 l 2,62,63
 1138 234 1138 234 1136 236 c 2,64,-1
 1074 295 l 1,65,-1
 925 148 l 2,66,67
 915 138 915 138 902 138 c 0,68,69
 898 138 898 138 894 139 c 0,70,71
 886 142 886 142 880 148 c 2,72,-1
 730 295 l 1,73,-1
 580 148 l 1,74,75
 571 141 571 141 566 139 c 0,76,77
 564 138 564 138 558 138 c 128,-1,78
 552 138 552 138 545 141 c 0,79,80
 541 143 541 143 536 148 c 2,81,-1
 386 295 l 1,82,-1
 324 236 l 2,83,84
 323 235 323 235 321.5 233 c 128,-1,85
 320 231 320 231 319 230 c 0,86,87
 312 223 312 223 302 223 c 2,88,-1
 173 223 l 1,89,90
 231 163 231 163 261 89 c 1,91,-1
 267 75 l 1,92,-1
 209 75 l 1,93,-1
 207 81 l 1,94,95
 162 193 162 193 54 247 c 1,0,-1
EndSplineSet
Validated: 1
EndChar

StartChar: followsorcurly
Encoding: 8829 8829 107
Width: 818
Flags: W
HStem: -10 21G<104 116.5> 113 64<522.268 728.687> 277 64<484.641 737.886>
VStem: 78 64<0.828979 93.3262 524.377 616.687> 195 64<-163.171 -66.1982>
LayerCount: 2
Fore
SplineSet
195 -140 m 2,0,-1
 195 -139 l 1,1,2
 202 -68 202 -68 239 -11.5 c 128,-1,3
 276 45 276 45 328.5 79.5 c 128,-1,4
 381 114 381 114 448 136.5 c 128,-1,5
 515 159 515 159 578.5 168 c 128,-1,6
 642 177 642 177 706 177 c 0,7,8
 719 177 719 177 729 168 c 128,-1,9
 739 159 739 159 739 145 c 0,10,11
 739 119 739 119 712 113 c 1,12,-1
 711 113 l 1,13,-1
 710 113 l 2,14,15
 637 113 637 113 567 100.5 c 128,-1,16
 497 88 497 88 427.5 60.5 c 128,-1,17
 358 33 358 33 312 -20 c 128,-1,18
 266 -73 266 -73 259 -145 c 1,19,20
 254 -164 254 -164 240 -171 c 0,21,22
 234 -174 234 -174 227 -174 c 0,23,24
 212 -174 212 -174 203.5 -163.5 c 128,-1,25
 195 -153 195 -153 195 -140 c 2,0,-1
78 25 m 1,26,27
 99 239 99 239 381 309 c 1,28,29
 99 379 99 379 78 594 c 1,30,31
 78 607 78 607 87.5 617 c 128,-1,32
 97 627 97 627 111 627 c 0,33,34
 120 627 120 627 129 621 c 0,35,36
 139 613 139 613 142 599 c 1,37,38
 147 550 147 550 171.5 510 c 128,-1,39
 196 470 196 470 230.5 443.5 c 128,-1,40
 265 417 265 417 314 397.5 c 128,-1,41
 363 378 363 378 410 367.5 c 128,-1,42
 457 357 457 357 515.5 350.5 c 128,-1,43
 574 344 574 344 617 342.5 c 128,-1,44
 660 341 660 341 710 341 c 2,45,-1
 711 341 l 1,46,-1
 712 341 l 1,47,48
 739 335 739 335 739 309 c 128,-1,49
 739 283 739 283 712 277 c 1,50,-1
 711 277 l 1,51,-1
 710 277 l 2,52,53
 169 277 169 277 142 19 c 1,54,55
 139 5 139 5 129 -4 c 0,56,57
 122 -10 122 -10 111 -10 c 0,58,59
 97 -10 97 -10 87.5 0.5 c 128,-1,60
 78 11 78 11 78 25 c 1,26,27
EndSplineSet
Validated: 1
EndChar

StartChar: arrowtripleright
Encoding: 8667 8667 108
Width: 1051
Flags: W
HStem: 16 64<49.7627 648> 223 65<58.3132 835> 431 64<49.593 648>
CounterMasks: 1 e0
LayerCount: 2
Fore
SplineSet
48 48 m 128,-1,1
 48 56 48 56 51 61 c 0,2,3
 59 77 59 77 77 80 c 1,4,-1
 78 80 l 1,5,-1
 691 80 l 1,6,7
 751 159 751 159 835 223 c 1,8,-1
 81 223 l 2,9,10
 68 223 68 223 58 232.5 c 128,-1,11
 48 242 48 242 48 256 c 0,12,13
 48 269 48 269 57.5 278.5 c 128,-1,14
 67 288 67 288 81 288 c 2,15,-1
 835 288 l 1,16,17
 751 352 751 352 691 431 c 1,18,-1
 78 431 l 1,19,-1
 77 431 l 1,20,21
 48 437 48 437 48 464 c 0,22,23
 48 474 48 474 56 483 c 0,24,25
 65 493 65 493 77 495 c 1,26,-1
 78 495 l 1,27,-1
 648 495 l 1,28,29
 608 564 608 564 585 631 c 1,30,-1
 580 644 l 1,31,-1
 654 644 l 1,32,-1
 656 637 l 1,33,34
 698 518 698 518 781.5 421.5 c 128,-1,35
 865 325 865 325 977 265 c 1,36,-1
 993 256 l 1,37,-1
 977 247 l 1,38,39
 865 186 865 186 781.5 89.5 c 128,-1,40
 698 -7 698 -7 656 -126 c 1,41,-1
 654 -133 l 1,42,-1
 580 -133 l 1,43,-1
 585 -120 l 1,44,45
 608 -53 608 -53 648 16 c 1,46,-1
 78 16 l 1,47,-1
 77 16 l 1,48,49
 61 20 61 20 53 32 c 0,50,0
 48 40 48 40 48 48 c 128,-1,1
EndSplineSet
Validated: 1
EndChar

StartChar: intersectiondbl
Encoding: 8915 8915 109
Width: 701
Flags: W
HStem: 397 64<296.193 403.807> 560 64<225.997 474.282>
VStem: 48 64<-31.125 466.645> 212 64<-31.125 378.657> 424 64<-31.125 378.657> 588 64<-31.125 466.625>
LayerCount: 2
Fore
SplineSet
48 397 m 2,0,1
 48 454 48 454 76.5 499 c 128,-1,2
 105 544 105 544 151 570.5 c 128,-1,3
 197 597 197 597 248 610.5 c 128,-1,4
 299 624 299 624 350 624 c 0,5,6
 420 624 420 624 486.5 601.5 c 128,-1,7
 553 579 553 579 602.5 525.5 c 128,-1,8
 652 472 652 472 652 397 c 2,9,-1
 652 -4 l 1,10,-1
 652 -5 l 1,11,12
 647 -19 647 -19 639 -26 c 0,13,14
 630 -33 630 -33 621 -33 c 0,15,16
 610 -33 610 -33 600.5 -25.5 c 128,-1,17
 591 -18 591 -18 588 -5 c 1,18,-1
 588 -4 l 1,19,-1
 588 393 l 2,20,21
 588 448 588 448 549.5 487.5 c 128,-1,22
 511 527 511 527 458.5 543.5 c 128,-1,23
 406 560 406 560 350 560 c 128,-1,24
 294 560 294 560 242 543.5 c 128,-1,25
 190 527 190 527 151 487.5 c 128,-1,26
 112 448 112 448 112 393 c 2,27,-1
 112 -4 l 1,28,-1
 112 -5 l 1,29,30
 107 -19 107 -19 99 -26 c 0,31,32
 90 -33 90 -33 81 -33 c 0,33,34
 70 -33 70 -33 60.5 -25.5 c 128,-1,35
 51 -18 51 -18 48 -5 c 1,36,-1
 48 -4 l 1,37,-1
 48 397 l 2,0,1
212 338 m 2,38,39
 212 392 212 392 254.5 426.5 c 128,-1,40
 297 461 297 461 350 461 c 128,-1,41
 403 461 403 461 445.5 426.5 c 128,-1,42
 488 392 488 392 488 338 c 2,43,-1
 488 -4 l 1,44,-1
 488 -5 l 1,45,46
 483 -19 483 -19 475 -26 c 0,47,48
 466 -33 466 -33 457 -33 c 0,49,50
 446 -33 446 -33 436.5 -25.5 c 128,-1,51
 427 -18 427 -18 424 -5 c 1,52,-1
 424 -4 l 1,53,-1
 424 334 l 2,54,55
 424 362 424 362 402 379.5 c 128,-1,56
 380 397 380 397 350 397 c 128,-1,57
 320 397 320 397 298 379.5 c 128,-1,58
 276 362 276 362 276 334 c 2,59,-1
 276 -4 l 1,60,-1
 276 -5 l 1,61,62
 271 -19 271 -19 263 -26 c 0,63,64
 254 -33 254 -33 245 -33 c 0,65,66
 234 -33 234 -33 224.5 -25.5 c 128,-1,67
 215 -18 215 -18 212 -5 c 1,68,-1
 212 -4 l 1,69,-1
 212 338 l 2,38,39
EndSplineSet
Validated: 1
EndChar

StartChar: circleR
Encoding: 174 174 110
Width: 984
Flags: W
HStem: -191 64<359.255 625.355> -24 49<678.619 737.346> -10 52<211 270.588 392.897 452> 245 50<380 526.122> 497 52<211 270.588 388.189 552.84> 688 64<358.601 624.668>
VStem: 20 64<147.967 414.355> 284 96<47.6747 245 295 491.325> 583 112<328.484 464.201> 744 52<29.1396 94.7493> 899 64<147.312 413.668>
LayerCount: 2
Fore
SplineSet
492 752 m 0,0,1
 687 752 687 752 825 614 c 128,-1,2
 963 476 963 476 963 281 c 0,3,4
 963 153 963 153 900 44.5 c 128,-1,5
 837 -64 837 -64 728.5 -127.5 c 128,-1,6
 620 -191 620 -191 492 -191 c 0,7,8
 297 -191 297 -191 158.5 -52.5 c 128,-1,9
 20 86 20 86 20 281 c 0,10,11
 20 409 20 409 83.5 517.5 c 128,-1,12
 147 626 147 626 255.5 689 c 128,-1,13
 364 752 364 752 492 752 c 0,0,1
84 281 m 0,14,15
 84 113 84 113 204.5 -7 c 128,-1,16
 325 -127 325 -127 492 -127 c 128,-1,17
 659 -127 659 -127 779 -7 c 128,-1,18
 899 113 899 113 899 281 c 0,19,20
 899 448 899 448 779 568 c 128,-1,21
 659 688 659 688 492 688 c 128,-1,22
 325 688 325 688 204.5 568 c 128,-1,23
 84 448 84 448 84 281 c 0,14,15
211 -10 m 1,24,-1
 211 42 l 1,25,-1
 221 42 l 2,26,27
 258 42 258 42 271 47.5 c 128,-1,28
 284 53 284 53 284 70 c 2,29,-1
 284 469 l 2,30,31
 284 486 284 486 271 491.5 c 128,-1,32
 258 497 258 497 221 497 c 2,33,-1
 211 497 l 1,34,-1
 211 549 l 1,35,-1
 469 549 l 2,36,37
 502 549 502 549 539 540.5 c 128,-1,38
 576 532 576 532 612 514.5 c 128,-1,39
 648 497 648 497 671.5 466 c 128,-1,40
 695 435 695 435 695 396 c 0,41,42
 695 350 695 350 662.5 316.5 c 128,-1,43
 630 283 630 283 583 265 c 1,44,45
 640 230 640 230 650 173 c 1,46,-1
 666 93 l 2,47,48
 670 71 670 71 673.5 59 c 128,-1,49
 677 47 677 47 685.5 36 c 128,-1,50
 694 25 694 25 708 25 c 0,51,52
 724 25 724 25 734 41 c 128,-1,53
 744 57 744 57 744 78 c 0,54,55
 744 86 744 86 750.5 93 c 128,-1,56
 757 100 757 100 766 100 c 2,57,-1
 775 100 l 2,58,59
 782 100 782 100 788 95 c 0,60,61
 796 87 796 87 796 76 c 0,62,63
 796 38 796 38 771.5 7 c 128,-1,64
 747 -24 747 -24 708 -24 c 0,65,66
 644 -24 644 -24 598 5.5 c 128,-1,67
 552 35 552 35 552 97 c 2,68,-1
 552 166 l 2,69,70
 552 199 552 199 527 222 c 128,-1,71
 502 245 502 245 468 245 c 2,72,-1
 380 245 l 1,73,-1
 380 70 l 2,74,75
 380 53 380 53 392.5 47.5 c 128,-1,76
 405 42 405 42 442 42 c 2,77,-1
 452 42 l 1,78,-1
 452 -10 l 1,79,-1
 442 -10 l 2,80,81
 423 -10 423 -10 386.5 -8.5 c 128,-1,82
 350 -7 350 -7 332 -7 c 128,-1,83
 314 -7 314 -7 277 -8.5 c 128,-1,84
 240 -10 240 -10 221 -10 c 2,85,-1
 211 -10 l 1,24,-1
380 295 m 1,86,-1
 457 295 l 2,87,88
 522 295 522 295 552.5 316.5 c 128,-1,89
 583 338 583 338 583 396 c 128,-1,90
 583 454 583 454 552 475.5 c 128,-1,91
 521 497 521 497 457 497 c 2,92,-1
 406 497 l 2,93,94
 394 497 394 497 388 495 c 0,95,96
 383 493 383 493 382 489 c 0,97,98
 380 481 380 481 380 469 c 2,99,-1
 380 295 l 1,86,-1
EndSplineSet
Validated: 1
EndChar

StartChar: fork
Encoding: 8916 8916 111
Width: 701
Flags: W
HStem: 487 65<210.199 319 383 486.972>
VStem: 48 64<-31.125 409.781> 319 64<-31.4502 487 552 764.227> 588 64<-31.125 410.379>
LayerCount: 2
Fore
SplineSet
48 348 m 2,0,1
 48 397 48 397 74 437 c 128,-1,2
 100 477 100 477 141.5 501 c 128,-1,3
 183 525 183 525 228.5 538 c 128,-1,4
 274 551 274 551 319 552 c 1,5,-1
 319 736 l 1,6,-1
 319 737 l 1,7,8
 323 753 323 753 335 761 c 0,9,10
 343 766 343 766 351 766 c 1,11,12
 357 767 357 767 364 763 c 0,13,14
 380 755 380 755 383 737 c 1,15,-1
 383 736 l 1,16,-1
 383 552 l 1,17,18
 444 550 444 550 503 529 c 128,-1,19
 562 508 562 508 607 460.5 c 128,-1,20
 652 413 652 413 652 348 c 2,21,-1
 652 -4 l 1,22,-1
 652 -5 l 1,23,24
 647 -19 647 -19 639 -26 c 0,25,26
 630 -33 630 -33 621 -33 c 0,27,28
 610 -33 610 -33 600.5 -25.5 c 128,-1,29
 591 -18 591 -18 588 -5 c 1,30,-1
 588 -4 l 1,31,-1
 588 344 l 2,32,33
 588 410 588 410 524 447 c 128,-1,34
 460 484 460 484 383 487 c 1,35,-1
 383 -4 l 1,36,-1
 383 -5 l 1,37,38
 378 -23 378 -23 364 -30 c 0,39,40
 358 -33 358 -33 351 -33 c 1,41,42
 346 -32 346 -32 345 -32 c 0,43,44
 342 -32 342 -32 340 -31 c 0,45,46
 322 -25 322 -25 319 -5 c 1,47,-1
 319 -4 l 1,48,-1
 319 487 l 1,49,50
 271 485 271 485 225.5 470.5 c 128,-1,51
 180 456 180 456 146 423 c 128,-1,52
 112 390 112 390 112 344 c 2,53,-1
 112 -4 l 1,54,-1
 112 -5 l 1,55,56
 107 -19 107 -19 99 -26 c 0,57,58
 90 -33 90 -33 81 -33 c 0,59,60
 70 -33 70 -33 60.5 -25.5 c 128,-1,61
 51 -18 51 -18 48 -5 c 1,62,-1
 48 -4 l 1,63,-1
 48 348 l 2,0,1
EndSplineSet
Validated: 1
EndChar

StartChar: doublebarwedge
Encoding: 8966 8966 112
Width: 643
Flags: W
HStem: 576 64<49.7627 592.45> 784 64<49.7627 592.45>
LayerCount: 2
Fore
SplineSet
52 -67 m 2,0,-1
 294 415 l 1,1,2
 295 417 l 2,3,4
 296 419 296 419 298 421 c 128,-1,5
 300 423 300 423 303 425 c 0,6,7
 312 431 312 431 322 431 c 0,8,9
 327 431 327 431 330 430 c 0,10,11
 346 422 346 422 351 413 c 2,12,-1
 592 -70 l 1,13,-1
 592 -71 l 1,14,15
 594 -79 594 -79 594 -82 c 0,16,17
 593 -100 593 -100 583 -107 c 128,-1,18
 573 -114 573 -114 565 -114 c 2,19,-1
 562 -114 l 2,20,21
 559 -114 559 -114 551 -112 c 0,22,23
 548 -111 548 -111 542 -107 c 1,24,25
 536 -101 536 -101 533 -94 c 2,26,-1
 322 328 l 1,27,-1
 108 -97 l 2,28,29
 102 -108 102 -108 91 -112 c 0,30,31
 85 -114 85 -114 81 -114 c 0,32,33
 52 -112 52 -112 48 -85 c 1,34,-1
 48 -82 l 2,35,36
 48 -78 48 -78 49 -75 c 0,37,38
 50 -74 50 -74 51 -71 c 128,-1,39
 52 -68 52 -68 52 -67 c 2,0,-1
48 608 m 128,-1,41
 48 616 48 616 51 621 c 0,42,43
 59 637 59 637 77 640 c 1,44,-1
 78 640 l 1,45,-1
 565 640 l 1,46,-1
 566 640 l 1,47,48
 584 635 584 635 591 621 c 0,49,50
 594 615 594 615 594 608 c 1,51,52
 593 603 593 603 593 602 c 0,53,54
 593 599 593 599 592 597 c 0,55,56
 586 579 586 579 566 576 c 1,57,-1
 565 576 l 1,58,-1
 78 576 l 1,59,-1
 77 576 l 1,60,61
 61 580 61 580 53 592 c 0,62,40
 48 600 48 600 48 608 c 128,-1,41
48 816 m 128,-1,64
 48 824 48 824 51 829 c 0,65,66
 59 845 59 845 77 848 c 1,67,-1
 78 848 l 1,68,-1
 565 848 l 1,69,-1
 566 848 l 1,70,71
 584 843 584 843 591 829 c 0,72,73
 594 823 594 823 594 816 c 1,74,75
 593 811 593 811 593 810 c 0,76,77
 593 807 593 807 592 805 c 0,78,79
 586 787 586 787 566 784 c 1,80,-1
 565 784 l 1,81,-1
 78 784 l 1,82,-1
 77 784 l 1,83,84
 61 788 61 788 53 800 c 0,85,63
 48 808 48 808 48 816 c 128,-1,64
EndSplineSet
Validated: 1
EndChar

StartChar: curlyprecede
Encoding: 8926 8926 113
Width: 818
Flags: W
HStem: -10 21G<702 714.5> 277 64<79.7627 333.531> 441 64<84.3455 295.891>
VStem: 558 64<684.198 781.202> 675 64<0.282959 93.3262 524.674 625.086>
LayerCount: 2
Fore
SplineSet
78 309 m 128,-1,1
 78 317 78 317 81 322 c 0,2,3
 89 338 89 338 107 341 c 1,4,-1
 108 341 l 1,5,-1
 109 341 l 2,6,7
 648 341 648 341 675 599 c 0,8,9
 677 610 677 610 686.5 618.5 c 128,-1,10
 696 627 696 627 708 627 c 0,11,12
 721 627 721 627 730 617 c 0,13,14
 740 607 740 607 739 594 c 0,15,16
 718 379 718 379 436 309 c 1,17,18
 718 239 718 239 739 25 c 1,19,20
 737 9 737 9 730 0 c 0,21,22
 721 -10 721 -10 708 -10 c 0,23,24
 696 -10 696 -10 686.5 -1.5 c 128,-1,25
 677 7 677 7 675 19 c 0,26,27
 648 277 648 277 109 277 c 2,28,-1
 108 277 l 1,29,-1
 107 277 l 1,30,31
 91 281 91 281 83 293 c 0,32,0
 78 301 78 301 78 309 c 128,-1,1
107 505 m 1,33,-1
 108 505 l 1,34,-1
 109 505 l 2,35,36
 181 505 181 505 251 517.5 c 128,-1,37
 321 530 321 530 390 557.5 c 128,-1,38
 459 585 459 585 505 638 c 128,-1,39
 551 691 551 691 558 763 c 1,40,41
 561 776 561 776 570.5 783.5 c 128,-1,42
 580 791 580 791 590 791 c 0,43,44
 604 791 604 791 613 781.5 c 128,-1,45
 622 772 622 772 622 758 c 2,46,-1
 622 757 l 1,47,48
 615 686 615 686 578 629.5 c 128,-1,49
 541 573 541 573 489 538.5 c 128,-1,50
 437 504 437 504 370 481.5 c 128,-1,51
 303 459 303 459 240 450 c 128,-1,52
 177 441 177 441 113 441 c 0,53,54
 95 441 95 441 84 455 c 1,55,56
 80 462 80 462 79 464 c 0,57,58
 78 467 78 467 78 473 c 0,59,60
 78 481 78 481 81 486 c 0,61,62
 89 502 89 502 107 505 c 1,33,-1
EndSplineSet
Validated: 1
EndChar

StartChar: curlyfollow
Encoding: 8927 8927 114
Width: 818
Flags: W
HStem: -10 21G<104 116.5> 277 64<484.641 737.886> 441 64<522.268 729.202>
VStem: 78 64<0.828979 93.3262 524.377 616.687> 195 64<684.198 781.202>
LayerCount: 2
Fore
SplineSet
78 25 m 1,0,1
 99 239 99 239 381 309 c 1,2,3
 99 379 99 379 78 594 c 1,4,5
 78 607 78 607 87.5 617 c 128,-1,6
 97 627 97 627 111 627 c 0,7,8
 120 627 120 627 129 621 c 0,9,10
 139 613 139 613 142 599 c 1,11,12
 147 550 147 550 171.5 510 c 128,-1,13
 196 470 196 470 230.5 443.5 c 128,-1,14
 265 417 265 417 314 397.5 c 128,-1,15
 363 378 363 378 410 367.5 c 128,-1,16
 457 357 457 357 515.5 350.5 c 128,-1,17
 574 344 574 344 617 342.5 c 128,-1,18
 660 341 660 341 710 341 c 2,19,-1
 711 341 l 1,20,-1
 712 341 l 1,21,22
 739 335 739 335 739 309 c 128,-1,23
 739 283 739 283 712 277 c 1,24,-1
 711 277 l 1,25,-1
 710 277 l 2,26,27
 169 277 169 277 142 19 c 1,28,29
 139 5 139 5 129 -4 c 0,30,31
 122 -10 122 -10 111 -10 c 0,32,33
 97 -10 97 -10 87.5 0.5 c 128,-1,34
 78 11 78 11 78 25 c 1,0,1
227 791 m 0,35,36
 239 791 239 791 248 782.5 c 128,-1,37
 257 774 257 774 259 763 c 0,38,39
 266 691 266 691 312 638 c 128,-1,40
 358 585 358 585 427.5 557.5 c 128,-1,41
 497 530 497 530 567 517.5 c 128,-1,42
 637 505 637 505 710 505 c 2,43,-1
 711 505 l 1,44,-1
 712 505 l 1,45,46
 739 499 739 499 739 473 c 0,47,48
 739 459 739 459 729.5 450 c 128,-1,49
 720 441 720 441 706 441 c 0,50,51
 642 441 642 441 578.5 450 c 128,-1,52
 515 459 515 459 448 481.5 c 128,-1,53
 381 504 381 504 328.5 538.5 c 128,-1,54
 276 573 276 573 239 629.5 c 128,-1,55
 202 686 202 686 195 757 c 1,56,-1
 195 758 l 2,57,58
 195 772 195 772 204 781.5 c 128,-1,59
 213 791 213 791 227 791 c 0,35,36
EndSplineSet
Validated: 1
EndChar

StartChar: precedecurly
Encoding: 8828 8828 115
Width: 818
Flags: W
HStem: -10 21G<702 714.5> 113 64<81.2847 295.891> 277 64<79.7627 333.531>
VStem: 675 64<0.282959 93.3262 524.674 625.086>
LayerCount: 2
Fore
SplineSet
78 145 m 0,0,1
 78 152 78 152 81 158 c 0,2,3
 90 177 90 177 113 177 c 0,4,5
 177 177 177 177 240 168 c 128,-1,6
 303 159 303 159 370 136.5 c 128,-1,7
 437 114 437 114 489 79.5 c 128,-1,8
 541 45 541 45 578 -11.5 c 128,-1,9
 615 -68 615 -68 622 -139 c 1,10,-1
 622 -140 l 2,11,12
 622 -153 622 -153 613 -163.5 c 128,-1,13
 604 -174 604 -174 590 -174 c 1,14,15
 585 -173 585 -173 584 -173 c 0,16,17
 581 -173 581 -173 579 -172 c 0,18,19
 561 -166 561 -166 558 -145 c 0,20,21
 551 -73 551 -73 505 -20 c 128,-1,22
 459 33 459 33 390 60.5 c 128,-1,23
 321 88 321 88 251 100.5 c 128,-1,24
 181 113 181 113 109 113 c 2,25,-1
 108 113 l 1,26,-1
 107 113 l 1,27,28
 91 117 91 117 83 129 c 0,29,30
 78 137 78 137 78 145 c 0,0,1
78 309 m 128,-1,32
 78 317 78 317 81 322 c 0,33,34
 89 338 89 338 107 341 c 1,35,-1
 108 341 l 1,36,-1
 109 341 l 2,37,38
 648 341 648 341 675 599 c 0,39,40
 677 610 677 610 686.5 618.5 c 128,-1,41
 696 627 696 627 708 627 c 0,42,43
 721 627 721 627 730 617 c 0,44,45
 740 607 740 607 739 594 c 0,46,47
 718 379 718 379 436 309 c 1,48,49
 718 239 718 239 739 25 c 1,50,51
 737 9 737 9 730 0 c 0,52,53
 721 -10 721 -10 708 -10 c 0,54,55
 696 -10 696 -10 686.5 -1.5 c 128,-1,56
 677 7 677 7 675 19 c 0,57,58
 648 277 648 277 109 277 c 2,59,-1
 108 277 l 1,60,-1
 107 277 l 1,61,62
 91 281 91 281 83 293 c 0,63,31
 78 301 78 301 78 309 c 128,-1,32
EndSplineSet
Validated: 1
EndChar

StartChar: eqless
Encoding: 8924 8924 116
Width: 799
VWidth: 1000
Flags: W
HStem: 602 57<76.4153 721.487>
LayerCount: 2
Fore
SplineSet
722 -132 m 0,0,1
 720 -160 720 -160 693 -164 c 1,2,3
 691 -164 l 2,4,5
 684 -164 684 -164 680 -162 c 2,6,7
 676 -160.5 l 2,8,9
 672 -159 672 -159 669 -157 c 2,10,-1
 102 115 l 2,11,12
 88 122 88 122 84 126 c 0,13,14
 76 134 76 134 76 144 c 2,15,-1
 76 148 l 2,16,17
 76 163 76 163 89 172 c 0,18,19
 91 173 91 173 95 175.5 c 128,-1,20
 99 178 99 178 100 178 c 2,21,-1
 667 451 l 2,22,23
 668 452 668 452 680 457 c 0,24,25
 685 459 685 459 690 459 c 0,26,27
 718 457 718 457 722 430 c 1,28,-1
 722 428 l 2,29,30
 722 411 722 411 710 403 c 1,31,-1
 698 397 l 1,32,-1
 180 147 l 1,33,-1
 696 -100 l 1,34,-1
 703 -103.5 l 2,35,36
 710 -107 710 -107 713 -110 c 0,37,38
 723 -120 723 -120 722 -132 c 0,0,1
722 631 m 0,39,40
 722 608 722 608 701 602 c 0,41,42
 692 599 692 599 677 599 c 2,43,-1
 121 599 l 2,44,45
 108 599 108 599 97 602 c 1,46,47
 76 610 76 610 76 629 c 2,48,-1
 76 631 l 2,49,50
 76 652 76 652 96 659 c 0,51,52
 105 662 105 662 121 662 c 2,53,-1
 677 662 l 2,54,55
 692 662 692 662 702 659 c 0,56,57
 722 653 722 653 722 631 c 0,39,40
EndSplineSet
Validated: 1
EndChar

StartChar: staroperator
Encoding: 8902 8902 117
Width: 625
VWidth: 1000
Flags: W
HStem: 523 20G<307 317.5>
LayerCount: 2
Fore
SplineSet
143 58 m 2,0,-1
 143 61 l 1,1,-1
 198 229 l 1,2,-1
 56 333 l 2,3,4
 49 337 49 337 49 347 c 0,5,6
 49 353 49 353 54 358.5 c 128,-1,7
 59 364 59 364 66 364 c 2,8,-1
 242 364 l 1,9,-1
 297 530 l 2,10,11
 301 543 301 543 313 543 c 0,12,13
 322 543 322 543 328 533 c 1,14,-1
 383 364 l 1,15,-1
 559 364 l 2,16,17
 565 364 565 364 570.5 359 c 128,-1,18
 576 354 576 354 576 347 c 0,19,20
 576 338 576 338 569 333 c 2,21,-1
 427 229 l 1,22,-1
 482 61 l 1,23,-1
 482 58 l 2,24,25
 482 51 482 51 477.5 45.5 c 128,-1,26
 473 40 473 40 465 40 c 0,27,28
 461 40 461 40 455 43 c 1,29,-1
 313 146 l 1,30,-1
 170 43 l 1,31,-1
 169 43 l 1,32,33
 168 42 168 42 167 42 c 0,34,35
 163 40 163 40 160 40 c 0,36,37
 143 40 143 40 143 58 c 2,0,-1
EndSplineSet
Validated: 1
EndChar

StartChar: maltesecross
Encoding: 10016 10016 118
Width: 876
Flags: W
HStem: 334 43<296.675 416 460 578.996>
VStem: 416 44<214.587 334 377 496.413>
LayerCount: 2
Fore
SplineSet
50 133 m 2,0,-1
 50 578 l 2,1,2
 50 585 50 585 55 591 c 128,-1,3
 60 597 60 597 70 599 c 1,4,-1
 71 599 l 1,5,-1
 72 599 l 1,6,7
 78 598 78 598 79 598 c 0,8,9
 83 596 83 596 88 591 c 2,10,-1
 89 590 l 1,11,-1
 90 589 l 1,12,13
 199 381 199 381 416 377 c 1,14,15
 412 594 412 594 205 704 c 1,16,-1
 204 705 l 1,17,-1
 203 706 l 2,18,19
 196 713 196 713 195 720 c 1,20,-1
 195 721 l 1,21,-1
 195 722 l 1,22,23
 196 727 196 727 196 729 c 0,24,25
 199 738 199 738 209 742 c 0,26,27
 212 743 212 743 216 743 c 2,28,-1
 659 743 l 2,29,30
 668 743 668 743 674 737 c 128,-1,31
 680 731 680 731 681 724 c 1,32,-1
 681 723 l 1,33,-1
 681 722 l 1,34,35
 680 716 680 716 680 715 c 0,36,37
 678 711 678 711 673 706 c 2,38,-1
 672 705 l 1,39,-1
 671 704 l 1,40,41
 464 594 464 594 460 377 c 1,42,43
 676 381 676 381 787 589 c 1,44,-1
 788 590 l 1,45,-1
 789 591 l 2,46,47
 791 593 791 593 792.5 594 c 2,48,-1
 794 595 l 2,49,50
 794 596 794 596 795 596 c 2,51,-1
 796 596 l 1,52,53
 800 598 800 598 803 599 c 1,54,-1
 804 599 l 1,55,-1
 805 599 l 1,56,57
 811 598 811 598 812 598 c 0,58,59
 821 595 821 595 825 585 c 0,60,61
 826 582 826 582 826 578 c 2,62,-1
 826 133 l 2,63,64
 826 128 826 128 823 123 c 1,65,66
 813 113 813 113 807 112 c 1,67,-1
 806 112 l 1,68,-1
 805 112 l 2,69,70
 797 112 797 112 791 118 c 2,71,-1
 787 122 l 1,72,73
 678 330 678 330 460 334 c 1,74,75
 464 117 464 117 671 7 c 1,76,-1
 672 6 l 1,77,-1
 673 5 l 2,78,79
 680 -2 680 -2 681 -9 c 1,80,-1
 681 -10 l 1,81,-1
 681 -11 l 1,82,83
 680 -17 680 -17 680 -18 c 0,84,85
 676 -28 676 -28 666 -32 c 0,86,87
 664 -33 664 -33 659 -33 c 2,88,-1
 216 -33 l 1,89,90
 203 -29 203 -29 200 -25 c 0,91,92
 196 -19 196 -19 195 -13 c 1,93,-1
 195 -12 l 1,94,-1
 195 -11 l 1,95,96
 196 -8 196 -8 196 -4 c 1,97,98
 198 0 198 0 203 5 c 2,99,-1
 204 6 l 1,100,-1
 205 7 l 1,101,102
 412 117 412 117 416 334 c 1,103,104
 199 330 199 330 90 122 c 1,105,-1
 89 120 l 1,106,-1
 87 119 l 2,107,108
 84 117 84 117 83 116 c 0,109,110
 80 114 80 114 74 112 c 1,111,-1
 73 112 l 1,112,-1
 72 112 l 1,113,114
 56 114 56 114 51 126 c 0,115,116
 50 129 50 129 50 133 c 2,0,-1
EndSplineSet
Validated: 1
EndChar

StartChar: lessdot
Encoding: 8918 8918 119
Width: 799
VWidth: 1000
Flags: W
HStem: 173 153<491.205 597.795>
VStem: 468 153<196.205 302.795>
LayerCount: 2
Fore
SplineSet
76 250 m 128,-1,1
 76 259 76 259 80 265 c 0,2,3
 84 272 84 272 96 279 c 1,4,-1
 679 559 l 2,5,6
 685 561 685 561 687 561 c 2,7,8
 689 561 l 1,9,10
 691 561 l 2,11,12
 696 561 696 561 699 560 c 0,13,14
 716 555 716 555 721 538 c 0,15,16
 722 535 722 535 722 530 c 0,17,18
 722 509 722 509 703 501 c 1,19,-1
 180 250 l 1,20,-1
 706 -3 l 1,21,22
 708 -4 l 2,23,24
 710 -5 710 -5 712.5 -7 c 128,-1,25
 715 -9 715 -9 717 -12 c 0,26,27
 722 -20 722 -20 722 -30 c 0,28,29
 722 -52 722 -52 702 -60 c 0,30,31
 696 -62 696 -62 691 -62 c 2,32,-1
 686 -62 l 2,33,34
 685 -62 685 -62 677 -58 c 2,35,-1
 93 222 l 2,36,37
 81 228 81 228 78 237 c 0,38,0
 76 241 76 241 76 250 c 128,-1,1
545 326 m 0,39,40
 576 326 576 326 598.5 304 c 128,-1,41
 621 282 621 282 621 250 c 128,-1,42
 621 218 621 218 598.5 195.5 c 128,-1,43
 576 173 576 173 545 173 c 0,44,45
 513 173 513 173 490.5 195.5 c 128,-1,46
 468 218 468 218 468 250 c 0,47,48
 468 281 468 281 490.5 303.5 c 128,-1,49
 513 326 513 326 545 326 c 0,39,40
EndSplineSet
Validated: 1
EndChar

StartChar: greaterdot
Encoding: 8919 8919 120
Width: 799
VWidth: 1000
Flags: W
HStem: 173 153<200.205 306.795>
VStem: 177 153<196.205 302.795>
LayerCount: 2
Fore
SplineSet
96 -2 m 1,0,-1
 618 249 l 1,1,-1
 93 501 l 2,2,3
 81 507 81 507 78 516 c 0,4,5
 76 520 76 520 76 529 c 0,6,7
 76 535 76 535 78 540 c 0,8,9
 86 560 86 560 108 560 c 0,10,11
 111 560 111 560 119 558 c 1,12,-1
 120 558 l 1,13,-1
 706 276 l 1,14,15
 708 275 l 2,16,17
 710 274 710 274 712.5 272 c 128,-1,18
 715 270 715 270 717 267 c 0,19,20
 722 260 722 260 722 249 c 0,21,22
 722 228 722 228 703 220 c 1,23,-1
 121 -60 l 2,24,25
 116 -63 116 -63 108 -63 c 0,26,27
 94 -63 94 -63 85 -53.5 c 128,-1,28
 76 -44 76 -44 76 -31 c 0,29,30
 76 -22 76 -22 80 -16 c 0,31,32
 84 -9 84 -9 96 -2 c 1,0,-1
254 326 m 128,-1,34
 286 326 286 326 308 304 c 128,-1,35
 330 282 330 282 330 250 c 128,-1,36
 330 218 330 218 307.5 195.5 c 128,-1,37
 285 173 285 173 254 173 c 0,38,39
 222 173 222 173 199.5 195.5 c 128,-1,40
 177 218 177 218 177 250 c 0,41,42
 177 281 177 281 199.5 303.5 c 128,-1,33
 222 326 222 326 254 326 c 128,-1,34
EndSplineSet
Validated: 1
EndChar

StartChar: dividemultiply
Encoding: 8903 8903 121
Width: 799
VWidth: 1000
Flags: W
HStem: -63 176<341.548 456.876> -10 21G<166.5 180.5 616.5 628.5> 218 63<48.4028 323 475 744.718> 386 176<341.548 456.876>
VStem: 312 175<-32.8765 82.8765 416.124 531.876>
LayerCount: 2
Fore
SplineSet
399 113 m 128,-1,1
 435 113 435 113 461 87 c 128,-1,2
 487 61 487 61 487 25 c 128,-1,3
 487 -11 487 -11 461 -37 c 128,-1,4
 435 -63 435 -63 399 -63 c 128,-1,5
 363 -63 363 -63 337.5 -37 c 128,-1,6
 312 -11 312 -11 312 25 c 128,-1,7
 312 61 312 61 337.5 87 c 128,-1,0
 363 113 363 113 399 113 c 128,-1,1
150 44 m 1,8,-1
 323 218 l 1,9,-1
 76 218 l 1,10,-1
 75 218 l 1,11,12
 64 220 64 220 55.5 228.5 c 128,-1,13
 47 237 47 237 47 250 c 1,14,15
 46 260 46 260 53 268 c 1,16,17
 60 278 60 278 75 281 c 1,18,-1
 76 281 l 1,19,-1
 323 281 l 1,20,-1
 150 455 l 2,21,22
 143 462 143 462 141 473 c 1,23,-1
 141 478 l 2,24,25
 141 484 141 484 143 489 c 0,26,27
 151 509 151 509 173 509 c 0,28,29
 185 509 185 509 193 502 c 2,30,31
 195 500 l 1,32,-1
 399 294 l 1,33,-1
 603 500 l 2,34,35
 605 502 605 502 606.5 503 c 128,-1,36
 608 504 608 504 609 505 c 0,37,38
 610 505 610 505 611 506 c 0,39,40
 618.5 509 618.5 509 626 509 c 0,41,42
 631 509 631 509 634 508 c 0,43,44
 651 503 651 503 656 486 c 0,45,46
 657 483 657 483 657 478 c 2,47,-1
 657 473 l 1,48,49
 656 464 656 464 648 456 c 2,50,-1
 475 281 l 1,51,-1
 723 281 l 1,52,-1
 724 281 l 1,53,54
 736 278 736 278 745 268 c 1,55,56
 751 259 751 259 751 250 c 0,57,58
 751 224 751 224 724 218 c 1,59,-1
 723 218 l 1,60,-1
 475 218 l 1,61,-1
 648 44 l 2,62,63
 657 35 657 35 657 22 c 0,64,65
 657 0 657 0 637 -8 c 0,66,67
 631 -10 631 -10 626 -10 c 2,68,69
 621 -10 l 1,70,71
 612 -9 612 -9 604 -1 c 2,72,-1
 399 205 l 1,73,-1
 195 0 l 1,74,75
 188 -10 188 -10 173 -10 c 0,76,77
 160 -10 160 -10 150.5 -1 c 128,-1,78
 141 8 141 8 141 22 c 0,79,80
 141 34 141 34 148 42 c 2,81,-1
 150 44 l 1,8,-1
399 562 m 128,-1,83
 435 562 435 562 461 536 c 128,-1,84
 487 510 487 510 487 474 c 128,-1,85
 487 438 487 438 461 412 c 128,-1,86
 435 386 435 386 399 386 c 128,-1,87
 363 386 363 386 337.5 412 c 128,-1,88
 312 438 312 438 312 474 c 128,-1,89
 312 510 312 510 337.5 536 c 128,-1,82
 363 562 363 562 399 562 c 128,-1,83
EndSplineSet
Validated: 1
EndChar

StartChar: lessdbleqlgreater
Encoding: 10891 10891 122
Width: 818
Flags: W
HStem: 172 64<79.4238 737.242> 319 64<83.2827 737.886>
LayerCount: 2
Fore
SplineSet
99 -245 m 2,0,-1
 616 -109 l 1,1,-1
 98 26 l 1,2,3
 83 31 83 31 79 47 c 0,4,5
 78 50 78 50 78 51 c 2,6,7
 78 53 l 1,8,-1
 78 55 l 2,9,10
 78 67 78 67 88 77.5 c 128,-1,11
 98 88 98 88 111 88 c 0,12,13
 113 88 113 88 122 85 c 2,14,-1
 720 -80 l 1,15,16
 730 -85 730 -85 734 -91 c 0,17,18
 739 -99 739 -99 739 -109 c 0,19,20
 739 -120 739 -120 732 -130 c 0,21,22
 726 -138 726 -138 720 -139 c 2,23,-1
 121 -304 l 2,24,25
 120 -304 120 -304 118.5 -305 c 128,-1,26
 117 -306 117 -306 114 -306 c 2,27,-1
 111 -306 l 1,28,29
 85 -303 85 -303 79 -282 c 0,30,31
 78 -279 78 -279 78 -274 c 0,32,33
 78 -264 78 -264 81 -259 c 0,34,35
 85 -252 85 -252 94 -247 c 0,36,37
 95 -246 95 -246 96.4536 -245.907 c 0,38,39
 98 -245 98 -245 99 -245 c 2,0,-1
78 203 m 0,40,41
 78 230 78 230 107 236 c 1,42,-1
 108 236 l 1,43,-1
 711 236 l 1,44,-1
 712 236 l 1,45,46
 723 234 723 234 731 224.5 c 128,-1,47
 739 215 739 215 739 203 c 0,48,49
 739 194 739 194 733 185 c 0,50,51
 725 174 725 174 712 172 c 1,52,-1
 711 172 l 1,53,-1
 108 172 l 1,54,-1
 107 172 l 1,55,56
 94 175 94 175 86 184 c 0,57,58
 78 192 78 192 78 203 c 0,40,41
78 351 m 0,59,60
 78 358 78 358 83 367 c 1,61,62
 92 380 92 380 107 383 c 1,63,-1
 108 383 l 1,64,-1
 711 383 l 1,65,-1
 712 383 l 1,66,67
 739 377 739 377 739 351 c 128,-1,68
 739 325 739 325 712 319 c 1,69,-1
 711 319 l 1,70,-1
 108 319 l 1,71,-1
 107 319 l 1,72,73
 88 324 88 324 81 338 c 0,74,75
 78 346 78 346 78 351 c 0,59,60
78 664 m 0,76,77
 78 675 78 675 85 685 c 0,78,79
 90 692 90 692 99 694 c 2,80,-1
 696 859 l 2,81,82
 702 861 702 861 704 861 c 2,83,-1
 706 861 l 1,84,-1
 708 861 l 2,85,86
 714 861 714 861 721 857 c 0,87,88
 737 849 737 849 739 832 c 1,89,-1
 739 829 l 2,90,91
 739 818 739 818 734 811 c 0,92,93
 729 803 729 803 720 800 c 2,94,-1
 201 664 l 1,95,-1
 720 529 l 1,96,97
 739 519 739 519 739 500 c 0,98,99
 739 479 739 479 721 470 c 0,100,101
 715 467 715 467 708 467 c 0,102,103
 706 467 706 467 701.5 468.5 c 128,-1,104
 697 470 697 470 695 470 c 2,105,-1
 99 635 l 2,106,107
 95 636 95 636 94 637 c 0,108,109
 85 642 85 642 81 649 c 1,110,111
 78 656.5 78 656.5 78 664 c 0,76,77
EndSplineSet
Validated: 1
EndChar

StartChar: greaterdbleqlless
Encoding: 10892 10892 123
Width: 818
Flags: W
HStem: 172 64<79.4238 737.242> 319 64<83.2827 737.886> 468 61<79.6064 126.249>
LayerCount: 2
Fore
SplineSet
78 -109 m 0,0,1
 78 -99 78 -99 81 -94 c 0,2,3
 85 -87 85 -87 94 -82 c 0,4,5
 95 -81 95 -81 96.4536 -80.9072 c 0,6,7
 98 -80 98 -80 99 -80 c 2,8,-1
 696 86 l 2,9,10
 702 88 702 88 704 88 c 2,11,-1
 706 88 l 1,12,-1
 708 88 l 2,13,14
 714 88 714 88 721 84 c 0,15,16
 737 76 737 76 739 59 c 1,17,18
 739 56 l 2,19,20
 739 46 739 46 734 38 c 128,-1,21
 729 30 729 30 720 27 c 2,22,-1
 201 -109 l 1,23,-1
 720 -244 l 1,24,25
 739 -254 739 -254 739 -273 c 0,26,27
 739 -294 739 -294 721 -303 c 0,28,29
 715 -306 715 -306 708 -306 c 0,30,31
 702 -306 702 -306 695 -303 c 1,32,-1
 99 -139 l 1,33,34
 93 -139 93 -139 85 -130 c 0,35,36
 78 -122 78 -122 78 -109 c 0,0,1
78 203 m 0,37,38
 78 230 78 230 107 236 c 1,39,-1
 108 236 l 1,40,-1
 711 236 l 1,41,-1
 712 236 l 1,42,43
 723 234 723 234 731 224.5 c 128,-1,44
 739 215 739 215 739 203 c 0,45,46
 739 194 739 194 733 185 c 0,47,48
 725 174 725 174 712 172 c 1,49,-1
 711 172 l 1,50,-1
 108 172 l 1,51,-1
 107 172 l 1,52,53
 94 175 94 175 86 184 c 0,54,55
 78 192 78 192 78 203 c 0,37,38
78 351 m 0,56,57
 78 358 78 358 83 367 c 1,58,59
 92 380 92 380 107 383 c 1,60,-1
 108 383 l 1,61,-1
 711 383 l 1,62,-1
 712 383 l 1,63,64
 739 377 739 377 739 351 c 128,-1,65
 739 325 739 325 712 319 c 1,66,-1
 711 319 l 1,67,-1
 108 319 l 1,68,-1
 107 319 l 1,69,70
 88 324 88 324 81 338 c 0,71,72
 78 346 78 346 78 351 c 0,56,57
78 822 m 2,73,-1
 78 827 l 1,74,-1
 78 829 l 2,75,76
 78 841 78 841 88 851.5 c 128,-1,77
 98 862 98 862 111 862 c 0,78,79
 113 862 113 862 122 859 c 2,80,-1
 720 695 l 1,81,82
 726 695 726 695 732 686 c 1,83,84
 739 678 739 678 739 665 c 0,85,86
 739 654 739 654 734 647 c 0,87,88
 729 639 729 639 720 636 c 2,89,-1
 121 470 l 2,90,91
 117 468 117 468 113 468 c 2,92,-1
 111 468 l 1,93,94
 85 471 85 471 79 492 c 0,95,96
 78 495 78 495 78 500 c 0,97,98
 78 510 78 510 81 515 c 0,99,100
 85 522 85 522 94 527 c 0,101,102
 95 528 95 528 96.4536 528.093 c 0,103,104
 98 529 98 529 99 529 c 2,105,-1
 616 665 l 1,106,-1
 98 800 l 1,107,108
 78 807 78 807 78 822 c 2,73,-1
EndSplineSet
Validated: 1
EndChar

StartChar: lessorapproxeql
Encoding: 10885 10885 124
Width: 818
Flags: W
HStem: -239 81<495.798 662.998> -93 81<154.002 321.202> 9 82<495.798 662.998> 156 81<154.002 321.202> 329 21G<705.5 710.5>
VStem: 48 51<-235.746 -142.756 14.2537 106.244> 718 51<-108.244 -15.2231 139.756 233.777>
LayerCount: 2
Fore
SplineSet
48 -204 m 5,0,-1
 48 -195 l 2,1,2
 48 -118 48 -118 102.5 -65 c 128,-1,3
 157 -12 157 -12 233 -12 c 0,4,5
 280 -12 280 -12 329 -35 c 128,-1,6
 378 -58 378 -58 413 -85 c 128,-1,7
 448 -112 448 -112 494.5 -135 c 128,-1,8
 541 -158 541 -158 584 -158 c 0,9,10
 635 -158 635 -158 676.5 -127 c 128,-1,11
 718 -96 718 -96 718 -48 c 2,12,-1
 718 -47 l 1,13,14
 722 -22 722 -22 733 -15 c 0,15,16
 739 -12 739 -12 743 -12 c 0,17,18
 749 -13 749 -13 750 -13 c 0,19,20
 765 -18 765 -18 769 -47 c 1,21,-1
 769 -56 l 2,22,23
 769 -133 769 -133 714.5 -186 c 128,-1,24
 660 -239 660 -239 584 -239 c 0,25,26
 537 -239 537 -239 488 -216 c 128,-1,27
 439 -193 439 -193 404 -166 c 128,-1,28
 369 -139 369 -139 322.5 -116 c 128,-1,29
 276 -93 276 -93 233 -93 c 0,30,31
 182 -93 182 -93 140.5 -124 c 128,-1,32
 99 -155 99 -155 99 -203 c 2,33,-1
 99 -204 l 1,34,35
 96 -229 96 -229 85 -236 c 0,36,37
 79 -239 79 -239 74 -239 c 0,38,39
 67 -238 67 -238 64 -236 c 0,40,41
 50 -228 50 -228 48 -204 c 5,0,-1
48 45 m 5,42,-1
 48 54 l 2,43,44
 48 131 48 131 102.5 184 c 128,-1,45
 157 237 157 237 233 237 c 0,46,47
 280 237 280 237 329 214 c 128,-1,48
 378 191 378 191 413 164 c 128,-1,49
 448 137 448 137 494.5 114 c 128,-1,50
 541 91 541 91 584 91 c 0,51,52
 635 91 635 91 676.5 122 c 128,-1,53
 718 153 718 153 718 201 c 2,54,-1
 718 202 l 1,55,56
 722 227 722 227 733 234 c 0,57,58
 739 237 739 237 743 237 c 0,59,60
 749 236 749 236 750 236 c 0,61,62
 765 231 765 231 769 202 c 1,63,-1
 769 192 l 2,64,65
 769 115 769 115 714.5 62 c 128,-1,66
 660 9 660 9 584 9 c 0,67,68
 537 9 537 9 488 32 c 128,-1,69
 439 55 439 55 404 82.5 c 128,-1,70
 369 110 369 110 322.5 133 c 128,-1,71
 276 156 276 156 233 156 c 0,72,73
 182 156 182 156 140.5 125 c 128,-1,74
 99 94 99 94 99 46 c 2,75,-1
 99 45 l 1,76,77
 96 22 96 22 87 14 c 0,78,79
 82 9 82 9 74 9 c 0,80,81
 69 9 69 9 64 12 c 0,82,83
 50 22 50 22 48 45 c 5,42,-1
78 586 m 0,84,85
 78 607 78 607 98 616 c 1,86,-1
 695 841 l 2,87,88
 699 843 699 843 708 843 c 0,89,90
 714 843 714 843 721 839 c 0,91,92
 737 831 737 831 739 814 c 1,93,-1
 739 811 l 2,94,95
 739 800 739 800 734 793 c 0,96,97
 729 785 729 785 720 782 c 2,98,-1
 191 586 l 1,99,-1
 720 391 l 1,100,101
 739 382 739 382 739 361 c 0,102,103
 739 339 739 339 719 331 c 0,104,105
 713 329 713 329 708 329 c 128,-1,106
 703 329 703 329 700 330 c 0,107,108
 698 330 698 330 694 332 c 2,109,-1
 98 557 l 2,110,111
 95 558 95 558 94 559 c 0,112,113
 85 564 85 564 81 571 c 1,114,115
 78 578.5 78 578.5 78 586 c 0,84,85
EndSplineSet
Validated: 1
EndChar

StartChar: greaterorapproxeql
Encoding: 10886 10886 125
Width: 818
Flags: W
HStem: -239 81<495.798 662.998> -93 81<154.002 321.202> 9 82<495.798 662.998> 156 81<154.002 321.202> 329 62<79.6194 98>
VStem: 48 51<-235.746 -142.756 14.2537 106.244> 718 51<-108.244 -15.2231 139.756 233.777>
LayerCount: 2
Fore
SplineSet
48 -204 m 5,0,-1
 48 -195 l 2,1,2
 48 -118 48 -118 102.5 -65 c 128,-1,3
 157 -12 157 -12 233 -12 c 0,4,5
 280 -12 280 -12 329 -35 c 128,-1,6
 378 -58 378 -58 413 -85 c 128,-1,7
 448 -112 448 -112 494.5 -135 c 128,-1,8
 541 -158 541 -158 584 -158 c 0,9,10
 635 -158 635 -158 676.5 -127 c 128,-1,11
 718 -96 718 -96 718 -48 c 2,12,-1
 718 -47 l 1,13,14
 722 -22 722 -22 733 -15 c 0,15,16
 739 -12 739 -12 743 -12 c 0,17,18
 749 -13 749 -13 750 -13 c 0,19,20
 765 -18 765 -18 769 -47 c 1,21,-1
 769 -56 l 2,22,23
 769 -133 769 -133 714.5 -186 c 128,-1,24
 660 -239 660 -239 584 -239 c 0,25,26
 537 -239 537 -239 488 -216 c 128,-1,27
 439 -193 439 -193 404 -166 c 128,-1,28
 369 -139 369 -139 322.5 -116 c 128,-1,29
 276 -93 276 -93 233 -93 c 0,30,31
 182 -93 182 -93 140.5 -124 c 128,-1,32
 99 -155 99 -155 99 -203 c 2,33,-1
 99 -204 l 1,34,35
 96 -229 96 -229 85 -236 c 0,36,37
 79 -239 79 -239 74 -239 c 0,38,39
 67 -238 67 -238 64 -236 c 0,40,41
 50 -228 50 -228 48 -204 c 5,0,-1
48 45 m 5,42,-1
 48 54 l 2,43,44
 48 131 48 131 102.5 184 c 128,-1,45
 157 237 157 237 233 237 c 0,46,47
 280 237 280 237 329 214 c 128,-1,48
 378 191 378 191 413 164 c 128,-1,49
 448 137 448 137 494.5 114 c 128,-1,50
 541 91 541 91 584 91 c 0,51,52
 635 91 635 91 676.5 122 c 128,-1,53
 718 153 718 153 718 201 c 2,54,-1
 718 202 l 1,55,56
 722 227 722 227 733 234 c 0,57,58
 739 237 739 237 743 237 c 0,59,60
 749 236 749 236 750 236 c 0,61,62
 765 231 765 231 769 202 c 1,63,-1
 769 192 l 2,64,65
 769 115 769 115 714.5 62 c 128,-1,66
 660 9 660 9 584 9 c 0,67,68
 537 9 537 9 488 32 c 128,-1,69
 439 55 439 55 404 82.5 c 128,-1,70
 369 110 369 110 322.5 133 c 128,-1,71
 276 156 276 156 233 156 c 0,72,73
 182 156 182 156 140.5 125 c 128,-1,74
 99 94 99 94 99 46 c 2,75,-1
 99 45 l 1,76,77
 96 22 96 22 87 14 c 0,78,79
 82 9 82 9 74 9 c 0,80,81
 69 9 69 9 64 12 c 0,82,83
 50 22 50 22 48 45 c 5,42,-1
98 391 m 5,84,-1
 626 586 l 1,85,-1
 98 782 l 2,86,87
 95 783 95 783 94 784 c 0,88,89
 85 789 85 789 81 796 c 1,90,91
 78 803.5 78 803.5 78 811 c 0,92,93
 78 816 78 816 79 819 c 0,94,95
 86 843 86 843 111 843 c 0,96,97
 115 843 115 843 123 841 c 2,98,-1
 720 616 l 1,99,100
 739 607 739 607 739 586 c 0,101,102
 739 576 739 576 734 568 c 128,-1,103
 729 560 729 560 720 557 c 2,104,-1
 124 332 l 1,105,106
 119 329 119 329 111 329 c 0,107,108
 82 331 82 331 78 358 c 1,109,-1
 78 361 l 2,110,111
 78 382 78 382 98 391 c 5,84,-1
EndSplineSet
Validated: 1
EndChar

StartChar: slteqlless
Encoding: 10901 10901 126
Width: 818
Flags: W
HStem: 327 21G<96.5 115> 409 61<720 737.497>
LayerCount: 2
Fore
SplineSet
78 152 m 0,0,1
 78 161 78 161 82 167 c 0,2,3
 86 174 86 174 98 181 c 1,4,-1
 695 468 l 2,5,6
 699 470 699 470 708 470 c 0,7,8
 714 470 714 470 721 466 c 0,9,10
 737 458 737 458 739 441 c 1,11,12
 739 438 l 2,13,14
 739 417 739 417 720 409 c 1,15,-1
 184 152 l 1,16,-1
 723 -108 l 1,17,18
 725 -109 l 2,19,20
 727 -110 727 -110 729.5 -112 c 128,-1,21
 732 -114 732 -114 734 -117 c 0,22,23
 739 -124 739 -124 739 -135 c 0,24,25
 739 -156 739 -156 721 -165 c 0,26,27
 715 -168 715 -168 708 -168 c 0,28,29
 703 -168 703 -168 700 -167 c 0,30,31
 697 -167 697 -167 694 -164 c 1,32,-1
 95 123 l 1,33,-1
 93 124.5 l 2,34,35
 91 126 91 126 88 128 c 128,-1,36
 85 130 85 130 83 134 c 0,37,38
 78 142 78 142 78 152 c 0,0,1
95 387 m 1,39,-1
 695 676 l 2,40,41
 699 678 699 678 708 678 c 0,42,43
 714 678 714 678 721 674 c 0,44,45
 737 666 737 666 739 649 c 1,46,-1
 739 646 l 2,47,48
 739 636 739 636 736 631 c 1,49,50
 733 623 733 623 723 618 c 2,51,-1
 124 330 l 2,52,53
 119 327 119 327 111 327 c 0,54,55
 82 329 82 329 78 356 c 1,56,-1
 78 359 l 2,57,58
 78 366 78 366 83 376 c 0,59,60
 88 385 88 385 95 387 c 1,39,-1
EndSplineSet
Validated: 1
EndChar

StartChar: slteqlgreater
Encoding: 10902 10902 127
Width: 818
Flags: W
HStem: -169 62<80.0098 98> 327 21G<705.5 710.5>
LayerCount: 2
Fore
SplineSet
98 -107 m 1,0,-1
 633 151 l 1,1,-1
 95 409 l 2,2,3
 83 415 83 415 80 424 c 0,4,5
 78 428 78 428 78 437 c 0,6,7
 78 442 78 442 79 445 c 0,8,9
 86 469 86 469 111 469 c 0,10,11
 114 469 114 469 122 467 c 1,12,-1
 123 467 l 1,13,-1
 723 178 l 1,14,15
 725 177 l 2,16,17
 727 176 727 176 729.5 174 c 128,-1,18
 732 172 732 172 734 169 c 0,19,20
 739 162 739 162 739 151 c 0,21,22
 739 134 739 134 726 124 c 0,23,24
 725 123 725 123 724 123 c 0,25,26
 723 122 723 122 722 122 c 0,27,28
 721 121 721 121 720 121 c 2,29,-1
 124 -166 l 2,30,31
 119 -169 119 -169 111 -169 c 0,32,33
 99 -169 99 -169 88.5 -159 c 128,-1,34
 78 -149 78 -149 78 -136 c 0,35,36
 78 -127 78 -127 82 -121 c 0,37,38
 86 -114 86 -114 98 -107 c 1,0,-1
78 646 m 128,-1,40
 78 651 78 651 79 654 c 0,41,42
 86 678 86 678 111 678 c 0,43,44
 114 678 114 678 122 676 c 1,45,-1
 123 676 l 1,46,-1
 721 389 l 1,47,48
 739 379 739 379 739 359 c 0,49,50
 739 337 739 337 719 329 c 0,51,52
 713 327 713 327 708 327 c 128,-1,53
 703 327 703 327 700 328 c 0,54,55
 697 328 697 328 694 331 c 1,56,-1
 98 617 l 2,57,58
 88 622 88 622 85 626 c 0,59,60
 81 632 81 632 80 635 c 0,61,39
 78 641 78 641 78 646 c 128,-1,40
EndSplineSet
Validated: 1
EndChar

StartChar: notexistential
Encoding: 8708 8708 128
Width: 571
VWidth: 1000
Flags: W
HStem: -10 63<48.4028 171 250 460> 316 63<68.2202 245 325 460> 641 63<48.4028 320 399 460>
VStem: 140 62<-179.734 -126.798> 368 62<820.798 873.734> 460 63<53 316 379 641>
LayerCount: 2
Fore
SplineSet
140 -150 m 2,0,-1
 140 -144 l 1,1,-1
 171 -10 l 1,2,-1
 76 -10 l 1,3,-1
 75 -10 l 1,4,5
 64 -8 64 -8 55.5 0.5 c 128,-1,6
 47 9 47 9 47 22 c 1,7,8
 46 32 46 32 53 40 c 1,9,10
 60 50 60 50 75 53 c 1,11,-1
 76 53 l 1,12,-1
 185 53 l 1,13,-1
 245 316 l 1,14,-1
 90 316 l 1,15,-1
 89 316 l 1,16,17
 78 319 78 319 73 323 c 0,18,19
 61 332 61 332 61 347 c 0,20,21
 61 358 61 358 68 367 c 0,22,23
 75 375 75 375 88 379 c 1,24,-1
 90 379 l 1,25,-1
 260 379 l 1,26,-1
 320 641 l 1,27,-1
 76 641 l 1,28,-1
 75 641 l 1,29,30
 64 643 64 643 55.5 651.5 c 128,-1,31
 47 660 47 660 47 673 c 1,32,33
 46 683 46 683 53 691 c 1,34,35
 60 701 60 701 75 704 c 1,36,-1
 76 704 l 1,37,-1
 334 704 l 1,38,-1
 368 852 l 1,39,40
 374 864 374 864 379 868 c 0,41,42
 388 875 388 875 399 875 c 0,43,44
 411 875 411 875 420.5 866 c 128,-1,45
 430 857 430 857 430 844 c 2,46,-1
 430 838 l 1,47,-1
 399 704 l 1,48,-1
 495 704 l 1,49,-1
 496 704 l 1,50,51
 508 700 508 700 512 697 c 0,52,53
 523 689 523 689 523 675 c 2,54,-1
 523 19 l 1,55,-1
 523 18 l 1,56,57
 520 7 520 7 515 1 c 0,58,59
 507 -10 507 -10 494 -10 c 2,60,-1
 236 -10 l 1,61,-1
 202 -158 l 1,62,63
 196 -170 196 -170 191 -174 c 0,64,65
 182 -181 182 -181 171 -181 c 0,66,67
 159 -181 159 -181 149.5 -172 c 128,-1,68
 140 -163 140 -163 140 -150 c 2,0,-1
250 53 m 1,69,-1
 460 53 l 1,70,-1
 460 316 l 1,71,-1
 310 316 l 1,72,-1
 250 53 l 1,69,-1
325 379 m 1,73,-1
 460 379 l 1,74,-1
 460 641 l 1,75,-1
 385 641 l 1,76,-1
 325 379 l 1,73,-1
EndSplineSet
Validated: 1
EndChar

StartChar: emptyset
Encoding: 8709 8709 129
Width: 799
VWidth: 1000
Flags: W
HStem: -11 63<296.721 499.663> 541 63<298.669 501.279>
VStem: 92 63<194.741 397.786> 643 64<195.484 398.145>
LayerCount: 2
Fore
SplineSet
47 21 m 0,0,1
 47 33 47 33 54 41 c 2,2,3
 56 43 l 1,4,-1
 147 121 l 1,5,6
 92 199 92 199 92 297 c 0,7,8
 92 424 92 424 182.5 514 c 128,-1,9
 273 604 273 604 400 604 c 0,10,11
 473 604 473 604 534 572 c 1,12,13
 562 559 562 559 610 520 c 1,14,-1
 698 596 l 2,15,16
 704 601 704 601 711 603 c 0,17,18
 713 604 713 604 714 604 c 2,19,-1
 716 604 l 1,20,21
 719 604 l 1,22,23
 742 601 742 601 749 584 c 0,24,25
 751 578 751 578 751 573 c 2,26,27
 751 568 l 1,28,29
 749 558 749 558 741 550 c 2,30,-1
 651 472 l 1,31,32
 707 393 707 393 707 297 c 0,33,34
 707 169 707 169 616.5 79 c 128,-1,35
 526 -11 526 -11 398 -11 c 0,36,37
 325 -11 325 -11 264 21 c 1,38,39
 236 34 236 34 188 73 c 1,40,-1
 100 -3 l 2,41,42
 94 -8 94 -8 87 -10 c 0,43,44
 85 -11 85 -11 84 -11 c 2,45,-1
 82 -11 l 1,46,47
 79 -11 l 2,48,49
 66 -11 66 -11 56.5 -1.5 c 128,-1,50
 47 8 47 8 47 21 c 0,0,1
236 115 m 1,51,52
 305 52 305 52 399 52 c 0,53,54
 499 52 499 52 571 124 c 128,-1,55
 643 196 643 196 643 297 c 0,56,57
 643 369 643 369 603 431 c 1,58,-1
 236 115 l 1,51,52
195 162 m 1,59,-1
 562 478 l 1,60,61
 493 541 493 541 399 541 c 0,62,63
 299 541 299 541 227 469 c 128,-1,64
 155 397 155 397 155 297 c 0,65,66
 155 224 155 224 195 162 c 1,59,-1
EndSplineSet
Validated: 1
EndChar

StartChar: hslash
Encoding: 8463 8463 130
Width: 556
VWidth: 1000
Flags: W
HStem: -21 49<420.135 474.32> 403 49<287.24 397.119> 460 51<60.2969 103.69> 582 51<478.568 521.764>
VStem: 329 89<30.7866 128.958> 403 92<240.374 399.019> 523 52<86.0474 157.75>
LayerCount: 2
Fore
SplineSet
45 32 m 2,0,-1
 157 479 l 1,1,-1
 91 460 l 1,2,-1
 86 460 l 2,3,4
 76 460 76 460 68 468 c 128,-1,5
 60 476 60 476 60 486 c 0,6,7
 60 506 60 506 79 511 c 2,8,-1
 172 538 l 1,9,-1
 190 609 l 2,10,11
 190 612 190 612 190.5 616 c 128,-1,12
 191 620 191 620 191 621 c 0,13,14
 191 625 191 625 188 628 c 0,15,16
 177 638 177 638 127 638 c 2,17,-1
 114 638 l 1,18,-1
 127 692 l 1,19,-1
 310 705 l 1,20,-1
 276 570 l 1,21,-1
 491 633 l 1,22,-1
 496 633 l 2,23,24
 506 633 506 633 514 625.5 c 128,-1,25
 522 618 522 618 522 607 c 0,26,27
 522 587 522 587 503 582 c 2,28,-1
 261 511 l 1,29,-1
 234 401 l 1,30,31
 292 452 292 452 364 452 c 0,32,33
 423 452 423 452 459 421 c 128,-1,34
 495 390 495 390 495 332 c 0,35,36
 495 273 495 273 430 102 c 0,37,38
 418 69 418 69 418 48 c 0,39,40
 418 38 418 38 421 33 c 128,-1,41
 424 28 424 28 429 28 c 0,42,43
 455 28 455 28 477 53 c 128,-1,44
 499 78 499 78 508 101.5 c 128,-1,45
 517 125 517 125 523 148 c 1,46,47
 523 156 523 156 533 162 c 0,48,49
 538 165 538 165 543 165 c 2,50,-1
 555 165 l 1,51,52
 566 162 566 162 569 158 c 0,53,54
 575 150 575 150 575 142 c 2,55,-1
 575 141 l 1,56,-1
 575 140 l 1,57,58
 566 104 566 104 549.5 70 c 128,-1,59
 533 36 533 36 500 7.5 c 128,-1,60
 467 -21 467 -21 428 -21 c 0,61,62
 387 -21 387 -21 358 5.5 c 128,-1,63
 329 32 329 32 329 73 c 0,64,65
 329 93 329 93 337 114 c 0,66,67
 403 286 403 286 403 347 c 0,68,69
 403 403 403 403 362 403 c 0,70,71
 266 403 266 403 204 282 c 1,72,-1
 139 20 l 1,73,74
 133 3 133 3 119 -9 c 128,-1,75
 105 -21 105 -21 86 -21 c 0,76,77
 68 -21 68 -21 56 -10 c 128,-1,78
 44 1 44 1 44 19 c 0,79,80
 44 27 44 27 45 32 c 2,0,-1
EndSplineSet
Validated: 1
EndChar

StartChar: Omegainv
Encoding: 8487 8487 131
Width: 742
VWidth: 1000
Flags: W
HStem: -32 49<275.465 466.442> 606 87<111.095 224 517 629.905>
VStem: 47 123<131.218 327.693> 571 123<131.218 327.427>
LayerCount: 2
Fore
SplineSet
129 439 m 1,0,-1
 160 485 l 2,1,2
 209 559 209 559 224 606 c 1,3,-1
 175 606 l 2,4,5
 155 606 155 606 144.5 606 c 128,-1,6
 134 606 134 606 124 603 c 128,-1,7
 114 600 114 600 111 598.5 c 128,-1,8
 108 597 108 597 103.5 587.5 c 128,-1,9
 99 578 99 578 98.5 572 c 128,-1,10
 98 566 98 566 94.5 548 c 128,-1,11
 91 530 91 530 88 517 c 2,12,-1
 86 509 l 1,13,-1
 34 509 l 1,14,-1
 72 693 l 1,15,-1
 262 693 l 2,16,17
 269 693 269 693 275 688 c 0,18,19
 283 680 283 680 283 670 c 0,20,21
 283 617 283 617 265.5 555 c 128,-1,22
 248 493 248 493 226.5 446 c 128,-1,23
 205 399 205 399 187.5 339 c 128,-1,24
 170 279 170 279 170 228 c 0,25,26
 170 138 170 138 226 77.5 c 128,-1,27
 282 17 282 17 371 17 c 128,-1,28
 460 17 460 17 515.5 77.5 c 128,-1,29
 571 138 571 138 571 228 c 0,30,31
 571 279 571 279 553.5 339 c 128,-1,32
 536 399 536 399 514.5 446 c 128,-1,33
 493 493 493 493 475.5 555 c 128,-1,34
 458 617 458 617 458 670 c 0,35,36
 458 679 458 679 464.5 686 c 128,-1,37
 471 693 471 693 480 693 c 2,38,-1
 669 693 l 1,39,-1
 707 509 l 1,40,-1
 655 509 l 1,41,-1
 653 517 l 2,42,43
 650 530 650 530 646.5 548 c 128,-1,44
 643 566 643 566 642.5 572 c 128,-1,45
 642 578 642 578 637.5 587.5 c 128,-1,46
 633 597 633 597 630 598.5 c 128,-1,47
 627 600 627 600 617 603 c 128,-1,48
 607 606 607 606 596.5 606 c 128,-1,49
 586 606 586 606 566 606 c 2,50,-1
 517 606 l 1,51,52
 532 559 532 559 581 485 c 2,53,-1
 613 437 l 2,54,55
 694 315 694 315 694 228 c 0,56,57
 694 167 694 167 664.5 116.5 c 128,-1,58
 635 66 635 66 587.5 34.5 c 128,-1,59
 540 3 540 3 483.5 -14.5 c 128,-1,60
 427 -32 427 -32 371 -32 c 128,-1,61
 315 -32 315 -32 258.5 -14.5 c 128,-1,62
 202 3 202 3 154 34.5 c 128,-1,63
 106 66 106 66 76.5 116.5 c 128,-1,64
 47 167 47 167 47 228 c 0,65,66
 47 315 47 315 129 439 c 1,0,-1
EndSplineSet
Validated: 1
EndChar

StartChar: beth
Encoding: 8502 8502 132
Width: 685
VWidth: 1000
Flags: W
HStem: -32 151<65.7656 574> 582 144<109.895 573.44>
VStem: 574 63<119 581.216>
LayerCount: 2
Fore
SplineSet
-18 -0 m 0,0,1
 -16 14 -16 14 -11 20 c 2,2,3
 -9 22 l 1,4,-1
 78 110 l 2,5,6
 85 117 85 117 91 118 c 0,7,8
 94 118 94 118 97 119 c 1,9,-1
 98 119 l 1,10,-1
 574 119 l 1,11,-1
 574 563 l 2,12,13
 574 582 574 582 539 582 c 2,14,-1
 141 582 l 2,15,16
 114 582 114 582 95.5 592 c 128,-1,17
 77 602 77 602 67.5 614.5 c 128,-1,18
 58 627 58 627 53 649.5 c 128,-1,19
 48 672 48 672 47.5 687 c 128,-1,20
 47 702 47 702 47 727 c 2,21,-1
 47 745 l 1,22,-1
 47 746 l 1,23,24
 49 757 49 757 57.5 765 c 128,-1,25
 66 773 66 773 79 773 c 128,-1,26
 92 773 92 773 101 763 c 0,27,28
 104 759 104 759 110 747.5 c 128,-1,29
 116 736 116 736 123.5 731 c 128,-1,30
 131 726 131 726 145 726 c 2,31,-1
 543 726 l 2,32,33
 569 726 569 726 588 716.5 c 128,-1,34
 607 707 607 707 616 694 c 128,-1,35
 625 681 625 681 630 658.5 c 128,-1,36
 635 636 635 636 636 620.5 c 128,-1,37
 637 605 637 605 637 580 c 2,38,-1
 637 119 l 1,39,-1
 674 119 l 1,40,-1
 675 119 l 1,41,42
 702 113 702 113 702 87 c 0,43,44
 702 75 702 75 695 67 c 2,45,-1
 693 65 l 1,46,-1
 605 -23 l 2,47,48
 600 -27 600 -27 599 -27 c 0,49,50
 598 -28 598 -28 594 -29 c 128,-1,51
 590 -30 590 -30 589 -31 c 2,52,-1
 587 -32 l 1,53,-1
 10 -32 l 1,54,-1
 8 -32 l 1,55,56
 -5 -28 -5 -28 -12 -18 c 0,57,58
 -15 -14 -15 -14 -17 -6 c 0,59,60
 -17 -5 -17 -5 -17.5 -3 c 128,-1,61
 -18 -1 -18 -1 -18 -0 c 0,0,1
EndSplineSet
Validated: 1
EndChar

StartChar: daleth
Encoding: 8504 8504 133
Width: 685
VWidth: 1000
Flags: W
HStem: 582 144<109.895 538>
VStem: 538 101<-35.2732 360.007> 538 64<355.045 582>
LayerCount: 2
Fore
SplineSet
538 101 m 2,0,-1
 538 582 l 1,1,-1
 141 582 l 2,2,3
 114 582 114 582 95.5 592 c 128,-1,4
 77 602 77 602 67.5 614.5 c 128,-1,5
 58 627 58 627 53 649.5 c 128,-1,6
 48 672 48 672 47.5 687 c 128,-1,7
 47 702 47 702 47 727 c 2,8,-1
 47 745 l 1,9,-1
 47 747 l 1,10,11
 50 757 50 757 57 764 c 0,12,13
 62 769 62 769 71 772 c 0,14,15
 74 773 74 773 79 773 c 0,16,17
 92 773 92 773 101 763 c 0,18,19
 104 759 104 759 110 747.5 c 128,-1,20
 116 736 116 736 123.5 731 c 128,-1,21
 131 726 131 726 145 726 c 2,22,-1
 572 726 l 2,23,24
 603 726 603 726 627.5 706 c 128,-1,25
 652 686 652 686 652 654 c 0,26,27
 652 606 652 606 602 587 c 1,28,29
 603 507 603 507 621 345 c 0,30,31
 639 177 639 177 639 91 c 0,32,33
 639 -54 639 -54 585 -54 c 0,34,35
 573 -54 573 -54 564.5 -45.5 c 128,-1,36
 556 -37 556 -37 554 -29 c 0,37,38
 538 40 538 40 538 101 c 2,0,-1
EndSplineSet
Validated: 1
EndChar

StartChar: gimel
Encoding: 8503 8503 134
Width: 456
VWidth: 1000
Flags: W
HStem: -32 151<86.2493 289.797> 582 144<109.895 310>
VStem: 310 101<119 360.007> 310 64<355.045 582>
LayerCount: 2
Fore
SplineSet
-18 -0 m 0,0,1
 -18 12 -18 12 -10 22 c 1,2,-1
 -9 23 l 1,3,-1
 79 110 l 2,4,5
 83 114 83 114 86 116 c 0,6,7
 94 119 94 119 99 119 c 2,8,-1
 310 119 l 1,9,-1
 310 582 l 1,10,-1
 141 582 l 2,11,12
 114 582 114 582 95.5 592 c 128,-1,13
 77 602 77 602 67.5 614.5 c 128,-1,14
 58 627 58 627 53 649.5 c 128,-1,15
 48 672 48 672 47.5 687 c 128,-1,16
 47 702 47 702 47 727 c 2,17,-1
 47 745 l 1,18,-1
 47 747 l 1,19,20
 50 757 50 757 57 764 c 0,21,22
 62 769 62 769 71 772 c 0,23,24
 74 773 74 773 79 773 c 0,25,26
 92 773 92 773 101 763 c 0,27,28
 104 759 104 759 110 747.5 c 128,-1,29
 116 736 116 736 123.5 731 c 128,-1,30
 131 726 131 726 145 726 c 2,31,-1
 344 726 l 2,32,33
 375 726 375 726 399.5 706 c 128,-1,34
 424 686 424 686 424 654 c 0,35,36
 424 606 424 606 374 587 c 1,37,38
 375 507 375 507 393 345 c 0,39,40
 411 177 411 177 411 91 c 0,41,42
 411 -54 411 -54 357 -54 c 0,43,44
 345 -54 345 -54 337 -45 c 0,45,46
 323 -30 323 -30 316 17 c 1,47,-1
 277 -23 l 2,48,49
 271 -29 271 -29 265 -31 c 1,50,-1
 262 -31 l 1,51,52
 261 -32 261 -32 260 -32 c 2,53,-1
 257 -32 l 1,54,-1
 10 -32 l 1,55,-1
 8 -32 l 1,56,57
 -5 -28 -5 -28 -12 -18 c 0,58,59
 -15 -14 -15 -14 -17 -6 c 0,60,61
 -17 -5 -17 -5 -17.5 -3 c 128,-1,62
 -18 -1 -18 -1 -18 -0 c 0,0,1
EndSplineSet
Validated: 1
EndChar

StartChar: Finv
Encoding: 8498 8498 135
Width: 571
VWidth: 1000
Flags: W
HStem: -10 63<48.4028 460> 316 63<203 460>
VStem: 460 63<53 316 379 702.517>
LayerCount: 2
Fore
SplineSet
47 22 m 0,0,1
 47 32 47 32 53 40 c 0,2,3
 60 50 60 50 75 53 c 1,4,-1
 76 53 l 1,5,-1
 460 53 l 1,6,-1
 460 316 l 1,7,-1
 229 316 l 1,8,-1
 228 316 l 1,9,10
 217 319 217 319 211 325 c 1,11,12
 200 331 200 331 201 347 c 0,13,14
 201.259 355.222 201.259 355.222 202 353 c 1,15,16
 204 361 204 361 207 365 c 0,17,18
 214 375 214 375 227 379 c 1,19,-1
 229 379 l 1,20,-1
 460 379 l 1,21,-1
 460 676 l 1,22,-1
 460 677 l 1,23,24
 466 704 466 704 492 704 c 0,25,26
 501 704 501 704 510 698 c 0,27,28
 521 690 521 690 523 677 c 1,29,-1
 523 676 l 1,30,-1
 523 20 l 2,31,32
 523 7 523 7 513 -2 c 0,33,34
 505 -9 505 -9 496 -10 c 1,35,-1
 495 -10 l 1,36,-1
 76 -10 l 1,37,-1
 75 -10 l 1,38,39
 64 -8 64 -8 55.5 0.5 c 128,-1,40
 47 9 47 9 47 22 c 0,0,1
EndSplineSet
Validated: 1
EndChar

StartChar: Gmir
Encoding: 8513 8513 136
Width: 656
VWidth: 1000
Flags: W
HStem: -32 63<93.6112 363.383> 256 63<93 259.718> 652 63<135.266 363.34>
VStem: 30 63<41.2012 256> 539 63<220.621 461.179>
LayerCount: 2
Fore
SplineSet
30 46 m 2,0,-1
 30 291 l 1,1,-1
 30 292 l 1,2,3
 34 305 34 305 38 309 c 0,4,5
 46 319 46 319 60 319 c 2,6,-1
 238 319 l 1,7,-1
 239 319 l 1,8,9
 251 316 251 316 260 306 c 1,10,11
 266 297 266 297 266 288 c 0,12,13
 266 262 266 262 239 256 c 1,14,-1
 238 256 l 1,15,-1
 93 256 l 1,16,-1
 93 51 l 1,17,18
 106 31 106 31 254 31 c 0,19,20
 377 31 377 31 458 124 c 128,-1,21
 539 217 539 217 539 342 c 0,22,23
 539 465 539 465 457.5 558.5 c 128,-1,24
 376 652 376 652 256 652 c 0,25,26
 168 652 168 652 86 608 c 0,27,28
 79 604 79 604 70 604 c 0,29,30
 56 604 56 604 47 613 c 128,-1,31
 38 622 38 622 38 636 c 0,32,33
 38 640 38 640 41 648 c 1,34,35
 47 659 47 659 54 663 c 0,36,37
 147 715 147 715 256 715 c 0,38,39
 354 715 354 715 434.5 662 c 128,-1,40
 515 609 515 609 558.5 524 c 128,-1,41
 602 439 602 439 602 342 c 128,-1,42
 602 245 602 245 558.5 159.5 c 128,-1,43
 515 74 515 74 434.5 21 c 128,-1,44
 354 -32 354 -32 256 -32 c 0,45,46
 30 -32 30 -32 30 46 c 2,0,-1
EndSplineSet
Validated: 1
EndChar

StartChar: subsetornotdbleql
Encoding: 10955 10955 137
Width: 799
VWidth: 1000
Flags: W
HStem: -173 63<82.2822 246 382 720.517> 30 63<82.2822 416 552 720.517> 270 63<278.901 715.718> 770 63<278.901 715.718>
VStem: 76 63<454.17 649.107>
LayerCount: 2
Fore
SplineSet
175 -257 m 2,0,-1
 246 -173 l 1,1,-1
 105 -173 l 1,2,-1
 104 -173 l 1,3,4
 91 -170 91 -170 82 -160 c 0,5,6
 76 -153 76 -153 76 -142 c 0,7,8
 76 -129 76 -129 84.5 -120.5 c 128,-1,9
 93 -112 93 -112 104 -110 c 1,10,-1
 105 -110 l 1,11,-1
 298 -110 l 1,12,-1
 416 30 l 1,13,-1
 105 30 l 1,14,-1
 104 30 l 1,15,16
 91 33 91 33 82 43 c 0,17,18
 76 50 76 50 76 61 c 0,19,20
 76 74 76 74 84.5 82.5 c 128,-1,21
 93 91 93 91 104 93 c 1,22,-1
 105 93 l 1,23,-1
 470 93 l 1,24,-1
 576 219 l 2,25,26
 578 220 578 220 579 221.5 c 128,-1,27
 580 223 580 223 582 224 c 0,28,29
 583 224 583 224 584 225 c 0,30,31
 591.5 228 591.5 228 599 228 c 0,32,33
 604 228 604 228 607 227 c 0,34,35
 624 222 624 222 629 205 c 0,36,37
 630 202 630 202 630 197 c 0,38,39
 630 193 630 193 629 190 c 0,40,41
 627 181 627 181 623 177 c 2,42,-1
 552 93 l 1,43,-1
 694 93 l 1,44,-1
 695 93 l 1,45,46
 722 87 722 87 722 61 c 0,47,48
 722 52 722 52 716 43 c 0,49,50
 708 32 708 32 695 30 c 1,51,-1
 694 30 l 1,52,-1
 500 30 l 1,53,-1
 382 -110 l 1,54,-1
 694 -110 l 1,55,-1
 695 -110 l 1,56,57
 722 -116 722 -116 722 -142 c 0,58,59
 722 -151 722 -151 716 -160 c 0,60,61
 708 -171 708 -171 695 -173 c 1,62,-1
 694 -173 l 1,63,-1
 328 -173 l 1,64,-1
 223 -297 l 1,65,66
 215 -308 215 -308 200 -308 c 0,67,68
 186 -308 186 -308 177 -299 c 128,-1,69
 168 -290 168 -290 168 -276 c 2,70,-1
 168 -271 l 1,71,72
 169 -263 169 -263 175 -257 c 2,0,-1
397 833 m 2,73,-1
 694 833 l 1,74,-1
 695 833 l 1,75,76
 707 830 707 830 716 820 c 1,77,78
 722 811 722 811 722 802 c 0,79,80
 722 776 722 776 695 770 c 1,81,-1
 694 770 l 1,82,-1
 401 770 l 2,83,84
 290 770 290 770 214.5 712 c 128,-1,85
 139 654 139 654 139 552 c 0,86,87
 139 449 139 449 214.5 391 c 128,-1,88
 290 333 290 333 401 333 c 2,89,-1
 694 333 l 1,90,-1
 695 333 l 1,91,92
 707 330 707 330 716 320 c 1,93,94
 722 311 722 311 722 302 c 0,95,96
 722 276 722 276 695 270 c 1,97,-1
 694 270 l 1,98,-1
 397 270 l 2,99,100
 263 270 263 270 169.5 347 c 128,-1,101
 76 424 76 424 76 552 c 0,102,103
 76 679 76 679 169.5 756 c 128,-1,104
 263 833 263 833 397 833 c 2,73,-1
EndSplineSet
Validated: 1
EndChar

StartChar: supersetornotdbleql
Encoding: 10956 10956 138
Width: 799
VWidth: 1000
Flags: W
HStem: -173 63<82.2822 245 382 720.517> 30 63<82.2822 416 552 720.517> 270 63<77.4028 519.099> 770 63<77.4028 519.099>
VStem: 659 63<454.17 649.107>
LayerCount: 2
Fore
SplineSet
176 -255 m 2,0,-1
 245 -173 l 1,1,-1
 105 -173 l 1,2,-1
 104 -173 l 1,3,4
 91 -170 91 -170 82 -160 c 0,5,6
 76 -153 76 -153 76 -142 c 0,7,8
 76 -129 76 -129 84.5 -120.5 c 128,-1,9
 93 -112 93 -112 104 -110 c 1,10,-1
 105 -110 l 1,11,-1
 298 -110 l 1,12,-1
 416 30 l 1,13,-1
 105 30 l 1,14,-1
 104 30 l 1,15,16
 91 33 91 33 82 43 c 0,17,18
 76 50 76 50 76 61 c 0,19,20
 76 74 76 74 84.5 82.5 c 128,-1,21
 93 91 93 91 104 93 c 1,22,-1
 105 93 l 1,23,-1
 470 93 l 1,24,-1
 576 218 l 2,25,26
 584 226 584 226 594 228 c 1,27,-1
 599 228 l 2,28,29
 604 228 604 228 607 227 c 0,30,31
 624 222 624 222 629 205 c 0,32,33
 630 202 630 202 630 197 c 128,-1,34
 630 192 630 192 629 189 c 0,35,36
 626 180 626 180 621 175 c 2,37,-1
 552 93 l 1,38,-1
 694 93 l 1,39,-1
 695 93 l 1,40,41
 722 87 722 87 722 61 c 0,42,43
 722 52 722 52 716 43 c 0,44,45
 708 32 708 32 695 30 c 1,46,-1
 694 30 l 1,47,-1
 500 30 l 1,48,-1
 382 -110 l 1,49,-1
 694 -110 l 1,50,-1
 695 -110 l 1,51,52
 722 -116 722 -116 722 -142 c 0,53,54
 722 -151 722 -151 716 -160 c 0,55,56
 708 -171 708 -171 695 -173 c 1,57,-1
 694 -173 l 1,58,-1
 328 -173 l 1,59,-1
 222 -299 l 1,60,61
 213 -308 213 -308 200 -308 c 0,62,63
 186 -308 186 -308 177 -299 c 128,-1,64
 168 -290 168 -290 168 -276 c 0,65,66
 168 -271 168 -271 169 -268 c 1,67,-1
 169 -267 l 1,68,69
 170 -267 170 -267 170 -266 c 0,70,71
 172 -259 172 -259 176 -255 c 2,0,-1
76 302 m 0,72,73
 76 312 76 312 82 320 c 0,74,75
 89 330 89 330 104 333 c 1,76,-1
 105 333 l 1,77,-1
 397 333 l 2,78,79
 508 333 508 333 583.5 391 c 128,-1,80
 659 449 659 449 659 552 c 0,81,82
 659 654 659 654 583.5 712 c 128,-1,83
 508 770 508 770 397 770 c 2,84,-1
 105 770 l 1,85,-1
 104 770 l 1,86,87
 93 772 93 772 84.5 780.5 c 128,-1,88
 76 789 76 789 76 802 c 1,89,90
 75 812 75 812 82 820 c 1,91,92
 89 830 89 830 104 833 c 1,93,-1
 105 833 l 1,94,-1
 401 833 l 2,95,96
 535 833 535 833 628.5 756 c 128,-1,97
 722 679 722 679 722 552 c 0,98,99
 722 424 722 424 628.5 347 c 128,-1,100
 535 270 535 270 401 270 c 2,101,-1
 105 270 l 1,102,-1
 104 270 l 1,103,104
 93 272 93 272 84.5 280.5 c 128,-1,105
 76 289 76 289 76 302 c 0,72,73
EndSplineSet
Validated: 1
EndChar

StartChar: precedenotdbleql
Encoding: 10933 10933 139
Width: 799
VWidth: 1000
Flags: W
HStem: -202 63<82.2822 232 377 720.517> 1 63<77.4028 421 566 715.718> 441 63<77.4028 338.188>
VStem: 659 63<173.251 262.31 683.402 782.474>
LayerCount: 2
Fore
SplineSet
182 -255 m 1,0,-1
 232 -202 l 1,1,-1
 105 -202 l 1,2,-1
 104 -202 l 1,3,4
 91 -199 91 -199 82 -189 c 0,5,6
 76 -182 76 -182 76 -171 c 0,7,8
 76 -158 76 -158 84.5 -149.5 c 128,-1,9
 93 -141 93 -141 104 -139 c 1,10,-1
 105 -139 l 1,11,-1
 291 -139 l 1,12,-1
 421 1 l 1,13,-1
 105 1 l 1,14,-1
 104 1 l 1,15,16
 93 3 93 3 84.5 11.5 c 128,-1,17
 76 20 76 20 76 33 c 1,18,19
 75 43 75 43 82 51 c 1,20,21
 89 61 89 61 104 64 c 1,22,-1
 105 64 l 1,23,-1
 480 64 l 1,24,-1
 571 162 l 2,25,26
 580 171 580 171 593 171 c 128,-1,27
 606 171 606 171 615.5 161.5 c 128,-1,28
 625 152 625 152 625 139 c 0,29,30
 625 127 625 127 618 119 c 2,31,-1
 616 117 l 1,32,-1
 566 64 l 1,33,-1
 694 64 l 1,34,-1
 695 64 l 1,35,36
 707 61 707 61 716 51 c 1,37,38
 722 42 722 42 722 33 c 0,39,40
 722 7 722 7 695 1 c 1,41,-1
 694 1 l 1,42,-1
 507 1 l 1,43,-1
 377 -139 l 1,44,-1
 694 -139 l 1,45,-1
 695 -139 l 1,46,47
 722 -145 722 -145 722 -171 c 0,48,49
 722 -180 722 -180 716 -189 c 0,50,51
 708 -200 708 -200 695 -202 c 1,52,-1
 694 -202 l 1,53,-1
 318 -202 l 1,54,-1
 227 -300 l 2,55,56
 218 -309 218 -309 205 -309 c 128,-1,57
 192 -309 192 -309 182.5 -299.5 c 128,-1,58
 173 -290 173 -290 173 -277 c 0,59,60
 173 -265 173 -265 180 -257 c 2,61,-1
 182 -255 l 1,0,-1
76 473 m 0,62,63
 76 483 76 483 82 491 c 0,64,65
 89 501 89 501 104 504 c 1,66,-1
 105 504 l 1,67,-1
 106 504 l 2,68,69
 633 504 633 504 659 756 c 0,70,71
 661 767 661 767 670 775.5 c 128,-1,72
 679 784 679 784 691 784 c 0,73,74
 704 784 704 784 713 774 c 0,75,76
 722 765 722 765 722 751 c 2,77,-1
 722 750 l 1,78,79
 701 540 701 540 427 473 c 1,80,81
 700 406 700 406 722 196 c 1,82,-1
 722 195 l 1,83,84
 720 181 720 181 715 173 c 0,85,86
 706 161 706 161 691 161 c 0,87,88
 678 161 678 161 669.5 170 c 128,-1,89
 661 179 661 179 659 190 c 0,90,91
 633 441 633 441 106 441 c 2,92,-1
 105 441 l 1,93,-1
 104 441 l 1,94,95
 93 443 93 443 84.5 451.5 c 128,-1,96
 76 460 76 460 76 473 c 0,62,63
EndSplineSet
Validated: 1
EndChar

StartChar: follownotdbleql
Encoding: 10934 10934 140
Width: 799
VWidth: 1000
Flags: W
HStem: -202 63<82.2822 232 377 720.517> 1 63<77.4028 421 566 715.718> 441 63<460.375 715.718>
VStem: 76 63<683.402 774.202>
LayerCount: 2
Fore
SplineSet
182 -255 m 1,0,-1
 232 -202 l 1,1,-1
 105 -202 l 1,2,-1
 104 -202 l 1,3,4
 91 -199 91 -199 82 -189 c 0,5,6
 76 -182 76 -182 76 -171 c 0,7,8
 76 -158 76 -158 84.5 -149.5 c 128,-1,9
 93 -141 93 -141 104 -139 c 1,10,-1
 105 -139 l 1,11,-1
 291 -139 l 1,12,-1
 421 1 l 1,13,-1
 105 1 l 1,14,-1
 104 1 l 1,15,16
 93 3 93 3 84.5 11.5 c 128,-1,17
 76 20 76 20 76 33 c 1,18,19
 75 43 75 43 82 51 c 1,20,21
 89 61 89 61 104 64 c 1,22,-1
 105 64 l 1,23,-1
 480 64 l 1,24,-1
 571 161 l 1,25,26
 580 168 580 168 585 170 c 0,27,28
 587 171 587 171 593 171 c 0,29,30
 606 171 606 171 615.5 161.5 c 128,-1,31
 625 152 625 152 625 139 c 0,32,33
 625 127 625 127 618 119 c 2,34,-1
 616 117 l 1,35,-1
 566 64 l 1,36,-1
 694 64 l 1,37,-1
 695 64 l 1,38,39
 707 61 707 61 716 51 c 1,40,41
 722 42 722 42 722 33 c 0,42,43
 722 7 722 7 695 1 c 1,44,-1
 694 1 l 1,45,-1
 507 1 l 1,46,-1
 377 -139 l 1,47,-1
 694 -139 l 1,48,-1
 695 -139 l 1,49,50
 722 -145 722 -145 722 -171 c 0,51,52
 722 -180 722 -180 716 -189 c 0,53,54
 708 -200 708 -200 695 -202 c 1,55,-1
 694 -202 l 1,56,-1
 318 -202 l 1,57,-1
 227 -299 l 1,58,59
 218 -306 218 -306 213 -308 c 0,60,61
 211 -309 211 -309 205 -309 c 0,62,63
 192 -309 192 -309 182.5 -299.5 c 128,-1,64
 173 -290 173 -290 173 -277 c 0,65,66
 173 -265 173 -265 180 -257 c 2,67,-1
 182 -255 l 1,0,-1
76 195 m 2,68,-1
 76 196 l 1,69,70
 98 406 98 406 371 473 c 1,71,72
 317 486 317 486 271 506.5 c 128,-1,73
 225 527 225 527 181.5 559 c 128,-1,74
 138 591 138 591 110 640 c 128,-1,75
 82 689 82 689 76 750 c 1,76,-1
 76 751 l 2,77,78
 76 765 76 765 85 774.5 c 128,-1,79
 94 784 94 784 108 784 c 0,80,81
 117 784 117 784 126 778 c 0,82,83
 136 770 136 770 139 756 c 1,84,85
 165 504 165 504 693 504 c 2,86,-1
 694 504 l 1,87,-1
 695 504 l 1,88,89
 707 501 707 501 716 491 c 1,90,91
 722 482 722 482 722 473 c 0,92,93
 722 447 722 447 695 441 c 1,94,-1
 694 441 l 1,95,-1
 693 441 l 2,96,97
 165 441 165 441 139 190 c 1,98,99
 136 176 136 176 126 167 c 0,100,101
 119 161 119 161 108 161 c 0,102,103
 100 161 100 161 96 163 c 0,104,105
 90 166 90 166 85 171 c 0,106,107
 76 180 76 180 76 195 c 2,68,-1
EndSplineSet
Validated: 1
EndChar

